<?xml version="1.0" encoding="utf-8"?>
<!-- Generator: Adobe Illustrator 22.1.0, SVG Export Plug-In . SVG Version: 6.00 Build 0)  -->
<svg version="1.1" id="Layer_1" xmlns="http://www.w3.org/2000/svg" xmlns:xlink="http://www.w3.org/1999/xlink" x="0px" y="0px"
	 viewBox="0 0 2267.717 1133.858" style="enable-background:new 0 0 2267.717 1133.858;" xml:space="preserve">
<style type="text/css">
	.st0{fill:none;stroke:#000000;stroke-width:6;stroke-miterlimit:10;}
</style>
<path class="st0" d="M1231.266,776.118c1.573-13.721,1.915-27.492,4.184-41.097c1.086-6.508,4.038-12.811,6.789-18.917
	c8.868-19.682,20.907-37.424,34.411-54.163c4.908-6.083,10.553-11.568,15.803-17.38c3.679-4.073,7.131-8.356,10.909-12.332
	c4.802-5.054,9.824-9.899,14.765-14.82c4.83-4.812,7.06-10.596,7.49-17.427c0.666-10.561,2.076-21.076,2.729-31.638
	c0.321-5.196-0.038-10.491-0.675-15.669c-0.443-3.597-3.284-4.462-5.456-1.586c-4.711,6.24-8.914,12.868-13.265,19.376
	c-6.286,9.404-12.21,19.069-18.871,28.198c-5.571,7.635-11.471,15.168-18.14,21.831c-8.553,8.545-19.513,12.914-31.599,13.557
	c-12.698,0.676-22.493-6.759-27.062-19.435c-4.352-12.074-4.29-24.422-3.025-36.944c1.503-14.885,5.573-29.02,11.729-42.615
	c5.565-12.289,13.622-22.607,24.325-30.794c5.735-4.387,11.447-8.868,17.562-12.676c8.4-5.232,17.77-8.209,27.711-7.662
	c9.952,0.547,19.481,3.042,27.021,10.277c1.066,1.022,1.968,2.26,2.759,3.516c2.316,3.678,2.247,7.234-0.228,10.442
	c-2.356,3.053-5.699,2.997-8.907,2.157c-3.471-0.91-6.976-2.012-10.162-3.63c-8.403-4.266-14.737-0.951-21.425,4.291
	c-13.003,10.191-21.084,23.842-28.372,38.128c-3.891,7.628-7.985,15.267-10.745,23.326c-2.811,8.211-2.321,16.996-0.292,25.471
	c1.113,4.648,3.907,5.635,7.747,2.637c3.308-2.583,6.062-5.877,9.052-8.865c6.44-6.436,13.138-12.638,19.243-19.378
	c7.534-8.316,14.559-17.092,21.83-25.648c5.335-6.277,10.615-12.607,16.098-18.753c6.232-6.986,12.554-13.898,19.035-20.652
	c7.825-8.156,24.989-8.167,32.328,0.982c4.194,5.229,4.273,11.262,3.638,17.417c-0.817,7.917-2.301,15.795-2.616,23.725
	c-0.333,8.354,0.292,16.753,0.655,25.126c0.222,5.124,3.119,7.147,8,5.962c9.298-2.259,18.498-5.442,27.933-6.49
	c12.413-1.378,11.943-3.141,13.827-15.291c2.749-17.729,10.243-33.565,18.683-48.927c6.687-12.17,18.215-19.262,30.837-24.404
	c9.661-3.935,19.712-5.332,29.972-2.999c7.71,1.753,14.161,6.161,19.969,11.306c3.819,3.383,7.41,7.162,10.463,11.242
	c6.591,8.807,5.518,18.447,1.173,27.636c-4.616,9.762-11.2,18.345-19.22,25.607c-9.333,8.452-18.747,16.855-28.638,24.629
	c-3.781,2.972-8.9,4.35-13.545,6.091c-10.08,3.779-12.201,6.614-12.155,17.465c0.037,8.791,0.936,17.429,5.053,25.42
	c4.494,8.721,10.377,10.17,19.08,7.947c9.66-2.468,17.287-8.694,24.688-15.06c4.829-4.155,9.307-8.754,14.378-12.576
	c2.14-1.613,5.413-2.43,8.15-2.385c4.586,0.076,6.696,3.406,4.938,7.743c-1.516,3.74-3.354,7.697-6.109,10.525
	c-11.151,11.444-22.592,22.616-34.189,33.611c-3.888,3.686-9.001,4.917-14.491,5.038c-8.078,0.178-15.94-0.476-23.495-3.533
	c-8.721-3.529-15.508-9.483-20.735-17.137c-6.286-9.203-11.557-19.003-14.195-29.912c-1.367-5.653-1.623-11.567-2.793-17.278
	c-1.632-7.969-4.606-9.982-12.123-7.332c-11.805,4.16-22.824,9.828-32.177,18.49c-5.051,4.677-7.449,10.401-7.721,16.876
	c-0.585,13.903-3.706,27.323-6.544,40.85c-1.91,9.104-2.123,18.582-4.278,27.61c-2.441,10.229-6.075,20.186-9.435,30.179
	c-2.417,7.187-4.651,14.528-7.989,21.295c-8.49,17.212-16.848,34.581-28.744,49.808c-10.26,13.133-23.714,20.951-40.634,21.239
	c-17.307,0.295-35.283-16.295-34.76-34.716C1231.475,780.768,1231.266,778.376,1231.266,776.118z M1258.062,768.399
	c0.292,2.719,0.291,6.145,1.078,9.378c2.255,9.256,7.874,12.816,16.74,7.365c2.898-1.781,5.379-4.457,7.582-7.113
	c8.014-9.664,12.714-21.071,16.492-32.871c3.522-11.002,6.213-22.304,10.308-33.08c4.854-12.773,8.47-25.697,9.131-39.352
	c0.082-1.691,0.357-3.822-1.5-5.156c-1.893-0.874-3.731,0.754-4.885,1.868c-4.214,4.067-8.165,8.412-12.134,12.727
	c-10.65,11.579-20.61,23.664-28.429,37.423C1263.936,734.561,1259.027,750.525,1258.062,768.399z M1500.264,523.718
	c-0.167-0.759-0.441-2.092-0.753-3.416c-1.41-5.976-5.67-7.812-10.914-4.577c-1.688,1.041-3.262,2.346-4.667,3.751
	c-7.551,7.555-13.879,16.061-18.791,25.533c-2.168,4.181-3.898,8.63-5.372,13.107c-0.552,1.677,0.187,3.778,0.337,5.686
	c1.612-0.32,3.445-0.253,4.802-1.023c10.611-6.021,19.861-13.841,28.156-22.691C1497.087,535.795,1499.841,530.502,1500.264,523.718
	z"/>
<path class="st0" d="M468.212,379.27c4.602,0.354,8.404,0.715,12.947,1.437c10.984,1.745,14.588,6.441,16.672,17.591
	c0.524,2.803,0.626,5.694,0.801,8.552c0.548,8.93-0.925,17.51-3.129,26.221c-2.365,9.345-2.977,19.132-4.395,28.72
	c-1.292,8.734-2.712,17.45-3.939,26.193c-0.813,5.787-1.387,11.608-2.066,17.415c-0.563,4.817-1.168,9.63-1.657,14.455
	c-0.171,1.682-0.17,3.404-0.037,5.091c0.223,2.853,1.127,5.746,0.84,8.529c-1.001,9.719,6.632,11.174,13.645,10.269
	c5.626-0.727,9.322-4.506,12.488-8.819c5.159-7.028,10.021-14.284,15.388-21.147c12.958-16.568,26.274-32.857,39.174-49.47
	c8.42-10.843,15.744-22.425,21.393-35.01c1.37-3.052,3.149-5.929,4.853-8.82c2.364-4.01,6.36-5.56,10.541-5.025
	c5.386,0.69,10.771,2.035,15.912,3.806c5.363,1.848,7.895,8.146,6.483,14.298c-1.39,6.058-4.68,11.04-8.107,16.183
	c-6.893,10.345-13.299,21.056-19.264,31.966c-4.546,8.315-9.963,15.501-17.232,21.739c-6.683,5.735-12.457,12.642-18.058,19.501
	c-11.344,13.891-21.99,28.36-33.529,42.081c-7.217,8.581-8.441,17.1-3.167,26.785c0.776,1.425,1.367,2.954,2.194,4.346
	c7.007,11.784,14.181,23.471,21.04,35.34c5.689,9.842,14.163,16.031,24.737,19.381c9.47,3,19.091,5.53,28.676,8.155
	c3.821,1.046,7.739,2.072,8.558,6.59c0.927,5.116-1.796,9.666-6.528,12.417c-6.259,3.639-13.158,4.289-19.974,3.359
	c-17.899-2.441-34.156-9.591-49.55-18.761c-12.504-7.447-21.203-18.735-29.794-30.113c-3.457-4.578-7.037-9.078-10.808-13.397
	c-2.281-2.613-4.141-2.179-5.046,1.136c-2.215,8.115-3.076,16.298-1.341,24.715c1.049,5.089,1.337,10.337,1.918,15.52
	c0.762,6.801,2.082,13.609,2.065,20.411c-0.025,9.708-0.524,19.486-1.845,29.093c-0.74,5.385-3.103,10.703-5.531,15.661
	c-3.156,6.444-10.026,7.476-16.17,4.282c-13.304-6.916-21.547-18.172-25.515-32.572c-0.292-1.059-0.132-2.242-0.182-3.368
	c-0.762-16.969-1.116-33.969-2.407-50.898c-1.144-14.995-3.539-29.892-4.947-44.873c-0.51-5.426,0.392-10.971,0.385-16.462
	c-0.014-10.384-0.213-20.768-0.353-31.151c-0.018-1.375-0.211-2.749-0.197-4.122c0.236-22.868,0.335-45.74,0.848-68.602
	c0.139-6.179,1.59-12.324,2.359-18.495c0.507-4.07,1.184-8.154,1.238-12.238c0.147-11.143,2.023-22.02,4.115-32.92
	c0.98-5.103,1.088-10.418,1.146-15.642c0.054-4.9,1.134-9.344,3.871-13.398c2.445-3.62,6.018-5.1,10.199-5.266
	c3.131-0.124,5.05-0.623,8.186-0.623C466.118,379.318,468.035,379.27,468.212,379.27z"/>
<path class="st0" d="M981.38,224.95c0.29-15.969,4.926-28.939,12.19-40.895c3.584-5.899,7.989-11.48,12.857-16.375
	c7.66-7.703,18.09-9.666,28.322-11.268c7.742-1.213,15.631-2.318,23.431-2.174c19.407,0.359,38.507,2.687,56.187,11.774
	c7.406,3.807,15.051,7.169,22.711,10.444c1.406,0.601,3.719,0.36,5.083-0.42c12.234-7,24.309-14.43,38.169-17.766
	c11.687-2.813,23.512-5.122,35.356-7.197c10.986-1.924,21.793-0.48,32.451,2.786c12.252,3.754,21.141,11.501,27.221,22.493
	c5.499,9.941,9.985,20.303,11.839,31.684c1.343,8.246,0.941,16.381-1.134,24.343c-3.221,12.364-6.25,24.845-10.581,36.835
	c-4.833,13.382-14.343,23.879-24.475,33.617c-12.314,11.836-25.032,23.23-39.663,32.216c-17.936,11.016-35.759,22.235-53.993,32.736
	c-8.43,4.855-17.896,8.311-27.866,7.182c-7.598-0.861-15.261-2.623-22.464-5.192c-15.471-5.516-30.872-11.336-45.918-17.909
	c-18.957-8.281-33.845-21.77-45.798-38.592c-15.646-22.018-26.481-46.164-32.03-72.597
	C982.076,234.973,981.855,229.064,981.38,224.95z M1108.928,203.056c-0.772-0.691-1.158-1.216-1.677-1.474
	c-6.366-3.166-12.657-6.507-19.155-9.378c-8.615-3.806-17.776-5.224-27.129-6.395c-16.995-2.128-31.057,5.35-40.048,18.244
	c-7.513,10.774-9.046,23.02-8.223,35.971c0.819,12.894,5.033,24.565,10.727,35.863c1.672,3.317,3.291,7.282,6.117,9.248
	c4.115,2.863,6.307,6.647,8.186,10.797c4.577,10.11,11.993,17.743,20.746,24.178c13.911,10.228,29.457,17.195,45.969,21.941
	c7.021,2.018,14.225,4.018,21.455,4.559c15.584,1.164,29.69-4.731,42.139-13.089c19.027-12.774,37.991-25.909,53.008-43.655
	c5.789-6.841,12.121-13.38,16.906-20.885c12.441-19.512,17.666-40.763,13.062-63.934c-2.546-12.812-9.974-21.188-21.752-23.203
	c-10.433-1.785-20.902-1.029-31.264,0.986c-10.233,1.99-19.719,6.002-29.027,10.602c-5.168,2.554-5.63,4.086-1.2,7.497
	c10.201,7.853,18.912,16.919,24.745,28.607c3.444,6.901,7.653,13.419,11.159,20.293c3.63,7.116,4.601,14.754,2.568,22.543
	c-2.512,9.625-12.345,13.437-19.816,7.306c-4.258-3.494-7.996-7.9-11.068-12.496c-4.485-6.711-7.464-14.5-12.358-20.847
	c-6.083-7.889-13.385-14.852-20.31-22.072c-5.206-5.428-8.254-5.046-13.185,0.711c-3.073,3.587-6.418,6.977-9.913,10.158
	c-9.717,8.842-19.524,17.518-27.399,28.214c-4.867,6.61-10.324,12.875-18.728,15.509c-5.542,1.737-12.988,0.277-16.503-4.136
	c-3.456-4.339-2.115-9.084,0.341-13.267c2.768-4.714,5.701-9.473,9.345-13.505c9.403-10.402,19.249-20.402,28.894-30.585
	C1099.99,212.668,1104.381,207.92,1108.928,203.056z"/>
<path class="st0" d="M652.813,686.873c-1.234-11.385-1.729-22.829-2.41-34.247c-0.367-6.152,0.875-12.403,1.422-18.607
	c0.427-4.837,1.154-9.662,1.305-14.506c0.399-12.775,0.243-25.574,0.933-38.33c0.388-7.167,2.115-14.253,3.055-21.4
	c1.054-8.012,2.053-16.036,2.799-24.081c1.127-12.151,2.506-24.311,2.836-36.493c0.231-8.522,2.53-16.161,6.061-23.684
	c3.422-7.29,9.253-11.078,17.093-11.18c5.441-0.071,10.963,0.5,16.326,1.466c6.225,1.121,8.382,4.556,8.734,10.738
	c0.463,8.146-2.426,15.457-5.068,22.83c-4.69,13.088-7.488,26.551-8.553,40.394c-0.258,3.354-0.574,6.707-0.685,10.066
	c-0.027,0.83-0.254,1.951,0.993,2.526c0.94,0.221,1.703-0.546,2.183-1.126c3.182-3.844,6.931-7.414,9.254-11.74
	c9.146-17.035,23.423-28.946,38.623-40.05c7.57-5.53,15.444-10.466,24.419-13.476c13.49-4.524,25.238-1.447,36.438,6.979
	c11.964,9.002,14.186,20.878,12.411,34.603c-1.449,11.199-4.348,21.943-9.393,32.025c-3.064,6.124-7.205,11.757-9.834,18.041
	c-6.271,14.985-15.893,27.887-24.663,41.325c-1.476,2.261-3.449,4.464-5.697,5.91c-10.252,6.598-20.479,13.284-31.12,19.21
	c-7.301,4.066-15.305,6.611-24.007,5.93c-6.678-0.523-9.699-4.798-7.28-10.992c2.466-6.316,7.9-9.386,13.61-12.132
	c7.522-3.618,15.092-7.147,22.497-10.992c5.732-2.977,10.816-7.077,13.961-12.732c9.085-16.335,20.078-31.653,26.661-49.334
	c3.738-10.038,7.52-20.083,7.487-31.032c-0.032-10.742-7.815-15.774-17.771-11.677c-6.27,2.58-10.798,7.303-14.994,12.232
	c-7.274,8.546-14.524,17.169-21.015,26.307c-5.109,7.191-8.993,15.245-13.551,22.838c-2.623,4.369-5.887,8.39-8.171,12.916
	c-2.794,5.537-4.887,11.431-7.243,17.186c-7.027,17.172-11.474,35.153-16.249,53.005c-3.301,12.341-4.602,25.137-3.424,37.841
	c0.878,9.47,3.498,18.779,5.346,28.16c1.128,5.725,2.755,11.406,3.249,17.184c0.468,5.464-1.399,11.294-7.977,13.306
	c-5.914,1.809-12.076,1.946-17.948-0.586c-7.416-3.198-10.655-9.995-13.414-16.805c-3.95-9.753-5.617-20.077-6.128-30.587
	C653.637,698.361,653.167,692.607,652.813,686.873z"/>
<path class="st0" d="M1782.793,447.599c2.742,0.385,7.605,0.784,12.337,1.795c7.816,1.671,11.85,8.721,10.298,17.247
	c-3.428,18.828-6.947,37.64-10.2,56.498c-1.563,9.058-2.661,18.198-3.871,27.314c-0.854,6.439,1.492,10.198,7.647,12.355
	c3.167,1.11,6.356,2.248,9.626,2.953c8.005,1.724,14.951,5.228,20.885,10.943c4.681,4.508,9.736,8.624,14.517,13.031
	c8.361,7.709,11.554,16.812,7.525,27.951c-3.466,9.585-6.615,19.284-10.049,28.881c-3.472,9.701-9.876,17.631-16.371,25.343
	c-6.519,7.739-13.466,15.164-20.697,22.244c-7.522,7.365-16.473,12.084-27.469,11.492c-7.91-0.426-14.626-3.774-20.678-8.641
	c-3.98-3.201-7.892-6.488-11.844-9.726c-3.357-2.75-5.672-6.121-7.229-10.243c-4.29-11.355-6.574-22.971-5.908-35.154
	c0.613-11.223,1.258-22.455,1.41-33.689c0.077-5.703-1.438-11.436-1.271-17.127c0.229-7.818,1.182-15.633,2.17-23.406
	c1.191-9.37,2.253-18.802,4.27-28.01c2.307-10.536,5.703-20.829,8.441-31.276c3.373-12.87,6.259-25.876,9.955-38.65
	c1.604-5.544,4.175-10.992,7.276-15.869C1766.68,448.952,1769.639,448.026,1782.793,447.599z M1783.446,647.644
	c0,2.38,0.206,4.804,0.42,7.164c0.178,1.961,0.75,3.895,1.235,5.818c1.677,6.65,5.598,7.839,10.663,3.038
	c2.975-2.82,5.882-5.8,8.33-9.075c9.798-13.111,13.214-24.628,4.046-39.946c-3.532-5.901-7.113-11.818-14.273-13.997
	c-5.355-1.63-9.828,1.601-10.079,7.185c-0.056,1.25-0.094,2.511-0.001,3.757c0.425,5.705,1.315,11.411,1.244,17.107
	C1784.951,635.016,1784.011,641.328,1783.446,647.644z"/>
<path class="st0" d="M1632.698,705.498c1.101-9.016,2.105-18.065,2.677-27.114c0.621-9.818,0.382-19.691,0.476-29.54
	c0.028-2.882-0.172-5.766-0.119-8.647c0.208-11.265,0.979-22.55,0.536-33.787c-0.271-6.88-2.453-13.674-3.628-20.532
	c-1.089-6.36-2.513-12.725-2.846-19.138c-0.642-12.374-0.47-24.789-0.958-37.174c-0.16-4.058-0.998-8.167-2.099-12.091
	c-1.406-5.016-4.963-5.731-8.088-1.53c-3.102,4.169-5.836,8.675-8.234,13.292c-5.185,9.985-7.008,20.813-8.294,31.941
	c-1.034,8.949-3.075,17.968-6.087,26.452c-3.027,8.525-5.074,17.103-6.527,25.973c-1.828,11.161-3.876,22.311-6.51,33.303
	c-1.27,5.299-3.687,10.464-6.44,15.193c-0.996,1.711-4.553,2.887-6.827,2.722c-7.013-0.509-12.65-3.759-15.326-10.679
	c-0.573-1.482-0.547-3.419-0.183-5.005c2.328-10.171,5.1-20.248,7.17-30.468c1.303-6.435,1.411-13.102,2.459-19.6
	c1.956-12.132,6.718-23.378,11.226-34.725c3.301-8.309,5.498-17.06,8.848-25.347c4.048-10.011,8.299-20.003,13.369-29.52
	c5.721-10.738,12.037-21.218,18.847-31.302c8.83-13.075,21.585-19.504,37.433-18.341c10.19,0.748,19.656,3.689,25.337,13.458
	c4.096,7.043,3.505,14.726,3.073,22.289c-0.724,12.692-1.917,25.357-2.843,38.038c-0.346,4.737-0.47,9.49-0.745,14.232
	c-0.488,8.413-1.282,16.819-1.417,25.237c-0.075,4.694,1.134,9.393,1.389,14.11c0.408,7.545,0.657,15.106,0.682,22.661
	c0.018,5.491-0.484,10.982-0.67,16.475c-0.533,15.748-0.93,31.501-1.557,47.245c-0.683,17.164-4.744,33.488-12.821,48.722
	c-1.922,3.626-4.442,6.553-8.855,7.3c-10.059,1.703-22.132-8.165-22.443-18.456C1632.649,709.263,1632.698,707.38,1632.698,705.498z
	"/>
<path class="st0" d="M1035.56,604.088c-0.324,4.98-0.849,9.971-0.795,14.946c0.05,4.584,0.7,9.178,1.315,13.736
	c0.498,3.691-0.673,7.158-3.255,9.122c-3.777,2.873-8.159,5.276-12.648,6.809c-6.236,2.13-12.631-2.714-14.435-11.216
	c-1.825-8.606-2.954-17.392-3.859-26.153c-0.858-8.304-1.348-16.678-1.402-25.025c-0.041-6.461,1.074-12.921,1.258-19.394
	c0.237-8.344-0.265-16.715,0.154-25.045c0.374-7.44,1.523-14.844,2.414-22.254c0.593-4.934,1.225-9.87,2.077-14.764
	c0.234-1.341,1.001-3.081,2.069-3.707c7.514-4.404,15.55-6.967,24.235-4.24c5.597,1.757,8.324,5.78,7.937,11.74
	c-0.646,9.937-1.879,19.834-2.668,29.763c-0.514,6.469-1.156,12.987-0.875,19.445c0.343,7.866,5.782,9.807,13.342,9.292
	c6.572-0.448,13.13-1.204,19.664-2.063c10.973-1.442,21.984-2.733,32.857-4.744c7.333-1.356,8.292-3.583,8.841-11.184
	c0.689-9.554,1.95-19.064,2.809-28.608c0.861-9.572,1.637-19.142-0.412-28.709c-0.514-2.401-0.503-5.063-0.073-7.487
	c0.958-5.41,3.892-8.677,9.331-8.068c4.072,0.456,8.218,0.599,12.193,1.495c10.488,2.364,16.693,9.185,17.908,19.849
	c0.674,5.917,0.53,11.922,0.919,17.877c0.625,9.571,1.955,19.136,1.924,28.7c-0.029,8.801-0.556,17.8-2.48,26.349
	c-3.191,14.182-3.249,28.159-0.461,42.264c1.682,8.514,2.76,17.269,5.564,25.415c6.576,19.098,20.544,30.137,40.334,33.66
	c3.529,0.628,7.26,0.118,10.898,0.129c2.007,0.006,4.015-0.009,6.022,0.004c5.501,0.035,8.689,1.529,9.465,4.42
	c0.73,2.721-1.929,8.735-5.44,10.358c-5.14,2.376-10.475,4.732-15.979,5.814c-6.558,1.29-13.383,1.669-20.09,1.653
	c-13.847-0.032-27.282-2.81-38.428-11.331c-15.531-11.874-27.23-26.443-29.681-46.967c-1.055-8.836-3.794-17.46-5.424-26.244
	c-1.201-6.47-1.994-13.028-2.686-19.576c-0.52-4.921-2.553-9.707-9.866-9.599c-17.008,0.251-33.864,1.424-50.439,5.409
	c-2.526,0.607-4.988,1.541-7.417,2.484c-3.308,1.283-4.703,3.956-4.794,7.358C1035.409,598.559,1035.56,601.328,1035.56,604.088z"/>
<path class="st0" d="M914.089,482.1c1.999,0.289,4.479,0.232,6.644,1.029c11.747,4.327,24.413,6.416,34.893,13.862
	c6.156,4.374,10.883,9.819,12.367,17.594c1.111,5.815-0.127,11.454-2.78,16.25c-3.949,7.14-8.392,14.266-13.901,20.217
	c-6.571,7.101-14.485,12.96-21.825,19.348c-4.333,3.772-8.375,7.985-13.115,11.152c-4.18,2.793-9.072,4.593-13.782,6.508
	c-10.179,4.138-16.48,10.657-16.281,23.712c0.127,8.339-0.319,16.622,2.207,24.809c3.294,10.675,10.863,15.008,21.553,11.692
	c9.669-2.999,17.682-8.837,24.637-15.815c7.823-7.849,14.677-16.654,22.248-24.768c3.085-3.306,6.713-6.278,10.578-8.591
	c1.359-0.813,4.797,0.156,6.139,1.477c1.377,1.356,2.483,4.677,1.753,6.205c-4.483,9.389-8.082,19.259-15.408,27.152
	c-7.121,7.672-13.612,15.927-20.426,23.886c-7.302,8.529-16.474,14.056-27.402,16.551c-15.339,3.502-30.142,2.198-43.186-7.096
	c-11.972-8.529-19.199-20.699-21.328-35.147c-1.104-7.49,0.237-15.326,0.287-23.006c0.02-3.096-0.237-6.241-0.849-9.266
	c-0.179-0.883-1.93-1.774-3.11-2.075c-9.221-2.354-15.055-14.008-10.574-22.504c1.101-2.088,4.725-3.502,7.402-3.944
	c3.815-0.631,6.19-2.253,7.544-5.747c2.386-6.155,4.992-12.23,7.22-18.441c5.431-15.141,12.93-29.361,22.333-42.184
	c7.55-10.296,17.302-19.106,30.582-22.236C910.194,482.328,911.968,482.326,914.089,482.1z M933.091,527.862
	c-0.426-1.809-0.721-3.626-1.291-5.388c-1.915-5.916-6.515-7.682-11.636-4.242c-2.34,1.572-4.447,3.616-6.299,5.758
	c-3.425,3.96-6.538,8.188-9.866,12.234c-5.444,6.617-9.904,13.758-11.782,22.231c-0.319,1.44-0.331,3.49,0.17,4.57
	c0.292,0.246,2.961-0.007,4.115-0.624c11.709-6.26,22.583-13.763,31.611-23.54C930.745,536.009,933.435,530.177,933.091,527.862z"/>
<path class="st0" d="M1632.773,319.676c-10.546-0.038-20.513-3.017-30.283-6.261c-20.65-6.856-41.062-14.427-61.687-21.362
	c-6.095-2.049-12.699-2.558-18.85-4.477c-8.299-2.59-16.289-6.17-24.588-8.759c-9.84-3.07-19.849-5.608-29.819-8.249
	c-10.213-2.705-20.388-5.639-30.726-7.756c-8.503-1.742-17.227-2.389-25.841-3.608c-7.144-1.011-14.259-2.232-21.408-3.204
	c-5.914-0.804-11.85-1.473-17.792-2.04c-12.037-1.147-23.984-2.736-35.528-6.539c-0.237-0.078-0.519-0.117-0.695-0.271
	c-2.337-2.047-5.945-3.736-6.684-6.261c-1.113-3.799,1.517-7.3,4.663-9.926c6.117-5.106,13.389-5.824,20.856-5.288
	c6.323,0.454,12.619,1.336,18.912,2.147c9.617,1.239,19.224,2.558,28.83,3.885c8.498,1.174,17.027,2.189,25.474,3.664
	c12.364,2.158,24.75,4.307,36.981,7.096c26.056,5.941,52.097,11.985,77.994,18.576c19.313,4.916,37.994,11.783,56.249,19.911
	c11.359,5.058,23.363,8.648,34.874,13.391c5.365,2.211,10.347,5.433,15.316,8.5c3.904,2.41,6.286,6.27,5.021,10.786
	c-1.122,4.004-5.579,4.24-8.993,4.899C1641.032,319.306,1636.871,319.327,1632.773,319.676z"/>
<path class="st0" d="M914.615,225.786c4.293,0.66,9.154,1.066,13.827,2.226c4.344,1.078,5.223,3.362,3.772,7.64
	c-1.701,5.012-4.967,8.831-9.995,10.381c-10.074,3.104-20.183,6.217-30.459,8.508c-15.514,3.459-31.162,6.332-46.794,9.236
	c-11.716,2.177-23.468,4.192-35.252,5.956c-17.358,2.599-34.539,5.851-51.311,11.176c-22.884,7.266-45.848,14.28-68.783,21.384
	c-13.891,4.303-27.719,8.836-41.717,12.758c-8.296,2.325-16.899,3.226-25.516,1.351c-3.261-0.71-6.363-2.043-7.396-5.504
	c-1.05-3.52,0.846-6.234,3.36-8.589c6.227-5.836,13.779-9.489,21.6-12.39c11.536-4.278,23.18-8.346,34.993-11.758
	c6.757-1.951,14.046-1.994,20.907-3.667c9.756-2.379,19.498-5.013,28.961-8.348c17.828-6.285,35.257-13.793,54.087-16.807
	c9.204-1.473,18.483-2.509,27.646-4.19c12.701-2.33,25.309-5.164,37.986-7.63c17.073-3.321,34.151-6.622,51.274-9.668
	C901.794,226.784,907.919,226.496,914.615,225.786z"/>
<path class="st0" d="M907.774,959.997c-1.099,6.634-2.064,13.243-3.324,19.795c-0.819,4.26-4.244,6.454-8.072,5.608
	c-5.755-1.27-7.727-4.023-6.959-8.911c1.928-12.275,3.657-24.581,5.487-36.871c1.153-7.743,2.514-15.46,3.431-23.229
	c0.373-3.155,0.292-6.536-0.454-9.602c-0.704-2.895-1.365-5.358,1.335-7.397c2.8-2.115,6.238-2.553,8.627-0.249
	c2.825,2.725,5.275,2.069,8.439,1.345c9.241-2.114,18.349-1.998,26.697,3.334c7.562,4.83,10.209,12.321,9.448,20.65
	c-0.731,7.996-2.59,15.916-4.326,23.788c-2.644,11.985-13.738,17.096-24.983,15.028
	C918.061,962.356,913.054,961.138,907.774,959.997z M937.246,921.515c-0.292-1.188-0.467-2.297-0.836-3.338
	c-2.384-6.73-15.144-10.325-21.062-5.909c-0.529,0.395-0.959,1.189-1.058,1.854c-1.31,8.725-2.693,17.443-3.769,26.198
	c-1.019,8.281-0.822,8.367,7.554,10.576c0.601,0.159,1.207,0.321,1.821,0.409c8.256,1.171,11.711-0.517,13.476-7.838
	C935.111,936.245,935.993,928.817,937.246,921.515z"/>
<path class="st0" d="M1473.47,938.273c0.588,3.094,1.128,6.348,1.839,9.563c0.723,3.27,1.646,6.495,2.426,9.753
	c1.14,4.758-1.096,7.703-6.825,9.067c-3.742,0.891-7.377-1.536-8.342-5.624c-3.025-12.811-6.028-25.626-9.042-38.44
	c-1.847-7.854-3.577-15.739-5.627-23.54c-0.575-2.188-1.759-4.434-3.269-6.106c-2.044-2.264-3.246-4.355-1.774-7.316
	c1.475-2.966,4.467-4.542,7.058-3.656c4.917,1.681,7.862-0.828,11.357-3.262c7.36-5.128,15.745-7.196,24.488-5.476
	c6.339,1.247,11.811,5.24,13.888,11.46c2.974,8.909,5.561,18.1,6.869,27.374c1.84,13.044-5.339,20.635-17.506,23.82
	C1484.242,937.138,1479.22,937.424,1473.47,938.273z M1475.363,926.795c2.803-0.493,5.66-0.787,8.398-1.523
	c5.284-1.419,8.081-4.432,7.229-9.739c-1.37-8.529-3.597-16.945-5.9-25.288c-0.839-3.038-3.678-4.567-6.996-4.748
	c-5.668-0.309-10.438,1.94-14.746,5.297c-0.656,0.511-1.057,1.99-0.859,2.859c2.148,9.435,4.504,18.822,6.655,28.255
	C1469.931,925.355,1471.388,927.466,1475.363,926.795z"/>
<path class="st0" d="M1156.959,938.257c-8.12,11.479-16.269,22.937-24.349,34.444c-4.436,6.318-11.419,7.528-15.725,2.543
	c-0.68-0.787-1.311-1.934-1.33-2.927c-0.331-17.269-0.629-34.54-0.771-51.812c-0.035-4.285,3.411-6.933,8.153-6.814
	c4.349,0.109,7.329,2.978,7.343,7.19c0.031,9.53,0.011,19.06,0.012,28.59c0,1.214,0,2.428,0,4.406
	c1.186-1.071,1.902-1.518,2.352-2.153c8.138-11.472,16.226-22.979,24.368-34.448c2.671-3.763,7.047-5.051,11.607-3.466
	c4.071,1.416,4.606,4.779,4.598,8.491c-0.032,16.283,0.016,32.567-0.032,48.85c-0.013,4.265-2.526,6.292-7.431,6.283
	c-4.861-0.009-7.328-2.064-7.349-6.374c-0.054-10.869-0.018-21.739-0.018-32.608
	C1157.911,938.388,1157.435,938.322,1156.959,938.257z"/>
<path class="st0" d="M720.714,885.839c1.322,2.075,3.669,4.845,5,8.038c2.931,7.031-2.331,15.552-9.016,18.111
	c-5.35,2.048-10.625,1.764-15.773,0.307c-8.014-2.267-15.909-4.997-23.75-7.824c-5.752-2.073-7.004-5.039-5.083-10.816
	c4.71-14.166,9.449-28.323,14.219-42.469c2.149-6.374,4.698-8.079,10.942-5.898c9.725,3.397,19.676,6.615,28.671,11.493
	c7.995,4.336,11.317,15.164,5.207,22.452C728.508,882.362,723.949,883.867,720.714,885.839z M692.913,881.444
	c-1.738,4.744-3.077,8.34-4.371,11.952c-0.72,2.009-0.597,3.48,1.98,4.148c4.073,1.055,8.037,2.523,12.093,3.65
	c3.331,0.925,7.101-0.878,8.436-3.802c1.713-3.75,1.192-7.307-2.299-9.14C703.783,885.644,698.429,883.769,692.913,881.444z
	 M695.889,871.975c4.449,1.412,8.613,2.897,12.869,4.041c5.082,1.365,7.721,0.091,9.274-4.048c1.445-3.854,0.029-7.176-4.49-9.264
	c-3.584-1.656-7.379-2.887-11.157-4.06c-0.686-0.213-2.287,0.559-2.535,1.223C698.431,863.662,697.295,867.564,695.889,871.975z"/>
<path class="st0" d="M639.774,851.396c5.794-9.921,2.971-16.732-7.919-19.429c-2.521-0.624-5.114-1.154-7.697-1.287
	c-5.214-0.267-8.39-2.147-8.529-5.451c-0.171-4.071,3.095-7.354,8.474-6.852c10.81,1.009,21.077,3.963,28.928,12.196
	c5.566,5.837,6.466,12.864,3.921,20.156c-2.989,8.566-6.49,16.957-9.913,25.365c-1.352,3.321-2.484,6.155,1.57,8.664
	c1.007,0.623,1.271,3.501,0.834,5.047c-0.311,1.1-2.305,2.276-3.662,2.433c-5.828,0.675-10.315-2.209-13.063-6.93
	c-1.494-2.566-3.075-2.942-5.377-2.713c-7.755,0.773-14.679-1.399-21.401-5.197c-8.65-4.887-12.361-14.203-8.872-23.661
	c3.203-8.685,11.55-13.085,21.121-10.937c3.75,0.841,7.518,1.815,11.076,3.234C632.818,847.452,636.121,849.5,639.774,851.396z
	 M626.228,873.113c4.069,0.882,5.491-1.764,7.456-5.667c0.552-1.096,1.305-2.268,1.347-3.422c0.044-1.198-0.331-3.116-1.131-3.523
	c-4.278-2.175-8.647-4.262-13.177-5.82c-4.085-1.405-6.904,0.278-8.861,4.395c-1.893,3.983-1.389,7.173,2.472,9.311
	C618.036,870.437,622.243,871.574,626.228,873.113z"/>
<path class="st0" d="M842.626,885.079c11.627,0.464,22.145,3.301,29.157,13.634c4.128,6.083,2.634,12.692,1.635,19.179
	c-0.773,5.021-1.752,10.029-2.998,14.953c-2.078,8.209-7.079,13.801-15.451,16.037c-12.009,3.207-23.083,0.614-32.805-6.556
	c-7.302-5.384-9.818-13.166-7.746-22.251c1.38-6.05,2.469-12.166,3.779-18.233c2.084-9.654,10.737-16.635,20.672-16.761
	C840.121,885.066,841.374,885.079,842.626,885.079z M844.349,937.775c6.063,0.027,9.487-2.852,10.682-8.83
	c1.073-5.363,2.209-10.715,3.4-16.053c1.89-8.477-1.639-13.724-10.222-15.257c-11.136-1.988-14.173,2.819-15.361,10.7
	c-0.665,4.414-1.984,8.726-2.742,13.129c-0.433,2.517-0.681,5.165-0.4,7.685C830.309,934.556,836.8,937.165,844.349,937.775z"/>
<path class="st0" d="M1395.674,954.882c-11.171,0.511-20.634-6.118-22.842-15.667c-1.816-7.853-3.495-15.812-4.251-23.817
	c-1.012-10.717,4.021-17.641,16.366-22.594c8.677-3.481,17.821-4.689,26.922-0.971c6.933,2.833,11.566,7.695,12.815,15.281
	c1.312,7.967,2.87,15.919,3.64,23.944c0.851,8.869-3.953,14.885-11.427,18.966C1410.526,953.501,1403.632,954.93,1395.674,954.882z
	 M1398.768,902.162c-0.752,0-1.511-0.069-2.254,0.011c-6.763,0.724-13.708,4.81-12.474,12.335c1.124,6.853,2.14,13.752,3.861,20.462
	c0.633,2.469,2.688,5.343,4.896,6.49c5.869,3.049,11.672,1.154,16.813-2.331c3.356-2.276,4.465-5.576,3.474-9.801
	c-1.36-5.8-2.236-11.717-3.228-17.599C1408.698,904.866,1405.636,902.173,1398.768,902.162z"/>
<path class="st0" d="M1224.276,975.445c-7.523,0.009-14.369-1.698-20.054-6.872c-3.704-3.371-5.391-7.809-5.849-12.599
	c-0.723-7.568-1.452-15.171-1.471-22.761c-0.023-9.105,4.688-15.662,12.993-19.202c9.599-4.092,19.512-5.007,29.45-1.056
	c8.933,3.552,11.875,12.324,11.275,20.07c-0.64,8.262-6.716,14.28-15.605,15.69c-5.762,0.914-11.631,1.265-17.468,1.548
	c-2.75,0.133-3.804,1.047-3.719,3.803c0.16,5.218,4.013,8.924,9.759,9.318c5.63,0.386,10.886-0.763,15.973-3.164
	c1.627-0.768,3.522-1.149,5.33-1.308c3.106-0.274,5.421,1.255,6.314,4.199c0.967,3.189-1.014,5.526-3.564,6.663
	c-4.172,1.859-8.55,3.382-12.98,4.494C1231.31,975.108,1227.744,975.085,1224.276,975.445z M1221.614,939.283
	c0-0.006,0-0.012,0-0.018c1.754,0,3.515,0.105,5.259-0.02c4.94-0.355,8.096-3.431,8.298-7.962c0.226-5.084-2.208-8.296-7.522-8.741
	c-3.235-0.271-6.721,0.097-9.816,1.065c-4.655,1.456-6.274,6.442-4.646,13.359c0.973,4.135,4.574,1.632,6.929,2.298
	C1220.581,939.396,1221.113,939.283,1221.614,939.283z"/>
<path class="st0" d="M1058.082,936.525c3.002,1.109,4.95,0.255,6.702-1.756c5.653-6.489,11.27-13.017,17.131-19.315
	c3.074-3.302,7.617-3.283,10.751-0.5c2.792,2.479,3.081,4.936,0.632,7.792c-5.358,6.249-10.755,12.467-16.269,18.577
	c-1.829,2.027-2.534,3.426-0.479,5.997c4.89,6.117,9.32,12.602,13.973,18.911c2.434,3.3,2.827,6.868,0.87,8.839
	c-2.16,2.176-8.452,2.479-10.768-0.066c-3.506-3.851-6.542-8.137-9.698-12.298c-2.859-3.77-5.519-7.694-8.48-11.38
	c-0.724-0.901-2.404-1.712-3.409-1.492c-0.781,0.172-1.611,1.981-1.699,3.118c-0.416,5.351-0.553,10.722-0.849,16.083
	c-0.205,3.714-3.147,6.076-7.509,6.137c-4.609,0.064-8.032-2.244-7.941-6.046c0.249-10.479,0.918-20.947,1.274-31.424
	c0.2-5.887,0.024-11.787,0.169-17.677c0.15-6.102,3.159-8.95,8.801-8.585c4.181,0.271,6.982,3.791,6.843,8.033
	C1057.943,925.096,1058.082,930.73,1058.082,936.525z"/>
<path class="st0" d="M336.456,591.268c-7.896-0.121-15.863-3.688-21.085-11.942c-6.111-9.658-4.922-19.013,4.671-27.53
	c4.464-3.963,9.489-7.178,15.563-7.412c12.997-0.501,25.244,2.594,28.342,19.033c1.649,8.751,0.495,16.684-6.658,22.368
	C351.896,590.071,345.094,591.253,336.456,591.268z"/>
<path class="st0" d="M1928.388,546.13c14.356-2.146,28.167,14.888,28.885,25.579c0.433,6.455-2.794,12.552-7.184,17.539
	c-8.494,9.65-17.636,8.35-28.018,3.04c-3.488-1.784-6.621-4.45-9.543-7.121c-8.986-8.217-7.733-19.285-1.92-28.568
	c1.63-2.603,3.671-5.43,6.244-6.845C1920.278,547.869,1924.56,547.284,1928.388,546.13z"/>
<path class="st0" d="M1591.088,839.179c2.511,0.171,4.582,2.175,5.84,5.114c1.714,4.005,3.318,8.057,4.956,12.094
	c0.903,2.226,1.803,3.279,4.695,2.042c6.159-2.634,12.439-5.314,18.939-6.755c14.773-3.276,22.708,6.802,23.297,18.787
	c0.277,5.637-2.866,10.714-7.642,13.947c-4.091,2.768-8.591,5.022-13.118,7.036c-5.908,2.629-11.978,4.914-18.06,7.122
	c-4.055,1.472-7.579-0.089-9.219-3.997c-6.166-14.691-12.32-29.388-18.291-44.159C1580.104,844.522,1583.998,839.1,1591.088,839.179
	z M1634.28,871.935c-0.28-4.833-5.426-9.253-9.964-7.814c-4.944,1.567-9.743,3.623-14.511,5.684
	c-0.712,0.308-1.495,2.018-1.244,2.724c1.244,3.498,2.7,6.939,4.377,10.25c0.383,0.757,2.184,1.545,2.91,1.257
	c4.606-1.829,9.287-3.626,13.536-6.125C1631.467,876.686,1634.5,873.321,1634.28,871.935z"/>
<path class="st0" d="M997.684,907.665c7.778,0.305,15.35,1.277,22.107,5.699c2.801,1.833,3.305,4.277,2.554,7.119
	c-0.788,2.979-3.424,3.609-5.948,3.387c-2.165-0.191-4.233-1.303-6.386-1.84c-3.704-0.923-7.414-2.243-11.17-2.437
	c-5.625-0.29-9.954,3.455-10.683,8.948c-0.818,6.164-1.186,12.391-1.648,18.599c-0.795,10.681,5.512,12.7,12.828,13.083
	c3.502,0.183,7.072-1.464,10.626-1.533c2.364-0.046,5.213,0.642,7.027,2.054c2.89,2.248,2.508,6.095-0.823,7.675
	c-3.726,1.768-7.904,3.406-11.929,3.518c-5.634,0.156-11.49-0.487-16.927-1.974c-11.047-3.023-16.567-10.723-16.312-22.062
	c0.157-6.959,0.659-13.948,1.597-20.843c1.574-11.563,10.75-19.26,22.455-19.389C995.93,907.656,996.807,907.665,997.684,907.665z"
	/>
<path class="st0" d="M1341.861,900.133c5.276,0.023,7.831,1.923,8.235,5.412c0.383,3.313-1.353,5.525-5.743,6.518
	c-3.254,0.736-6.618,1.048-9.951,1.349c-2.192,0.198-2.913,0.724-2.564,3.258c1.733,12.566,3.179,25.172,4.688,37.768
	c0.148,1.237,0.058,2.506,0.043,3.76c-0.063,5.019-2.702,7.555-8.065,7.768c-3.78,0.15-7.031-3.162-7.496-7.382
	c-1.471-13.355-3.022-26.701-4.531-40.051c-0.218-1.93-0.871-2.876-3.167-2.482c-3.549,0.608-7.167,1.007-10.765,1.088
	c-3.885,0.088-6.796-2.609-6.972-5.923c-0.132-2.476,2.496-5.332,5.81-5.804c9.479-1.348,18.979-2.538,28.474-3.774
	C1334.171,901.076,1338.491,900.554,1341.861,900.133z"/>
<path class="st0" d="M1558.756,850.46c4.068-0.103,6.491,1.406,7.223,4.552c0.733,3.152-0.736,5.709-3.802,6.906
	c-3.234,1.263-6.546,2.368-9.897,3.275c-2.501,0.677-3.078,1.753-2.288,4.286c3.959,12.703,7.749,25.46,11.582,38.202
	c0.869,2.89,1.034,5.665-1.687,7.787c-2.814,2.194-5.984,3.643-9.294,1.645c-1.736-1.048-3.457-2.999-4.064-4.9
	c-4.052-12.677-7.951-25.409-11.541-38.223c-0.866-3.091-2.037-3.018-4.48-2.273c-3.433,1.047-6.946,1.897-10.478,2.538
	c-3.513,0.637-6.017-1.186-6.792-4.457c-0.828-3.495,1.594-5.705,4.492-6.904c3.32-1.373,6.84-2.271,10.29-3.318
	c9.405-2.855,18.817-5.686,28.232-8.508C1557.313,850.749,1558.407,850.543,1558.756,850.46z"/>
<path class="st0" d="M760.776,865.495c2.65,0.621,6.541,1.423,10.37,2.451c9.116,2.448,18.207,4.988,27.297,7.533
	c1.31,0.367,2.591,0.888,3.821,1.474c3.023,1.441,4.465,4.45,3.562,7.25c-0.982,3.046-4.457,4.919-7.818,4.074
	c-3.246-0.816-6.454-1.78-9.678-2.683c-2.011-0.563-3.09-0.169-3.712,2.201c-3.347,12.739-6.936,25.415-10.388,38.127
	c-0.741,2.726-1.515,5.537-4.668,6.135c-3.504,0.665-7.418,0.803-9.396-2.771c-1.107-2.001-1.438-5.011-0.881-7.259
	c3.134-12.655,6.508-25.255,10.118-37.783c0.928-3.222-0.414-4.022-2.892-4.668c-3.001-0.783-6.075-1.4-8.952-2.516
	c-2.778-1.077-5.022-3.101-4.735-6.431C753.112,867.291,755.632,865.545,760.776,865.495z"/>
<path class="st0" d="M1673.859,867.839c-0.083,4.754-2.613,7.238-7.307,8.18c-3.135,0.629-6.636-1.108-7.881-4.134
	c-4.684-11.386-9.285-22.806-13.944-34.203c-1.65-4.037-3.477-8.004-5.037-12.075c-1.639-4.275,0.52-8.061,5.345-9.76
	c4.117-1.45,7.618,0.228,9.264,4.209c5.995,14.499,12.071,28.964,18.081,43.457C1673.086,865.215,1673.577,867.006,1673.859,867.839
	z"/>
</svg>
