<?xml version="1.0" encoding="utf-8"?>
<!-- Generator: Adobe Illustrator 22.1.0, SVG Export Plug-In . SVG Version: 6.00 Build 0)  -->
<svg version="1.1" id="Layer_1" xmlns="http://www.w3.org/2000/svg" xmlns:xlink="http://www.w3.org/1999/xlink" x="0px" y="0px"
	 viewBox="0 0 3401.6 1700.8" style="enable-background:new 0 0 3401.6 1700.8;" xml:space="preserve">
<style type="text/css">
	.st0{opacity:0.76;}
	.st1{opacity:0.9;fill:none;stroke:#231F20;stroke-miterlimit:10;enable-background:new    ;}
	.st2{display:none;}
	.st3{display:inline;opacity:0.9;fill:none;stroke:#231F20;stroke-miterlimit:10;enable-background:new    ;}
</style>
<g id="Layer_1_1_" class="st0">
	<path class="st1" d="M1986.8,825c0-0.3-0.3-0.3-0.4-0.1c-5.2,6.9-10.2,14.5-15,21.7c-1.5,2.2-3,4.5-4.5,6.7
		c-3.1,4.6-6.1,9.3-9.1,13.9c-6.1,9.4-12.4,19.2-19.2,28.5c-7,9.7-16.6,22.2-27.6,33.3c-13,13-30.6,20.5-50.3,21.6
		c-20.5,1-37.3-10.9-44.9-32.1c-7.3-20.2-6.4-40.3-4.8-57.4c2.2-21.9,8.2-43.8,18-65.4c8.7-19.2,21.4-35.4,37.8-47.8l2.7-2.1
		c7.6-5.8,15.6-12,24-17.2c14.2-8.8,29.1-13,44.2-12.1c18.6,1,32.8,6.4,43.3,16.6c1.6,1.6,3.1,3.6,4.8,6.1c4.5,7,4.3,14.5-0.6,20.8
		c-4,5.2-10.2,6.9-18,4.8c-4.5-1.2-10.5-3-16.2-5.8c-10-5.1-17.4-1.8-27.3,6c-17.8,13.9-29.4,32.4-41.4,55.6l-1.9,3.9
		c-5.1,9.9-10.3,20.1-13.9,30.4c-3.4,10.2-3.6,21.9-0.3,35.7c0.4,2.1,1.2,3,1.3,3.1c0.1,0,1.2-0.1,3.1-1.6c3.1-2.5,6.1-5.5,9.1-8.7
		c1.3-1.3,2.7-2.8,4-4.2c3-3,5.8-5.8,8.8-8.7c6.6-6.4,13.5-13.2,19.8-20.1c7.5-8.4,15-17.2,22-25.8c3.4-4.2,7-8.4,10.5-12.6
		c1.8-2.1,3.4-4,5.2-6.1c6.1-7.3,12.6-14.8,19-22c10.5-11.7,19.8-21.9,28.6-31c6.7-7,17.5-10.8,28.9-10.3
		c10.9,0.4,20.5,4.9,26.2,12.1c7.3,9.1,7.5,19.5,6.4,29.4c-0.4,4.3-1,8.8-1.6,13c-1,7.3-1.9,14.8-2.2,22.2
		c-0.4,9.6,0.1,19.6,0.6,29.2c0.1,2.7,0.3,5.4,0.4,8.1c0.1,2.2,0.6,3.9,1.5,4.5c0.9,0.7,2.7,0.7,4.9,0.1c4.2-1,8.4-2.1,12.4-3.3
		c9.7-2.7,19.8-5.4,30-6.6c14.1-1.5,14.1-1.5,16.3-16.2l0.4-3c4.3-28,16.3-52.6,28.5-74.8c12-21.7,33.4-32.4,48.4-38.5
		c16.2-6.6,32.2-8.2,47.6-4.6c10.6,2.4,20.8,8.1,31.9,18c6.3,5.5,11.7,11.4,16.3,17.5c9.7,13,10.5,28.5,2.2,46
		c-7,14.8-17.1,28.2-29.8,39.7c-13.5,12.3-27.9,25.2-43.1,37.2c-5.1,4-11.2,6.1-17.2,8.2c-1.5,0.4-2.8,1-4.2,1.5
		c-13.5,5.1-15.3,7.8-15.3,21.9c0,11.1,0.9,24.1,7,36.1c5.2,10.3,11.2,12.7,23.5,9.6c13.2-3.4,23.7-11.8,35.2-21.6
		c2.5-2.2,5.2-4.6,7.6-6.9c4.5-4,9.1-8.4,14.1-12.1c3.7-2.8,9.4-4.5,15-4.5c4.8,0.1,8.7,1.9,10.9,5.4c2.2,3.4,2.5,7.8,0.6,12.4
		c-2.4,5.8-5.4,12.4-10,17.2c-15.4,15.9-32.4,32.4-51.4,50.5c-6,5.7-14.1,8.5-24.7,8.8c-15.1,0.3-26.5-1.3-37-5.7
		c-13.2-5.4-24.4-14.5-33.1-27.3c-11.4-16.6-18.3-31.3-21.9-46.3c-1.2-4.9-1.8-9.9-2.4-14.7c-0.4-3.9-1-7.6-1.8-11.4
		c-1-4.8-2.2-7.8-3.9-8.5c-1.5-0.9-4.3-0.4-8.4,0.9c-19.3,6.7-34.6,15.6-46.6,26.8c-6.4,6-9.7,13.2-10.2,22.2
		c-0.7,19-4.8,37.6-8.5,55.6l-1.3,6.3c-1.3,6.1-2.1,12.6-2.8,18.9c-0.9,7.5-1.8,15.1-3.6,22.6c-3,12.7-7.3,25.3-11.5,37.5
		c-0.9,2.7-1.8,5.4-2.7,8.1c-0.6,1.6-1,3.3-1.6,4.9c-3,9.1-6.1,18.7-10.5,27.6l-1.6,3.3c-12.1,24.6-24.6,49.9-42,72.1
		c-17.1,21.9-38.7,33.1-64.3,33.6c-0.6,0.1-0.9,0.1-1.2,0.1c-13.8,0-28.5-6.6-39.4-17.7c-10.9-10.9-16.9-25.2-16.5-39
		c0-1.8,0-3.6-0.1-5.5c0-1.5-0.1-3.1-0.1-4.6v-0.4c0.9-7.9,1.5-16,2.2-23.8c1-12.4,1.9-25.3,4.2-37.9c1.6-9.7,5.8-19,9.9-28l0.6-1.5
		c12.1-27,28.8-53.1,52.1-82.2c4.9-6,10.3-11.7,15.4-17.2c2.7-3,5.7-6,8.4-9c2.2-2.4,4.5-4.9,6.6-7.5c3.1-3.6,6.4-7.5,9.9-11.1
		c5.4-5.5,10.9-11.1,16.3-16.5c1.9-1.9,3.9-3.9,6-5.8c6.1-6.1,9.3-13.5,9.9-23.2c0.4-7.9,1.3-15.9,2.1-23.7
		c0.7-7.8,1.5-15.9,2.1-23.8C1988.1,840.8,1987.8,833.5,1986.8,825z M1851,1159.5c0,1.3,0,2.7,0.1,4c0.1,1.9,0.1,4,0.1,6.1
		c-0.3,11.4,4.8,23.2,13.9,32.4c9.4,9.6,22,15.3,33.6,15c22.8-0.4,42.1-10.5,57.4-30.1c16.8-21.4,29.1-46.5,40.9-70.5l1.6-3.3
		c4-8.2,7.2-17.5,10-26.4c0.6-1.6,1-3.3,1.6-4.9c0.9-2.7,1.8-5.4,2.8-8.2c4-12,8.2-24.3,11.2-36.7c1.6-7,2.5-14.4,3.4-21.6
		c0.7-6.4,1.6-13.2,3-19.6l1.3-6.3c3.7-17.7,7.6-35.8,8.4-54.1c0.4-11.2,4.8-20.8,13-28.5c13-12.1,29.4-21.4,49.7-28.6
		c4.6-1.6,10.8-3.1,15.9-0.3c5.2,3,7.2,9.4,8.2,14.7c0.7,4,1.3,8.1,1.8,12c0.6,4.8,1.2,9.3,2.2,13.8c3.3,13.9,9.9,27.7,20.7,43.3
		c7.6,11.2,17.5,19.3,29.1,24c9.3,3.7,19.5,5.2,33.4,4.9c8.4-0.1,14.4-2.2,18.7-6.3c19-18,35.7-34.5,51.1-50.2
		c3.6-3.7,6.1-9.3,8.2-14.4c0.7-1.8,0.7-3.3,0.1-4.2c-0.6-0.7-1.8-1.2-3.6-1.3c-3.4,0-7.2,1-9.4,2.7c-4.6,3.4-8.8,7.3-13.3,11.5
		c-2.5,2.4-5.2,4.8-7.9,7.2c-11.8,10.2-23.7,19.6-38.8,23.5c-10.8,2.7-24.4,3.6-33.7-14.2c-7-13.6-8.1-27.9-8.1-40.2
		c-0.1-18,4-24,21.1-30.4c1.5-0.6,3-1,4.3-1.6c5.5-1.9,10.8-3.7,14.7-6.9c15-11.8,29.2-24.6,42.7-36.7c12-10.8,21.3-23.2,27.7-37
		c6.9-14.4,6.4-26.5-1.3-36.9c-4.2-5.5-9.3-11.1-15-16.2c-9.9-8.8-18.7-13.8-27.9-15.9c-13.5-3-27.7-1.6-42.3,4.3
		c-21.9,9-36,19.9-43.9,34.6c-11.8,21.6-23.4,45.1-27.4,71.8l-0.4,3c-2.5,16.9-4,21.6-24.3,23.7c-9.6,1-19.2,3.7-28.6,6.3
		c-4.2,1.2-8.4,2.2-12.7,3.3c-6.3,1.5-10.2-0.1-12.4-1.8c-2.2-1.6-4.8-4.9-5.1-11.4c-0.1-2.7-0.3-5.4-0.4-8.1
		c-0.4-9.7-1-19.9-0.6-30c0.3-7.8,1.3-15.6,2.4-23.1c0.6-4.2,1.2-8.5,1.6-12.7c0.9-9.1,0.6-16.5-4.5-22.8
		c-4.2-5.2-11.4-8.4-19.6-8.7c-8.7-0.4-17.2,2.5-22,7.6c-8.7,9.1-18,19.2-28.5,30.9c-6.4,7.2-12.7,14.7-18.9,21.9
		c-1.8,2.1-3.4,4-5.2,6.1c-3.6,4.2-7,8.4-10.5,12.6c-7.2,8.7-14.7,17.5-22.3,26.1c-6.4,7.2-13.5,13.9-20.2,20.5
		c-3,2.8-5.8,5.7-8.8,8.7c-1.3,1.3-2.5,2.7-3.9,4c-3.1,3.3-6.3,6.7-10,9.6c-5.2,4-9.1,3.9-11.5,3c-2.4-0.9-5.7-3.1-7.2-9.4
		c-3.7-15.4-3.4-28.8,0.6-40.6c3.7-11.1,9.1-21.6,14.4-31.6l1.9-3.9c12.4-24.3,24.6-43.6,43.7-58.6c10.3-8.1,21.9-14.5,36.9-6.9
		c3.7,1.9,8.2,3.4,14.4,5.1c5.4,1.3,7.3,0,8.7-1.6c2.5-3.3,2.5-6.6,0.1-10.5c-1.2-1.9-2.4-3.3-3.4-4.3c-9.1-8.7-21.1-13.2-37.6-14.1
		c-13.2-0.7-26.2,2.8-39,10.8c-8.1,4.9-15.7,10.9-23.4,16.8l-2.7,2.1c-15.1,11.7-27,26.5-35.1,44.4c-9.4,20.8-15,41.2-17.2,62.5
		c-1.6,16-2.4,34.9,4.3,53.4c6.3,17.5,19.5,27.1,36.1,26.2c17.8-0.9,32.7-7.3,44.3-19c10.6-10.6,19.9-22.8,26.7-32.2
		c6.6-9.1,12.9-18.7,19-28c3-4.6,6.1-9.4,9.1-14.1c1.5-2.2,3-4.5,4.5-6.7c4.9-7.5,10-15.3,15.6-22.5c2.7-3.4,6.3-5.1,9.7-4
		c3.4,0.9,6,4.2,6.4,8.7c1.2,9.4,1.5,17.1,1,24.3c-0.4,8.1-1.3,16.2-2.1,24.1c-0.7,7.6-1.5,15.6-1.9,23.4
		c-0.7,11.8-4.8,21.4-12.6,29.1c-1.9,1.9-3.9,3.9-6,5.8c-5.4,5.2-10.8,10.8-16,16.2c-3.3,3.4-6.4,7.2-9.6,10.8
		c-2.2,2.5-4.3,5.1-6.7,7.6c-2.8,3.1-5.7,6.1-8.5,9.1c-5.1,5.4-10.3,10.9-15,16.8c-22.9,28.5-39.1,54-50.9,80.2l-0.6,1.5
		c-3.7,8.4-7.8,17.1-9.1,25.8c-2.1,12.3-3,24.9-4,37.2C1852.5,1143.5,1851.9,1151.6,1851,1159.5z M1902,1181.1c-2.1,0-4.2-0.4-6-1.2
		c-5.8-2.4-9.9-8.2-12.1-17.2c-0.9-3.7-1.2-7.5-1.3-10.9c-0.1-1.3-0.1-2.5-0.3-3.7v-0.3v-0.3c1.5-27,8.7-51.4,22.2-75.1
		c13-23.1,30-42.6,43.1-57l1.5-1.6c5.4-5.8,11.1-12,16.9-17.7c1.6-1.5,6.6-6.3,12.3-3.6l0.4,0.1l0.3,0.3c4.6,3.3,4.3,8.4,4.2,11.1
		v0.6c-0.9,18.4-5.4,37.6-13.9,60.4c-3.7,10-6.9,20.5-9.7,30.7c-1.8,6.1-3.6,12.4-5.5,18.6c-5.1,16-12.1,34.8-25.5,50.8
		c-3.1,3.7-7.3,8.5-12.4,11.7C1910.8,1179.6,1906.2,1181.1,1902,1181.1z M1891.2,1147.5c0.1,1.2,0.1,2.4,0.3,3.7
		c0.1,3.1,0.4,6.4,1.2,9.4c1,4.2,3,9.4,6.7,10.9c3.6,1.5,8.2-0.6,11.5-2.7c4-2.4,7.6-6.4,10.2-9.7c12.3-14.8,19-32.5,23.8-47.8
		c1.9-6,3.7-12.3,5.5-18.3c3-10.3,6.1-21.1,10-31.5c8.2-21.9,12.6-40.2,13.3-57.6v-0.6c0-1.2,0-1.9,0-2.5c-0.4,0.3-1,0.7-1.9,1.6
		c-5.7,5.5-11.2,11.5-16.5,17.2l-1.5,1.6c-12.9,14.1-29.4,33-42,55.3C1899.4,1099.1,1892.5,1122.2,1891.2,1147.5z M2185.9,845.6
		l-1-4.5c0-0.7-0.1-1.5-0.3-2.4c-0.4-2.4-0.9-5.1,0-7.9c2.5-7.8,5.2-14.4,8.4-20.2c7.5-14.4,17.2-27.6,28.9-39.4
		c2.5-2.5,5.1-4.6,7.8-6.3c6.4-4,11.4-3.3,14.4-2.1c3,1.2,6.9,4.3,8.7,11.7c0.3,1.5,0.6,2.8,0.9,4l0.4,1.8v0.6
		c-0.6,10.3-4.6,19.5-12,27.3c-13.9,14.8-28,26.2-43.3,34.8c-2.2,1.2-4.5,1.3-6.4,1.9C2191.4,845,2186.8,847,2185.9,845.6z
		 M2239.2,770.8c-1.3,0-3,0.6-4.8,1.6c-2.1,1.3-4.2,3-6.1,4.9c-11.1,11.1-20.4,23.7-27.3,37.2c-2.8,5.4-5.4,11.7-7.8,19
		c-0.1,0.7-0.3,1.9,0,2.1c0.3,0.3,0.9-0.1,1.2-0.3c14.4-8.2,27.9-19,41.1-33.1c5.8-6.1,8.8-13,9.6-21.1l-0.1-0.6
		c-0.3-1-0.6-2.5-0.9-3.9c-0.7-3-1.9-4.9-3.4-5.5C2240.1,771,2239.7,770.8,2239.2,770.8z"/>
	<path class="st1" d="M712.1,1097.1c-3.9,0-8.1-1-12.1-3.1c-20.4-10.6-34-27.9-40.5-51.6c-0.4-1.6-0.4-3.3-0.4-4.6
		c0-0.4,0-0.9,0-1.3c-0.3-7.8-0.6-15.4-0.9-23.2c-0.6-17.4-1.3-35.4-2.7-52.9c-0.9-12.4-2.5-25.2-4-37.3c-1.2-9.7-2.4-19.8-3.4-29.8
		c-0.4-5.2-0.1-10.6,0.1-15.7c0.1-3.3,0.4-6.3,0.4-9.4c0-11.8-0.1-23.8-0.3-35.4c0-3.7-0.1-7.5-0.1-11.2c0-0.9-0.1-1.6-0.1-2.5
		c-0.1-1.2-0.1-2.4-0.1-3.7c0.1-8.5,0.1-17.1,0.3-25.6c0.1-25.3,0.4-51.6,1-77.2c0.1-6.4,1.2-12.7,2.1-18.9c0.4-3,1-6.3,1.3-9.3
		c0.1-1.3,0.3-2.5,0.4-3.9c0.6-4.8,1.2-9.4,1.3-13.9c0.3-17.4,3.1-34.3,6.3-50.1c1.3-7,1.5-14.4,1.6-22.6c0.1-8.7,2.2-16.2,6.6-22.5
		c4.2-6.1,10.5-9.6,18.9-9.9c1.9-0.1,3.4-0.3,5.2-0.4c2.1-0.3,4.3-0.4,7.2-0.4h1c0.9,0,1.9,0,2.2,0h0.3c7,0.6,12.9,1,19.8,2.2
		c19.9,3.1,25.6,13.3,28.6,30c0.7,3.9,0.9,7.8,1.2,11.5l0.1,1.9c0.9,15.4-2.1,29.8-4.8,40.6c-2.4,9.3-3.6,19.2-4.6,28.8
		c-0.6,4.5-1,9.1-1.8,13.8c-0.7,5.2-1.6,10.5-2.4,15.7c-1.2,7.6-2.4,15.7-3.4,23.5c-0.9,6-1.5,12.1-2.2,18c-0.3,2.7-0.6,5.4-0.9,7.9
		l-0.7,5.7c-0.6,5.2-1.2,10.5-1.8,15.9c-0.1,2.1-0.3,4.5,0,6.9c0.1,1.3,0.3,2.8,0.6,4.3c0.4,3,1,6,0.6,9.3c-0.4,3.7,0.3,6.6,1.9,8.2
		c2.4,2.2,7,3.1,13.5,2.2c5.7-0.7,10.2-4,15.7-11.4c2.8-3.9,5.7-7.8,8.4-11.7c4.8-6.6,9.6-13.5,14.7-20.1
		c9-11.5,18.3-23.1,27.3-34.3c10.3-13,21.1-26.5,31.5-39.9c13.3-17.2,23.7-34,31.5-51.6c1.8-4.2,4.2-8.1,6.4-11.8l1-1.8
		c4.2-7.2,11.8-10.8,20.2-9.7c7.9,1,16.3,3,24.7,5.8c9.9,3.4,15.3,14.8,12.6,26.7c-2.2,10-7.6,18-12.7,25.8
		c-9.9,14.7-19.5,30.7-28.6,47.5c-7.6,13.9-16.2,24.6-26.8,33.9c-9.6,8.2-18,18.3-26.5,28.6c-7.3,9.1-14.7,18.4-21.9,27.6
		c-9.1,11.7-18.6,24-28.5,35.5c-9.7,11.7-11.1,22.5-4.2,35.1c0.6,1,1,2.1,1.5,3.1c0.6,1.2,1,2.2,1.6,3.3c3.6,6.1,7.3,12.1,10.9,18.3
		c6.7,11.4,13.8,23.1,20.5,34.8c7.6,13.2,18.9,22,34.5,27c11.7,3.7,23.8,7,35.5,10.2l7.5,2.1c6,1.6,14.2,3.9,15.9,13.3
		c1.6,9.3-2.8,18-12,23.2c-9.3,5.4-20.4,7.3-32.8,5.5c-24.6-3.3-48.7-12.4-76-28.8c-19.9-11.8-33.7-30.1-46-46.3
		c-5.7-7.5-10.8-13.9-15.9-19.6c-3.4,12.9-4,24-1.9,34.8c1.2,5.7,1.8,11.5,2.2,17.2c0.1,2.1,0.4,4.3,0.6,6.4c0.3,3,0.7,6,1.2,8.8
		c1,7.2,1.9,14.7,1.9,22.2c0,16.3-0.9,30.7-2.8,44.2c-1.2,8.7-4.9,17.1-8.7,24.9c-2.5,5.2-6.6,8.8-11.7,10.5
		C716.4,1096.8,714.3,1097.1,712.1,1097.1z M700.1,568.7L700.1,568.7c-2.4,0-4.2,0.3-6.3,0.4c-1.8,0.1-3.6,0.4-5.8,0.4
		c-5.4,0.1-9.1,2.1-11.7,5.8c-3.3,4.9-4.9,10.5-5.1,17.7c-0.1,8.7-0.3,16.5-1.8,24.3c-3,15.4-5.8,31.9-6.1,48.6
		c0,5.1-0.7,10.2-1.3,15c-0.1,1.3-0.3,2.5-0.4,3.9c-0.4,3.3-0.9,6.4-1.5,9.6c-1,6.1-1.9,11.8-2.1,17.5c-0.6,25.6-0.7,51.9-1,77.2
		c-0.1,8.5-0.1,17.1-0.3,25.6c0,0.9,0,1.9,0.1,3c0,1,0.1,2.1,0.1,3.1c0,3.7,0.1,7.5,0.1,11.2c0.1,11.7,0.3,23.7,0.3,35.5
		c0,3.4-0.1,6.7-0.4,10c-0.3,4.9-0.6,9.7-0.1,14.2c0.9,9.9,2.1,19.8,3.3,29.5c1.5,12.3,3.1,25.2,4,37.8c1.3,17.8,2.1,35.8,2.7,53.4
		c0.3,7.6,0.6,15.4,0.9,23.1c0,0.6,0,1.2,0,1.9c0,0.9,0,1.6,0.1,2.1c5.8,21.1,18,36.6,36,46c4,2.1,8.2,2.7,11.7,1.5
		c2.8-0.9,4.9-3,6.4-6c3.4-7.2,6.9-14.7,7.9-22c1.8-13,2.7-27.1,2.7-43c0-6.9-0.9-13.8-1.9-21c-0.4-3-0.9-6-1.2-9.1
		c-0.3-2.2-0.4-4.3-0.6-6.6c-0.6-5.7-1-10.9-2.1-16.3c-2.5-12.1-1.8-24.9,2.1-39.1c1.5-5.2,4.2-6.9,6.3-7.3c2.1-0.4,5.4-0.1,9,3.9
		c5.2,6,10.6,12.6,16.3,20.4c11.7,15.4,24.9,33,43.3,43.9c26.2,15.6,49.3,24.3,72.5,27.6c10.6,1.5,19.5,0,27.1-4.5
		c5.8-3.4,8.5-8.4,7.6-13.9c-0.6-3.6-3.3-4.6-9.4-6.3l-7.5-2.1c-11.8-3.1-24-6.4-35.8-10.3c-17.5-5.5-30.9-16-39.6-31
		c-6.7-11.5-13.8-23.2-20.5-34.6c-3.7-6.1-7.3-12.3-10.9-18.3c-0.7-1.3-1.5-2.7-2.1-4c-0.4-0.9-0.9-1.8-1.3-2.7
		c-8.7-15.9-6.9-30.7,5.2-45.3c9.7-11.5,19-23.5,28.2-35.2c7.2-9.1,14.5-18.6,22-27.7c8.7-10.8,17.5-21.1,27.6-29.8
		c9.9-8.5,17.7-18.4,24.9-31.3c9.3-17.1,19-33.3,29.1-48.3c4.9-7.3,9.6-14.4,11.5-22.8c1.6-7.3-1.2-14.2-6.7-16.2
		c-7.8-2.7-15.6-4.5-22.9-5.5c-2.8-0.3-8.1-0.1-11.4,5.4l-1,1.8c-2.2,3.7-4.3,7.2-6,10.9c-8.1,18.1-18.9,35.7-32.7,53.4
		c-10.3,13.3-21.1,26.8-31.6,39.9c-9,11.2-18.1,22.8-27.1,34.3c-4.9,6.4-9.9,13.2-14.5,19.8c-2.7,3.9-5.5,7.9-8.5,11.8
		c-4.9,6.6-11.2,13.6-21.7,15c-9.3,1.2-16.5-0.4-20.8-4.8c-3.7-3.6-5.2-8.8-4.6-15.6c0.1-2.1-0.1-4.3-0.6-6.9
		c-0.3-1.6-0.6-3.3-0.7-5.1c-0.3-2.8-0.1-5.7,0-8.4c0.6-5.4,1.2-10.8,1.8-16l0.7-5.7c0.3-2.7,0.6-5.2,0.9-7.9
		c0.6-6,1.3-12.1,2.2-18.3c1-7.9,2.4-15.9,3.6-23.7c0.7-5.2,1.6-10.5,2.4-15.6c0.6-4.5,1.2-9,1.8-13.5c1.2-9.9,2.4-20.1,4.9-30
		c2.5-10.2,5.4-23.7,4.5-37.9l-0.1-1.9c-0.1-3.6-0.4-7-1-10.3c-3-15.7-7.5-20.5-21.3-22.8c-6.4-1-12-1.5-18.9-2.1
		c-0.3,0-1.2,0-1.8,0C700.8,568.7,700.5,568.7,700.1,568.7z"/>
	<path class="st1" d="M1699.7,562.5c-2.1,0-4.2-0.1-6.3-0.3c-11.8-1.3-23.5-4-34.6-7.9c-27.4-9.7-49.4-18.4-69.1-27
		c-27.3-11.8-50.9-31.9-70.4-59.4c-24.1-33.9-40.5-71.1-48.7-110.5c-1.3-6.3-1.9-12.9-2.4-18.1c-0.1-2.1-0.3-4-0.6-5.8v-0.3v-0.3
		c0.4-22.8,6.4-43,18.9-63.6c5.4-9,12.3-17.7,19.9-25.3c12.1-12.1,28.2-15.6,44.9-18.1c11.5-1.8,23.7-3.6,36-3.3
		c24.6,0.4,56.6,3,86.1,18.1c10.5,5.4,21,10,33.7,15.6c0.7,0.3,2.7,0.1,3.6-0.4c1.6-0.9,3.4-1.9,5.1-2.8
		c16.6-9.6,33.9-19.5,53.3-24.1c15.7-3.7,32.7-7.2,53.2-10.8c15.7-2.7,32.4-1.3,50.6,4.3c18.9,5.8,33.4,17.8,43.4,35.8
		c9.9,18,15.7,33.6,18.3,49c2.1,12.9,1.5,25.8-1.8,38.4c-0.6,2.5-1.3,4.9-1.9,7.5c-4,15.9-8.4,32.4-14.1,48.1
		c-7.6,21.3-22.6,37.6-37.8,52.2c-17.8,17.1-37.5,34.9-60.2,48.9c-5.8,3.6-11.7,7.2-17.7,10.8c-20.7,12.7-42,25.9-63.4,38.2
		C1724.4,558.6,1711.8,562.5,1699.7,562.5z M1476.6,332.5c0.1,1.8,0.3,3.7,0.6,5.8c0.4,5.2,0.9,11.2,2.2,17.1
		c8.1,38.2,24,74.4,47.2,107.2c18.9,26.5,40.6,45,66.8,56.4c19.5,8.5,41.2,16.9,68.5,26.7c10.3,3.7,21.6,6.3,32.7,7.5
		c12,1.3,24.7-1.9,39-10.2c21.3-12.3,42.6-25.5,63.2-38.1c5.8-3.6,11.7-7.2,17.7-10.9c22-13.5,41.2-30.9,58.7-47.7
		c14.2-13.8,28.5-29.2,35.5-48.7c5.5-15.3,9.7-31.6,13.8-47.4c0.6-2.5,1.3-4.9,1.9-7.5c3-11.4,3.4-23.1,1.6-34.6
		c-2.4-14.4-7.8-29.1-17.2-46c-8.8-16.2-21.4-26.4-38.2-31.6c-17.1-5.2-32.2-6.6-46.6-4c-20.4,3.6-37.2,7-52.7,10.8
		c-18.3,4.3-34.9,13.9-50.9,23.2c-1.6,1-3.4,1.9-5.1,3c-3.4,1.9-8.2,2.2-11.7,0.9c-12.9-5.5-23.7-10.3-34.3-15.7
		c-28-14.4-58.6-16.8-82.3-17.1c-11.4-0.1-23.2,1.5-34.3,3.1c-15.9,2.5-29.8,5.4-40,15.6c-7,7.2-13.5,15.3-18.6,23.7
		C1482.6,292.8,1477.1,311.5,1476.6,332.5z M1694.6,519.9c-2.1,0-4.2-0.1-6.3-0.3c-10.9-0.7-21.4-3.6-33.1-7
		c-27.3-7.8-50.2-18.9-70.3-33.6c-15.4-11.4-26.1-23.8-32.5-38.1c-2.7-6-5.5-10.8-10.8-14.4c-4.6-3.1-7.2-8.5-9.6-13.3
		c-0.3-0.7-0.7-1.5-1-2.1c-10.2-20.2-15.4-37.8-16.5-55.5c-1.5-23.7,2.7-41.8,13.2-56.8c15.1-21.7,38.7-32.5,64.3-29.2
		c13.8,1.6,28.3,3.9,42,9.9c7.2,3.1,14.4,6.7,21.1,10.3c2.5,1.3,5.1,2.5,7.6,3.9c1.2,0.6,1.9,1.3,2.7,2.1c0.3,0.3,0.6,0.6,0.9,0.9
		l3.4,3l-9.3,9.9c-4.6,4.9-9.3,10-13.9,14.8c-4.5,4.8-9.1,9.4-13.6,14.2c-9.7,10.2-19.9,20.8-29.7,31.5c-5.2,5.8-9.6,12.9-13.5,19.5
		c-4.8,8.1-3,12.1-0.9,14.8c3.7,4.8,12.9,6.9,19.9,4.6c10.6-3.3,18-11.1,25.8-21.6c11.4-15.4,25.3-28.2,39-40.5l2.7-2.4
		c5.4-4.8,10.2-9.9,14.5-14.8c3.4-4,7.8-8.2,13.3-8.4c5.4-0.1,9.9,3.7,13.2,7.2c2.4,2.4,4.8,4.9,7.2,7.3
		c8.1,8.2,16.5,16.8,23.7,26.1c4.3,5.7,7.8,12,10.9,18.1c2.5,4.8,4.9,9.1,7.6,13.3c4.6,7,10.2,13.2,15.7,17.7
		c3.9,3.1,8.4,4.2,12.7,2.8c4.6-1.5,8.4-5.8,9.9-11.4c2.7-10.5,1.5-20.7-3.4-30.6c-2.4-4.8-5.2-9.7-7.9-14.4c-3-5.2-6-10.5-8.8-16
		c-7.6-15.3-19-28.3-35.8-41.4c-3.4-2.7-6.6-5.7-6.3-9.9c0.4-4.5,4.8-6.9,8.8-9c12.6-6.1,27.6-12.9,44.6-16.3
		c18-3.4,33.9-4,48.4-1.5c19.2,3.3,31.9,16.9,36.3,38.4c6.7,34.2,0,67.5-20.2,99.1c-5.5,8.7-12.4,16.5-19,24.1
		c-2.2,2.5-4.5,5.1-6.6,7.6c-22.3,26.4-49.6,45.6-80.3,66.3C1733.7,513,1714.1,519.9,1694.6,519.9z M1582.8,277.9
		c-19.2,0-36,9-47.8,25.9c-9.3,13.5-12.9,29.2-11.5,51.1c1,16.5,6,33,15.6,52c0.3,0.7,0.7,1.5,1,2.2c1.9,4,3.9,8.1,6.6,9.9
		c7.2,5.1,10.9,11.7,13.8,18c5.8,12.9,15.3,23.8,29.7,34.5c19.2,14.1,41.4,24.7,67.4,32.2c11.1,3.1,21.1,5.8,31.3,6.7
		c19.5,1.5,39.3-4.6,60.2-18.9c30.3-20.2,56.9-39.1,78.5-64.6c2.2-2.5,4.5-5.2,6.7-7.8c6.4-7.3,13-15,18.3-23.1
		c18.9-29.7,25.3-60.7,18.9-92.5c-2.4-12.4-9.4-27.9-28.9-31.2c-13.5-2.2-28.3-1.8-45.2,1.5c-16,3.1-30.4,9.6-42.4,15.4
		c-1.6,0.7-2.5,1.3-3.1,1.8c0.4,0.4,1,1,2.1,1.8c18,13.8,30.1,27.9,38.4,44.4c2.7,5.2,5.7,10.5,8.5,15.6c2.7,4.8,5.5,9.7,8.1,14.8
		c6.1,11.8,7.5,24.3,4.2,37c-2.2,8.7-8.1,15.3-15.7,17.7c-7.2,2.4-14.8,0.7-21.1-4.5c-6.3-5.2-12.1-11.8-17.5-19.6
		c-3-4.6-5.7-9.4-8.2-14.2c-3.3-6-6.3-11.8-10.2-16.8c-6.9-9-15-17.2-22.9-25.3c-2.4-2.4-4.8-4.9-7.2-7.3c-2.8-2.8-4.9-4.3-6.3-4.3
		l0,0c-1.5,0-3.7,1.8-6.7,5.2c-4.5,5.2-9.6,10.5-15.3,15.6l-2.7,2.4c-13.9,12.6-27,24.4-37.8,39.1c-7.6,10.3-16.6,20.5-30.3,24.9
		c-10.6,3.3-23.4,0-29.5-7.6c-5.5-6.9-5.5-15.3,0.1-25c3.9-6.7,8.7-14.5,14.5-21c9.7-10.8,19.9-21.4,29.8-31.6
		c4.5-4.8,9.1-9.4,13.6-14.2c4.6-4.9,9.3-9.9,13.9-14.8l2.7-2.8c-1.8-0.9-3.6-1.8-5.5-2.7c-6.7-3.4-13.8-7-20.8-10
		c-12.6-5.5-26.4-7.6-39.4-9.3C1588.1,278.2,1585.4,277.9,1582.8,277.9z"/>
	<path class="st1" d="M1024.9,1129.7c-5.5,0-10.8-1-15.9-3.3c-12.6-5.4-18-16.6-22.5-27.6c-5.5-13.6-8.7-29.1-9.4-47.4
		c-0.3-5.4-0.6-10.8-1-16c-0.1-3.1-0.4-6.4-0.6-9.6c-1.5-13.6-2.2-27.6-3-41.1c-0.1-3.4-0.4-6.9-0.6-10.3
		c-0.4-6.9,0.4-13.6,1.2-20.2c0.3-2.7,0.7-5.5,0.9-8.2c0.1-2.5,0.4-5.1,0.7-7.5c0.6-4.8,1-9.3,1.2-13.9c0.3-7.5,0.3-15.3,0.4-22.6
		c0.1-11.4,0.3-23.2,0.9-34.9c0.4-7,1.6-13.9,2.7-20.7c0.6-3.9,1.3-7.8,1.8-11.7c1.5-11.2,3-23.5,4.2-36c0.3-3.4,0.6-7,1-10.5
		c1.3-14.4,2.8-29.2,3.3-43.9c0.3-12.3,3.3-24.1,9.4-37.3c5.8-12.4,16-19.2,29.7-19.3c7.9-0.1,16.3,0.6,25.3,2.2
		c13.9,2.5,16.3,12.1,16.8,20.2c0.7,12.3-3.3,23.2-7,33.7l-0.7,2.2c-6.7,18.9-10.9,38.8-12.6,59.4l-0.3,3.3
		c-0.1,2.2-0.3,4.5-0.4,6.6c0.3-0.3,0.4-0.6,0.7-0.9c3.6-4,6.9-7.8,9.1-12c13.3-25,33.4-42.7,59.2-61.6c9.6-7,22.6-15.7,37.8-20.8
		c20.4-6.9,39.7-3.1,58.7,11.1c22.5,16.9,22.5,40.2,20.4,56.1c-2.4,18.6-7.2,34.8-14.5,49.5c-1.9,4-4.3,7.8-6.4,11.5
		c-3,5.1-6,10-8.1,15.1c-7.6,18.3-18.6,34.6-29.2,50.5c-2.7,4-5.4,8.1-8.1,12.1c-1.9,3-5.2,7.2-9.9,10.2l-4.2,2.7
		c-13.8,8.8-28,18.1-42.6,26.2c-13.2,7.3-25.8,10.5-38.5,9.4c-6.4-0.4-11.5-3.1-14.2-7.3c-1.8-2.8-3.4-7.9-0.6-15.1
		c4.3-11.1,13.5-16.2,22.6-20.5c2.5-1.2,4.9-2.4,7.5-3.6c8.5-4,17.5-8.4,26.1-12.9c8.8-4.6,15.3-10.3,19-17.2
		c4.2-7.5,8.5-14.8,12.9-22c9.9-16.3,20.1-33.1,26.7-51.3l0.1-0.4c5.5-15,10.8-29.1,10.8-44.5c0-6.1-1.9-10.9-5.7-13.3
		c-3.7-2.4-9-2.5-14.8,0c-8.8,3.6-15.3,10.8-20.8,17.1c-11.1,13-21.7,25.8-31.3,39.1c-4.8,6.7-9,14.2-13,21.6c-2.2,4-4.6,8.2-7,12.3
		c-1.6,2.7-3.4,5.4-5.1,7.9c-2.5,3.7-4.9,7.3-6.9,11.2c-3,5.8-5.4,12.1-7.8,18.3c-0.9,2.4-1.9,4.8-2.8,7.2
		c-9.1,22.5-15.6,46.5-21.7,69.7c-0.7,3.1-1.6,6.1-2.4,9.3c-4.9,18.6-6.6,37.2-4.9,55.2c0.9,9.6,3,19.3,5.1,28.8
		c0.9,4.2,1.9,8.7,2.8,13c0.4,2.5,1,5.2,1.6,7.8c1.3,6,2.7,12.1,3.3,18.4c1,12.1-4.6,21.4-15.1,24.6
		C1034.2,1128.9,1029.4,1129.7,1024.9,1129.7z M1030.7,696.1c-0.4,0-0.9,0-1.3,0c-10.2,0.1-17.2,4.8-21.6,14.2
		c-5.5,12-8.4,22.6-8.7,33.7c-0.4,14.8-1.8,30-3.3,44.5c-0.3,3.4-0.7,7-1,10.5c-1.2,12.6-2.7,24.9-4.2,36.3c-0.6,4-1.2,8.1-1.9,12.1
		c-1.2,6.7-2.2,13.2-2.7,19.6c-0.6,11.4-0.7,23.2-0.9,34.5c-0.1,7.5-0.1,15.3-0.4,22.8c-0.1,4.9-0.7,9.9-1.2,14.7
		c-0.3,2.4-0.6,4.9-0.7,7.3c-0.3,2.8-0.6,5.7-0.9,8.5c-0.7,6.4-1.5,12.6-1.2,18.6c0.1,3.4,0.4,6.9,0.6,10.3
		c0.7,13.3,1.5,27.3,3,40.8v0.1c0.1,3.1,0.4,6.4,0.6,9.6c0.3,5.4,0.7,10.8,1,16.3c0.9,17.2,3.7,31.8,8.8,44.4
		c3.9,9.6,8.2,18.6,17.7,22.8c7.2,3.1,15.1,3.3,23.8,0.7c8.5-2.5,9.1-10.6,8.8-15.3c-0.4-5.7-1.8-11.4-3.1-17.2
		c-0.6-2.5-1.2-5.2-1.6-7.9c-0.9-4.2-1.8-8.5-2.7-12.9c-2.1-9.7-4.3-19.8-5.4-29.8c-1.8-19,0-38.7,5.2-58.3c0.7-3,1.6-6.1,2.4-9.1
		c6.3-23.5,12.6-47.7,22-70.8c0.9-2.4,1.9-4.6,2.8-7c2.5-6.3,5.1-12.7,8.2-19c2.2-4.3,4.9-8.4,7.5-12.1c1.8-2.5,3.3-4.9,4.8-7.5
		c2.4-3.9,4.6-8.1,6.9-12.1c4.2-7.5,8.5-15.3,13.6-22.5c9.7-13.6,20.5-26.5,31.8-39.7c6.1-7.2,13.5-15.1,24.1-19.6
		c8.7-3.6,16.9-3.3,23.2,0.9c6.1,4.2,9.6,11.5,9.6,20.7c0,17.1-5.7,32.7-11.4,47.7l-0.1,0.4c-7,18.9-17.4,36.1-27.4,52.8
		c-4.3,7-8.7,14.4-12.7,21.7c-4.6,8.4-12.3,15.4-22.8,20.8c-8.7,4.5-17.7,8.8-26.4,12.9c-2.5,1.2-4.9,2.4-7.5,3.6
		c-7.8,3.7-15,7.8-18.1,15.7c-0.7,2.1-1.5,5.1-0.1,7.2c1,1.8,3.7,3,7.3,3.1c10.9,0.9,21.9-1.8,33.4-8.4
		c14.4-7.9,28.5-17.1,42.1-25.9l4.3-2.7c2.5-1.6,5.1-4.3,7.2-7.5c2.7-4,5.4-8.2,8.1-12.3c10.3-15.4,21.1-31.5,28.5-49
		c2.4-5.7,5.5-11.1,8.7-16.3c2.1-3.6,4.3-7.3,6.1-10.9c6.9-13.8,11.4-29.1,13.6-46.6c2.8-22-2.4-36.7-16.8-47.7
		c-16.8-12.6-32.8-15.7-50.5-9.7c-14.1,4.8-26.2,12.9-35.4,19.6c-24.9,18.1-43.9,35.1-56.5,58.5c-2.7,5.1-6.6,9.4-10.3,13.6
		c-1.3,1.6-2.7,3.1-4,4.6c-2.8,3.4-5.8,3.6-7.8,3.1l-0.4-0.1l-0.4-0.1c-3-1.3-4.3-3.9-4-7.6v-0.3c0.1-4,0.4-8.1,0.7-12l0.3-3.3
		c1.6-21.3,6-42.1,13-61.8l0.7-2.2c3.6-10.2,7-19.6,6.4-30.1c-0.4-7.8-2.7-10.8-9.4-12C1045.3,696.9,1037.6,696.1,1030.7,696.1z"/>
	<path class="st1" d="M2666.8,1058.1c-1,0-1.9,0-3-0.1c-11.7-0.6-22.6-5.2-33.6-13.9c-3.7-3-7.6-6.3-11.4-9.3
		c-2.1-1.8-4.3-3.6-6.4-5.2c-5.5-4.5-9.6-10.2-12.1-17.2c-7.2-18.9-10-36.7-9.1-54.6l0.1-3.1c0.9-15.4,1.6-31.5,1.9-47.2
		c0-3.9-0.4-7.8-0.9-11.8c-0.6-4.5-1-9.1-1-13.8c0.3-11.5,1.6-22.9,3.3-35.5l0.6-5.1c1.5-12.3,3.1-24.9,5.8-37.2
		c2.2-10,5.1-19.9,7.8-29.5c1.6-5.7,3.3-11.7,4.9-17.5c1.9-7.2,3.7-14.5,5.4-21.7c3-12,6-24.3,9.4-36.3c2.4-8.4,6.4-16.9,11.4-24.9
		c5.8-9.3,12.3-10.8,32.5-11.4h0.4h0.4c1,0.1,2.4,0.3,3.9,0.4c4,0.4,9.6,1,14.8,2.2c13.9,3,21.7,15.7,18.9,31
		c-1.3,7.2-2.7,14.4-3.9,21.6c-3.7,20.7-7.6,42-11.4,63c-1.8,10.8-3.3,22-4.8,32.8c-0.3,2.7-0.7,5.4-1,7.9c-1,7.5,1.2,11.1,8.5,13.6
		l0.6,0.1c4.3,1.5,8.8,3.1,13.3,4c13.2,2.8,24.1,8.5,33.4,17.5c3.9,3.7,8.2,7.5,12.3,11.1c3.1,2.7,6.3,5.5,9.4,8.4
		c14.5,13.5,18.7,29.2,12.4,46.8c-2.7,7.5-5.4,15.3-7.9,22.6c-2.2,6.7-4.6,13.8-7.2,20.5c-5.4,15-15,27.1-25.3,39.4
		c-9.6,11.4-20.1,22.6-31.3,33.7C2695.7,1051.8,2681.8,1058.1,2666.8,1058.1z M2672.5,671.1c-19.8,0.6-21.6,2.2-24.7,7.3
		c-4.6,7.2-8.2,15-10.3,22.6c-3.4,11.8-6.4,24.1-9.4,36c-1.8,7.2-3.6,14.5-5.5,21.9c-1.5,6-3.3,12-4.9,17.7
		c-2.7,9.4-5.5,19.2-7.6,28.9c-2.5,11.8-4.2,24.4-5.7,36.4l-0.6,5.2c-1.5,12.3-2.8,23.4-3.1,34.6c-0.1,4,0.4,8.1,0.9,12.4
		c0.4,4.2,1,8.7,1,13c-0.1,15.9-1,31.9-1.9,47.5l-0.1,3.1c-0.9,16.5,1.9,33.1,8.5,50.8c2.1,5.5,5.2,9.9,9.4,13.5
		c2.1,1.8,4.3,3.6,6.4,5.4c3.7,3.1,7.5,6.1,11.2,9.1c9.3,7.5,18.6,11.4,28.5,12c13.6,0.7,26.1-4.5,37.8-15.9
		c11.1-10.8,21.4-21.9,30.7-33c10.2-12,18.9-23.1,23.7-36.6c2.4-6.7,4.8-13.8,7-20.5c2.5-7.5,5.2-15.3,7.9-22.8
		c5.1-14.2,1.9-25.9-10-37c-3-2.7-6.1-5.5-9.1-8.2c-4.2-3.6-8.5-7.5-12.6-11.4c-8.1-7.8-17.5-12.7-29.1-15.3
		c-4.9-1-9.7-2.7-14.4-4.3l-0.6-0.1c-11.2-3.9-16-11.5-14.4-23.4c0.3-2.7,0.7-5.4,1-7.9c1.3-10.9,2.8-22,4.8-33.1
		c3.6-21.1,7.5-42.4,11.4-63.1c1.3-7.2,2.7-14.4,3.9-21.6c1.9-10.6-2.7-18.7-12-20.7c-4.9-1-10-1.6-14.1-2.1
		C2674.9,671.4,2673.6,671.2,2672.5,671.1z M2683.9,999.5c-0.9,0-1.9-0.1-2.8-0.4c-3-0.9-7-3.6-9.1-12l-0.4-1.5
		c-0.6-2.5-1.3-5.1-1.6-7.9c-0.3-3.7-0.6-7.5-0.6-11.1v-0.4c0.3-2.8,0.6-5.8,0.9-8.7c0.7-6.4,1.3-12.9,1.5-19.3
		c0-5.5-0.4-10.9-1-16.8c-0.3-2.8-0.6-5.7-0.7-8.5c-0.1-2.2-0.1-4.3,0-6.1c0.3-5.4,2.7-10.2,6.6-12.9c4-2.8,9.1-3.4,14.2-1.9
		c12.4,3.7,18.6,13.9,24,22.9c16.5,27.6,6.7,47.5-6.3,64.9c-4.2,5.7-9.1,10.5-13,14.2C2691.4,997.6,2687.6,999.5,2683.9,999.5z
		 M2678.2,966.8c0,3.3,0.3,6.6,0.6,10.2c0.1,2.1,0.7,4.2,1.3,6.4l0.4,1.5c1,3.9,2.4,5.2,3,5.5c0.6,0.1,2.5-0.3,5.5-3.1
		c3.6-3.4,8.1-7.9,12-13c13.2-17.7,18.9-33.1,5.8-54.9c-4.9-8.4-9.7-16.2-18.9-19c-2.5-0.7-4.8-0.4-6.4,0.6c-1.6,1.2-2.7,3.3-2.8,6
		c0,1.6-0.1,3.4,0,5.1c0.1,2.7,0.4,5.5,0.7,8.2c0.6,5.8,1.2,11.8,1,17.8c-0.1,6.7-0.7,13.6-1.5,20.2
		C2678.8,961.3,2678.5,964,2678.2,966.8z"/>
	<path class="st1" d="M2478.2,1094.3c-7.3,0-15.1-3-21.7-8.4c-7.9-6.4-12.7-15.4-13-24c0-1.9,0-4,0-5.8c0-0.9,0-1.8,0-2.7v-0.6
		c1.5-12,3.1-26.2,4-40.3c0.6-10.5,0.6-21.3,0.6-31.6c0-4.2,0-8.2,0-12.4c0-1.9,0-3.9-0.1-6c0-2.2-0.1-4.6-0.1-7
		c0.1-5.4,0.3-10.8,0.4-16.2c0.4-11.2,0.7-22.9,0.3-34.2c-0.3-6.3-1.6-12.6-3.1-19.3c-0.7-3.6-1.6-7.2-2.2-10.9
		c-0.4-2.2-0.7-4.3-1.2-6.6c-1.3-7.3-2.7-15-3.1-22.6c-0.6-10.3-0.7-20.8-0.9-30.9c-0.1-8.1-0.3-16.6-0.6-24.9
		c-0.1-5.1-1.2-10.6-3-17.1c-0.6-2.2-1.5-3-1.6-3.1c-0.1,0-1.2,0.4-2.5,2.2c-4.2,5.7-8.2,12.1-12,19.3c-7,13.6-9.9,28.3-12,46.3
		c-1.6,14.1-4.8,27.7-9.3,40.6c-4.2,11.7-7.3,24.1-9.6,38.2c-3.3,20.2-6.3,35.7-9.9,50.2c-1.8,7.5-5.1,15.3-10.2,24
		c-2.7,4.6-10.2,6.6-14.4,6.3c-13.2-0.9-22.5-7.5-26.8-18.9c-1-2.8-1.3-6.6-0.4-10.2c1.3-6,2.8-12,4.3-17.7
		c2.2-9.1,4.5-18.4,6.4-27.7c1-5.2,1.5-10.5,2.1-16c0.4-4.3,0.9-8.8,1.5-13.2c2.7-17.1,9.1-33.1,15.3-48.7l1.8-4.3
		c2.4-6,4.3-12.3,6.3-18.3c2.1-6.4,4.3-13.2,6.9-19.6c5.8-14.4,12.3-29.8,20.2-44.7c8.5-16.2,18.1-32.1,28.5-47.4
		c14.2-21.1,35.1-31.3,60.1-29.5c12.7,0.9,31,4.3,41.5,22.3c6.6,11.4,6,23.4,5.2,34.9v1c-0.7,12.1-1.6,24.6-2.7,36.4
		c-0.6,6.9-1,13.8-1.6,20.7c-0.3,4.2-0.4,8.4-0.7,12.6c-0.1,2.8-0.3,5.8-0.4,8.7c-0.3,4-0.4,8.1-0.7,12c-0.6,8.4-1.2,17.1-1.3,25.6
		c0,3.7,0.4,7.5,1,11.4c0.4,3,0.9,6.1,1,9.4c0.6,12.1,1,23.4,1,34.2c0,5.2-0.3,10.5-0.6,15.6c-0.1,3-0.3,6.1-0.4,9.3
		c-0.3,8.8-0.6,17.5-0.9,26.4c-0.4,14.5-0.9,29.7-1.5,44.5c-1,27.1-7.8,52.3-19.8,75c-2.5,4.9-7.2,11.7-16.5,13.3
		C2480.9,1094.1,2479.5,1094.3,2478.2,1094.3z M2452.4,1053.6c0,0.9,0,1.6,0,2.5c0,1.9,0,3.7,0,5.5c0.1,6,3.7,12.4,9.7,17.2
		c5.8,4.8,12.9,7,18.7,6.1c4.3-0.7,7.2-3.1,10-8.5c11.4-21.4,17.7-45.4,18.7-71.1c0.6-14.8,1-29.8,1.5-44.4
		c0.3-8.8,0.6-17.5,0.9-26.4c0.1-3.1,0.3-6.3,0.4-9.4c0.3-4.9,0.6-10,0.6-15.1c0-10.6-0.3-21.7-1-33.7c-0.1-2.8-0.6-5.7-0.9-8.7
		c-0.6-4.2-1.2-8.4-1-12.7c0.1-8.7,0.7-17.5,1.3-26.1c0.3-4,0.6-7.9,0.7-12c0.1-2.8,0.3-5.7,0.4-8.5c0.1-4.2,0.4-8.5,0.7-12.7
		c0.4-6.9,1-13.8,1.6-20.7c0.9-11.8,1.9-24.1,2.7-36.3v-1c0.6-10.6,1.2-20.7-4-29.8c-6.4-11.1-17.1-16.6-34.5-18
		c-22-1.6-39.6,7-52,25.5c-10.2,15-19.6,30.7-28,46.5c-7.8,14.5-14.1,29.7-19.8,43.8c-2.5,6.1-4.6,12.7-6.7,19
		c-1.9,6.1-4,12.6-6.6,18.9l-1.8,4.3c-6,15-12.3,30.6-14.8,46.8c-0.6,4.2-1,8.5-1.5,12.6c-0.6,5.5-1,11.2-2.2,16.9
		c-1.9,9.4-4.2,19-6.6,28.2c-1.5,5.8-2.8,11.7-4.2,17.7c-0.4,1.8-0.3,3.7,0.1,4.9c3.1,8.1,9.6,12.4,19,13.2c2.1,0.1,5.4-1,6-1.9
		c4.5-7.8,7.5-14.8,9.1-21.4c3.4-14.4,6.4-29.7,9.7-49.6c2.4-14.5,5.7-27.4,10-39.7c4.3-12.3,7.3-25.3,8.8-38.7
		c2.2-19,5.2-34.6,12.9-49.5c3.9-7.5,8.2-14.4,12.7-20.5c4.5-6,9.1-6.1,11.4-5.8c2.4,0.4,6.6,2.2,8.7,9.6c1.9,7.2,3.1,13.3,3.3,19.2
		c0.3,8.4,0.4,16.8,0.6,25c0.1,10,0.3,20.4,0.9,30.6c0.3,7,1.6,14.4,3,21.4c0.4,2.2,0.7,4.5,1.2,6.7c0.6,3.4,1.3,7,2.1,10.5
		c1.5,6.7,3,13.8,3.3,21c0.4,11.7,0,23.5-0.3,34.9c-0.1,5.2-0.3,10.6-0.4,16c0,2.1,0,4.3,0.1,6.6c0,2.1,0.1,4.2,0.1,6.3
		c0,4,0,8.2,0,12.3c0,10.5,0,21.4-0.7,32.2C2455.6,1027.2,2453.9,1041.5,2452.4,1053.6z"/>
	<path class="st1" d="M1776.6,1041c-0.1,0-0.4,0-0.6,0c-24.9,0-44.6-5.8-60.2-17.8c-28.2-21.4-42.8-44.8-46.1-73.5
		c-0.9-7.6-2.8-15.6-4.6-23.2c-1.2-5.1-2.5-10.5-3.4-15.9c-1.9-10.3-3.1-20.8-4-29.7c-0.7-7.5-3.7-10.3-10.2-10.3
		c-30.6,0.4-53.5,2.8-74.6,7.9c-3.4,0.9-6.7,2.1-10.5,3.6c-1.9,0.7-4.2,2.2-4.3,6.9c0,2.4,0,4.6,0,7.2c0,1.6,0,3.4,0,5.1v0.3
		c-0.1,1.9-0.3,3.9-0.4,5.8c-0.4,5.4-0.7,10.9-0.7,16.2c0,6.3,0.9,12.7,1.8,19l0.1,1c1,7.3-1.5,13.9-6.6,17.8
		c-6.1,4.6-13.2,8.5-20.2,10.9c-4.9,1.6-10.3,1.2-15-1.5c-6.1-3.4-10.6-10.3-12.4-18.6c-3-14.4-4.8-28.8-5.8-39.7
		c-1.3-12.9-2.1-25.6-2.1-37.9c0-5.5,0.4-11.1,1-16.5c0.4-4.2,0.7-8.5,0.9-12.7c0.1-5.5,0.1-11.1,0-16.5c-0.1-6.9-0.1-14.1,0.1-21.1
		c0.4-8.5,1.5-17.1,2.5-25.3c0.3-2.7,0.7-5.5,1-8.2c0.9-7.2,1.8-14.8,3.1-22.3c0.4-2.8,2.2-6.9,5.2-8.7c14.7-8.5,27.3-10.8,40-6.7
		c10.3,3.3,15.7,11.1,15,22.2c-0.6,8.5-1.3,17.2-2.2,25.5c-0.6,6.3-1.2,12.7-1.8,19.2l-0.3,3.4c-0.7,8.2-1.3,16.9-1,25.2
		c0.1,3.4,1,5.7,2.7,7.2c2.2,1.9,6.4,2.8,12.6,2.4c8.4-0.6,17.5-1.5,29.2-3c2.8-0.4,5.7-0.7,8.7-1c13.3-1.6,27.1-3.4,40.5-6
		c8.2-1.5,8.8-2.4,9.6-12.6c0.6-8.5,1.5-17.1,2.4-25.3c0.6-5.8,1.2-11.7,1.8-17.7c1.2-12.9,2.5-27.6-0.6-41.7
		c-0.9-4-0.9-8.5-0.1-12.9c1.9-11.1,8.8-16.9,18.9-15.7c1.8,0.1,3.6,0.3,5.2,0.4c4.3,0.4,9,0.7,13.5,1.8
		c17.5,3.9,28.3,15.9,30.3,33.6c0.6,5.5,0.7,11.2,0.9,16.6c0.1,3.4,0.1,7,0.4,10.5c0.3,4.8,0.7,9.7,1.2,14.5
		c0.9,9.4,1.8,19,1.6,28.8c0,16.2-1.2,29.1-3.9,40.5c-4.6,20.4-4.8,40.5-0.6,61.5c0.6,3.3,1.2,6.7,1.8,10.2
		c1.6,9.1,3.3,18.7,6.3,27.4c9.1,26.4,28.3,42.4,56.9,47.5c3.1,0.6,6.6,0.4,10.2,0.3c1.8,0,3.6-0.1,5.4-0.1c1.3,0,2.5,0,3.9,0
		c1.8,0,3.4,0,5.2,0c13,0.1,17.2,5.4,18.4,9.9c1.6,6-3.3,17.4-10.6,20.8c-8.2,3.7-16.3,7.3-25,9
		C1798.1,1040.1,1788.2,1041,1776.6,1041z M1647.6,860.6c7.8,0,17.1,4,18.7,19.2c0.9,8.7,2.1,18.9,4,28.9c0.9,5.1,2.2,10.3,3.4,15.4
		c1.8,7.8,3.7,16,4.8,24.1c3.1,26.1,16.6,47.4,42.7,67.3c14.1,10.8,32.1,16,54.8,16c11.2,0,21-0.7,29.2-2.4
		c7.6-1.5,15.3-4.8,22.9-8.4c3.3-1.5,6.1-8.4,5.7-10.3c-0.7-2.8-7.2-3.3-9.9-3.3c-1.6,0-3.4,0-5.1,0c-1.3,0-2.5,0-3.9,0
		c-1.6,0-3.3,0-4.9,0.1c-3.9,0.1-8.1,0.3-12.1-0.4c-32.2-5.7-53.6-23.7-63.8-53.4c-3.1-9.3-4.9-19.2-6.6-28.8
		c-0.6-3.3-1.2-6.6-1.8-9.9c-4.3-22.2-4.2-43.6,0.7-65.2c2.4-10.6,3.6-22.9,3.6-38.5c0-9.3-0.9-18.7-1.6-27.9
		c-0.4-4.8-0.9-9.9-1.2-14.8c-0.3-3.6-0.3-7.2-0.4-10.8c-0.1-5.2-0.3-10.6-0.9-15.9c-1.6-14.1-9.4-22.8-23.4-25.9
		c-3.9-0.9-7.9-1.2-12.3-1.6c-1.8-0.1-3.7-0.3-5.5-0.6c-3.6-0.4-7.6,0.3-9,8.4c-0.6,3.1-0.6,6.6,0.1,9.4c3.3,15.4,1.9,30.9,0.7,44.4
		c-0.6,6-1.2,12-1.8,17.8c-0.9,8.2-1.8,16.6-2.4,25c-0.9,12.3-2.8,18.3-16.9,20.8c-13.6,2.5-27.4,4.3-40.9,6c-2.8,0.3-5.7,0.7-8.5,1
		c-12,1.5-21.1,2.5-29.8,3.1c-8.7,0.6-15-0.9-19.2-4.6c-3.4-3.1-5.4-7.6-5.7-13.5c-0.4-8.8,0.3-17.7,1-26.2l0.3-3.4
		c0.4-6.4,1.2-13,1.8-19.3c0.7-8.2,1.6-16.8,2.2-25.2c0.4-6.9-2.4-10.9-8.7-13c-10-3.1-20.4-1.2-32.7,5.8c-0.3,0.3-0.9,1.5-1,2.5
		c-1.2,6.9-2.1,13.8-3.1,21.9c-0.3,2.8-0.7,5.5-1,8.4c-1,8.1-2.1,16.5-2.5,24.7c-0.3,6.7-0.3,13.8-0.1,20.5c0,5.5,0.1,11.2,0,16.9
		c-0.1,4.5-0.6,9-0.9,13.3c-0.4,5.4-0.9,10.5-0.9,15.6c0.1,12,0.7,24.4,2.1,37c1,10.6,2.7,24.7,5.7,38.7c1.2,5.8,4.2,10.5,8.1,12.7
		c2.4,1.3,5.1,1.6,7.6,0.7c6.1-2.1,12.3-5.4,17.7-9.6c2.5-1.9,3.7-5.4,3.1-9.4l-0.1-1c-0.9-6.6-1.8-13.3-1.9-20.2
		c0-5.7,0.3-11.4,0.7-17.1c0.1-1.8,0.3-3.7,0.4-5.5c0-1.6,0-3.1,0-4.8c0-2.5-0.1-5.1,0-7.6c0.1-7.3,3.7-12.6,10-15.1
		c3.9-1.5,7.6-3,11.7-3.9C1592.6,863.6,1616.4,861.1,1647.6,860.6z M1515.1,750.7L1515.1,750.7L1515.1,750.7z"/>
	<path class="st1" d="M1346.3,1013.7c-16.8,0-31.9-4.6-45.1-14.1c-18.7-13.3-30.4-32.5-33.9-55.8c-1.2-7.8-0.6-15.7-0.1-23.4
		c0.3-3.9,0.4-7.9,0.6-11.7c0-4.2-0.3-8.2-1-12c-0.4-0.3-1-0.4-1.5-0.6c-8.1-2.1-15.3-8.4-19-16.6c-3.6-7.9-3.4-16.5,0.3-23.5
		c2.5-4.8,9.3-7.3,14.4-8.2c4.3-0.7,6.4-2.2,7.8-5.8c1.3-3.4,2.7-6.9,4-10.2c2.2-5.7,4.6-11.5,6.7-17.2c8.4-23.2,19.8-45,34-64.3
		c14.1-19.2,30-30.7,48.4-35.1c2.1-0.4,4-0.6,6-0.7c0.9,0,1.8-0.1,2.8-0.3h0.6l0.6,0.1c0.9,0.1,1.8,0.1,2.7,0.3
		c2.5,0.1,5.4,0.4,8.2,1.5c5.1,1.8,10.3,3.4,15.6,5.1c12.9,3.9,26.1,7.9,37.8,16.2c11.5,8.2,18.1,17.7,20.4,29.2
		c1.8,9.3,0.1,18.7-4.6,27.4c-5.1,9.3-12.1,21.1-21.4,31.2c-7,7.6-15.3,14.4-23.1,21c-3.3,2.7-6.7,5.5-9.9,8.4
		c-1.9,1.6-3.7,3.4-5.5,5.1c-4.5,4.2-9.3,8.5-14.5,12c-5.8,3.9-12.4,6.6-18.7,9.1l-2.7,1c-15.6,6.3-21.9,15.4-21.6,31.3
		c0,2.1,0,4,0,6.1c0,10.3,0.1,20.2,3,29.8c2.1,7,5.5,11.7,10,14.1c4.3,2.2,10,2.4,16.6,0.4c12.3-3.7,23.7-11.2,35.1-22.6
		c6.6-6.7,13-13.9,19.2-21.1c4.5-5.2,9.3-10.6,14.1-15.9c4.9-5.4,10.8-10,16.8-13.6c4.3-2.7,11.7,0,14.7,2.8
		c2.8,2.8,5.7,9.9,3.6,14.4c-1.3,2.7-2.5,5.4-3.7,8.1c-5.2,11.5-10.8,23.7-20.1,33.7c-7,7.5-13.6,15.6-20.2,23.4
		c-3.3,4-6.7,8.2-10.3,12.3c-11.5,13.5-26.2,22.3-43.4,26.2C1361.4,1012.8,1353.6,1013.7,1346.3,1013.7z M1371.1,722.8
		c-0.9,0.1-1.8,0.1-2.5,0.1c-1.8,0.1-3.3,0.3-4.6,0.6c-16.3,3.9-30.4,14.2-43.1,31.6c-13.8,18.7-24.9,39.7-32.8,62.1
		c-2.1,6-4.5,11.8-6.9,17.7c-1.3,3.3-2.7,6.7-4,10c-2.5,6.6-7.2,10.2-14.8,11.4c-4,0.6-7.3,2.5-7.8,3.6c-2.4,4.5-2.4,10.2,0,15.7
		c2.5,5.8,7.5,10.2,13,11.5c0.7,0.1,7,1.9,7.9,6.6c0.9,4.6,1.3,9.6,1.3,14.8c0,4-0.3,8.2-0.6,12.3c-0.4,7.5-0.9,14.7,0,21.6
		c3,20.7,13.5,37.8,30.1,49.6c17.1,12.1,37,15.4,61.1,9.9c15.4-3.4,28.5-11.4,38.7-23.4c3.4-4,6.9-8.1,10.2-12.1
		c6.6-7.9,13.3-16,20.5-23.8c8.4-9,13.3-19.8,18.6-31.3c1.2-2.7,2.4-5.4,3.7-8.1c0.1-1-0.7-3.4-1.6-4.3c-0.6-0.6-3-1.3-4-1.3
		c-5.2,3.1-10.2,7.3-14.5,11.8c-4.8,5.1-9.4,10.5-13.9,15.6c-6.3,7.2-12.7,14.7-19.5,21.6c-12.4,12.4-25.2,20.5-38.8,24.9
		c-9,2.8-16.8,2.4-23.4-1c-6.7-3.6-11.5-10-14.5-19.5c-3.3-10.9-3.4-21.9-3.4-32.4c0-1.9,0-4,0-6c-0.3-19.5,8.4-32.1,27.3-39.7
		l2.7-1c5.8-2.4,12-4.8,17.1-8.2c4.6-3.1,9-7,13.5-11.1c1.9-1.6,3.7-3.4,5.8-5.2c3.3-2.8,6.7-5.7,10-8.5
		c7.6-6.3,15.6-12.9,22.3-20.1c8.7-9.3,15.3-20.7,20.2-29.4c2.7-4.8,5.4-12.3,3.7-21.3c-1.8-9.1-7-16.6-16.8-23.5
		c-10.5-7.5-22.5-11.1-35.2-15c-5.2-1.6-10.8-3.3-16-5.2c-1.6-0.6-3.7-0.7-5.8-1C1372.9,723,1372,723,1371.1,722.8z M1340,844.3
		c-1.5,0-3-0.3-4-1.2l-0.7-0.6l-0.4-0.9c-1.5-3.1-1-7.6-0.6-9.7c2.5-11.8,8.5-22.9,18.6-35.2c1.9-2.4,4-4.9,5.8-7.3
		c2.8-3.6,5.8-7.3,9-10.9c3.4-3.9,6.9-7,10.3-9.4c6.1-4.2,11.2-3.7,14.4-2.7c4.5,1.5,8.1,5.5,9.9,11.4c0.6,2.1,1,4,1.5,6
		c0.1,0.7,0.3,1.6,0.6,2.4v0.3c0.9,5.7-4.5,15.7-8.5,20.2c-12.6,13.6-28.5,25.5-48.5,36.3C1346.4,843.1,1343.1,844.3,1340,844.3z
		 M1342.7,834.7c0,0-0.1,0.7,0,0.6c19.2-10.3,34.4-22.2,46.2-34.9c3.4-3.7,6.3-10.8,6.3-12.7c-0.1-0.7-0.3-1.5-0.4-2.4
		c-0.4-1.8-0.7-3.4-1.2-5.1c-1-3-2.5-4.9-4.3-5.7c-0.4,0-0.9,0-1.5,0c-1.8,0-3.6,0.9-4.9,1.8c-2.8,1.9-5.7,4.5-8.5,7.8
		c-3,3.4-5.8,7.2-8.7,10.6c-1.9,2.5-4,5.1-6,7.5C1350.5,813.2,1345.1,824.4,1342.7,834.7z"/>
	<path class="st1" d="M2448.2,479.3L2448.2,479.3c-16.8,0-32.4-4.8-46.9-9.6c-16.5-5.4-33-11.2-49-16.9
		c-14.2-4.9-28.9-10.2-43.4-15.1c-4.5-1.5-9.1-2.4-14.2-3.4c-4.6-0.9-9.3-1.8-13.9-3.3c-6.3-1.9-12.6-4.3-18.7-6.6
		c-6-2.2-12.1-4.6-18.1-6.4c-12.3-3.7-24.9-7.2-37.2-10.3l-7.3-1.9c-3.3-0.9-6.6-1.8-10-2.7c-11.7-3.1-23.8-6.4-35.8-8.8
		c-8.2-1.6-16.8-2.7-25-3.6c-4.3-0.4-9-1-13.5-1.6c-4.9-0.7-9.9-1.5-14.7-2.2c-5.7-0.9-11.5-1.8-17.2-2.5c-8.4-1.2-17.1-2.1-26.5-3
		c-17.4-1.6-36.1-4-54.2-10c-0.6-0.1-1.6-0.4-2.5-1.3c-0.9-0.7-1.9-1.6-3.1-2.4c-3.3-2.2-6.9-4.9-8.1-9.1c-1.3-4.6-1-11.7,8.4-19.6
		c11.2-9.3,24.3-9.7,34.5-9c8.2,0.6,16.6,1.6,24.6,2.7l3.9,0.4c14.4,1.8,28.8,3.7,43.3,5.8c3.3,0.4,6.6,0.9,9.9,1.3
		c9.3,1.2,19,2.5,28.5,4.2l1,0.1c18,3.1,36.4,6.3,54.5,10.5c37.5,8.5,77.5,17.8,117,27.9c27.4,7,55.1,16.8,85,30.1
		c9.4,4.2,19.3,7.8,28.9,11.2c7.6,2.7,15.6,5.5,23.2,8.8c7.5,3.1,14.5,7.5,21.3,11.7l2.4,1.5c8.2,5.1,11.8,13,9.4,21.1
		c-2.2,7.9-10,9.3-15.1,10.2c-0.6,0.1-1.2,0.1-1.8,0.3c-4.5,0.9-9,1.2-13.3,1.3c-1.8,0.1-3.6,0.1-5.5,0.4L2448.2,479.3z M2005,362.2
		C2005.2,362.2,2005.2,362.2,2005,362.2c17.4,5.7,35.4,7.9,52.3,9.6c9.4,0.9,18.3,1.9,26.8,3.1c5.8,0.7,11.7,1.6,17.5,2.5
		c4.8,0.7,9.7,1.5,14.7,2.2c4.3,0.6,8.8,1.2,13.2,1.6c8.4,1,17.2,2.1,25.8,3.7c12.3,2.5,24.4,5.8,36.3,9c3.3,0.9,6.6,1.8,9.9,2.7
		l7.3,1.9c12.3,3.3,25,6.6,37.5,10.5c6.3,1.9,12.6,4.3,18.7,6.6c6,2.2,12.1,4.6,18.1,6.4c4.2,1.3,8.5,2.1,13,3
		c5.1,1,10.2,1.9,15.3,3.7c14.5,4.9,29.4,10,43.6,15.1c16,5.7,32.5,11.4,48.8,16.9c13.8,4.6,28.5,9,43.7,9.1
		c1.8-0.1,3.6-0.3,5.5-0.4c4.3-0.3,8.2-0.4,12.3-1.2c0.6-0.1,1.3-0.3,1.9-0.3c4.9-0.9,7.3-1.5,7.9-3.7c1.6-5.7-2.8-9.4-5.5-11.1
		l-2.4-1.5c-6.4-4-13-8.1-19.9-10.9c-7.5-3.1-15.3-5.8-22.8-8.7c-9.7-3.6-19.9-7.2-29.5-11.5c-29.4-13-56.6-22.8-83.6-29.5
		c-39.4-10-79.4-19.3-116.7-27.9c-17.8-4-36.3-7.3-54.1-10.3l-1-0.1c-9.3-1.6-18.9-2.8-28.2-4.2c-3.3-0.4-6.6-0.9-9.9-1.3
		c-14.5-1.9-28.8-3.9-43.1-5.8l-4-0.4c-7.9-1-16-2.1-24.1-2.7c-12.7-0.9-21.1,1.2-28,6.9c-3.1,2.5-6.6,6.4-5.5,10.2
		c0.3,1.2,2.8,3,4.8,4.3C2002.9,360.4,2004,361.3,2005,362.2z"/>
	<path class="st1" d="M948.6,475.9c-5.2,0-10.3-0.6-15.3-1.6c-3-0.6-11.8-2.5-14.4-11.4c-2.7-9,4-15.4,6.3-17.4
		c10.8-10.2,23.8-15.7,33.9-19.5c21-7.8,37.2-13.2,52.7-17.7c5.8-1.6,11.7-2.4,17.5-3.1c4.9-0.6,9.4-1.2,13.9-2.4
		c17.5-4.3,30.9-8.1,43-12.4c5.7-1.9,11.5-4.2,17.1-6.1c20.7-7.6,42.1-15.6,64.7-19.2c5.5-0.9,11.4-1.6,16.8-2.5
		c8.1-1.2,16.3-2.2,24.4-3.7c10.9-1.9,22-4.3,32.8-6.6c7.9-1.6,16-3.3,24.1-4.9c25.9-5.1,51.4-10,76.9-14.5c6.3-1,12.6-1.6,19.2-2.2
		c3-0.3,6.1-0.6,9.3-0.9h0.6l0.6,0.1c1.9,0.3,3.9,0.6,5.8,0.7c4.9,0.6,10.2,1.3,15.3,2.5c4.3,1,7.2,3,8.8,5.8c2.1,3.9,1,8.4,0,11.4
		c-3.1,9.4-9.4,15.7-18,18.4c-15,4.6-30.4,9.3-46,12.9c-22,4.9-44.6,9.1-66.5,13.2l-3.7,0.7c-19,3.6-36.4,6.4-53,9
		c-21.1,3.1-48.8,7.9-76.1,16.6c-25.3,8.1-51.1,16-76.1,23.7c-9,2.8-18,5.5-27,8.4c-5.7,1.8-11.4,3.6-17.1,5.4
		c-14.8,4.6-30.3,9.6-45.5,13.8C964.8,474.7,956.6,475.9,948.6,475.9z M1371.9,338.5c-3,0.3-6,0.6-8.8,0.9c-6.4,0.6-12.4,1-18.4,2.1
		c-25.5,4.5-50.8,9.4-76.7,14.5c-7.9,1.5-16,3.3-24,4.8c-10.8,2.2-22,4.5-33,6.6c-8.2,1.5-16.8,2.7-24.9,3.9
		c-5.5,0.7-11.1,1.5-16.6,2.4c-21.7,3.4-42.7,11.2-63.1,18.7c-5.7,2.1-11.4,4.2-17.2,6.3c-12.4,4.3-25.9,8.2-43.7,12.6
		c-4.9,1.2-10,1.9-15,2.5c-5.7,0.7-11.1,1.5-16.2,3c-15.3,4.3-31.3,9.9-52.1,17.5c-13.8,5.1-23.2,10.5-30.9,17.7
		c-4,3.7-4.5,6.1-3.7,8.2c0.6,1.9,1.9,3.9,7.8,5.1c10.9,2.4,22.8,1.8,36.1-1.9c15.1-4.2,30.6-9.1,45.4-13.8
		c5.7-1.8,11.4-3.6,17.1-5.4c9-2.8,18-5.5,27-8.4c24.9-7.6,50.6-15.6,76-23.7c28-8.8,56.2-13.6,77.6-16.9
		c16.5-2.5,33.7-5.4,52.6-8.8l3.7-0.7c21.7-4,44.3-8.2,66.2-13.2c15.3-3.4,30.6-8.1,45.2-12.6c5.7-1.8,9.7-6,12-12.7
		c1-3.1,0.7-4,0.6-4.2c-0.1-0.3-1-0.9-3.1-1.5c-4.6-1.2-9.6-1.8-14.2-2.4C1375.5,338.9,1373.7,338.8,1371.9,338.5z"/>
	<path class="st1" d="M505.7,886.6L505.7,886.6c-14.8-0.3-27.4-7.3-35.4-19.9c-10.6-16.8-7.9-33.1,7.8-47.1
		c5.7-5.1,14.5-11.8,26.1-12.3c10-0.4,40.8-1.5,47,32.2c3.1,16.8-0.6,29.2-11.5,37.9C529.7,885.4,517,886.6,505.7,886.6L505.7,886.6
		z M508.3,816.1c-1.2,0-2.4,0-3.6,0c-6.7,0.3-13,3.3-20.5,10c-12.3,10.9-14.4,22.6-6.1,35.5c6.3,10,16.2,15.6,27.9,15.7
		c13.8,0,22-2.1,28.3-7.2c8.2-6.6,10.9-15.7,8.4-29.2C539.3,823.8,529,816.1,508.3,816.1z"/>
	<path class="st1" d="M2902.2,894.2c-8.1,0-16-3.1-22.8-6.6c-5.7-3-10.8-7.2-15.3-11.4c-13.5-12.4-15-30.6-3.6-48.6
		c2.5-4,6.1-9.1,10.9-11.8c4-2.2,8.5-3.3,12.9-4.3c1.8-0.4,3.6-0.9,5.2-1.3l0.6-0.1c9.4-1.5,19.5,1.8,28.6,9.1
		c10.9,8.8,19,22.5,19.8,33.3c0.6,9.7-3.4,19.9-11.8,29.5C2918.8,891.1,2910.4,894.2,2902.2,894.2z M2891.8,818.8
		c-1.8,0.6-3.6,1-5.4,1.3c-3.9,0.9-7.6,1.9-10.6,3.6c-3.1,1.6-5.8,5.8-7.6,8.7c-4.2,6.7-12.4,23.8,2.1,37.2c4,3.7,8.5,7.5,13.3,10
		c16.6,8.5,26.8,7.5,36.6-3.6c4.8-5.4,10.3-13.8,9.6-23.1c-0.6-8.4-7.5-19.6-16.5-27C2908.3,822.1,2900.5,817.6,2891.8,818.8z"/>
	<path class="st1" d="M952.4,1257.7L952.4,1257.7c16.8,0,32.4,4.8,46.9,9.6c16.5,5.4,33,11.2,49,16.9c14.2,4.9,28.9,10.2,43.4,15.1
		c4.5,1.5,9.1,2.4,14.2,3.4c4.6,0.9,9.3,1.8,13.9,3.3c6.3,1.9,12.6,4.3,18.7,6.6c6,2.2,12.1,4.6,18.1,6.4
		c12.3,3.7,24.9,7.2,37.2,10.3l7.3,1.9c3.3,0.9,6.6,1.8,10,2.7c11.7,3.1,23.8,6.4,35.8,8.8c8.2,1.6,16.8,2.7,25,3.6
		c4.3,0.4,9,1,13.5,1.6c4.9,0.7,9.9,1.5,14.7,2.2c5.7,0.9,11.5,1.8,17.2,2.5c8.4,1.2,17.1,2.1,26.5,3c17.4,1.6,36.1,4,54.2,10
		c0.6,0.1,1.6,0.4,2.5,1.3c0.9,0.7,1.9,1.6,3.1,2.4c3.3,2.2,6.9,4.9,8.1,9.1c1.3,4.6,1,11.7-8.4,19.6c-11.2,9.3-24.3,9.7-34.5,9
		c-8.2-0.6-16.6-1.6-24.6-2.7l-3.9-0.4c-14.4-1.8-28.8-3.7-43.3-5.8c-3.3-0.4-6.6-0.9-9.9-1.3c-9.3-1.2-19-2.5-28.5-4.2l-1-0.1
		c-18-3.1-36.4-6.3-54.5-10.5c-37.5-8.5-77.5-17.8-117-27.9c-27.4-7-55.1-16.8-85-30.1c-9.4-4.2-19.3-7.8-28.9-11.2
		c-7.6-2.7-15.6-5.5-23.2-8.8c-7.5-3.1-14.5-7.5-21.3-11.7l-2.4-1.5c-8.2-5.1-11.8-13-9.4-21.1c2.2-7.9,10-9.3,15.1-10.2
		c0.6-0.1,1.2-0.1,1.8-0.3c4.5-0.9,9-1.2,13.3-1.3c1.8-0.2,3.6-0.2,5.5-0.4H952.4z M1395.6,1374.8
		C1395.4,1374.8,1395.4,1374.8,1395.6,1374.8c-17.4-5.7-35.4-7.9-52.3-9.6c-9.4-0.9-18.3-1.9-26.8-3.1c-5.8-0.7-11.7-1.6-17.5-2.5
		c-4.8-0.7-9.7-1.5-14.7-2.2c-4.3-0.6-8.8-1.2-13.2-1.6c-8.4-1-17.2-2.1-25.8-3.7c-12.3-2.5-24.4-5.8-36.3-9
		c-3.3-0.9-6.6-1.8-9.9-2.7l-7.3-1.9c-12.3-3.3-25-6.6-37.5-10.5c-6.3-1.9-12.6-4.3-18.7-6.6c-6-2.2-12.1-4.6-18.1-6.4
		c-4.2-1.3-8.5-2.1-13-3c-5.1-1-10.2-1.9-15.3-3.7c-14.5-4.9-29.4-10-43.6-15.1c-16-5.7-32.5-11.4-48.8-16.9
		c-13.8-4.6-28.5-9-43.7-9.1c-1.8,0.1-3.6,0.3-5.5,0.4c-4.3,0.3-8.2,0.4-12.3,1.2c-0.6,0.2-1.3,0.3-1.9,0.3
		c-4.9,0.9-7.3,1.5-7.9,3.7c-1.6,5.7,2.8,9.4,5.5,11.1l2.4,1.5c6.4,4,13,8.1,19.9,10.9c7.5,3.1,15.3,5.8,22.8,8.7
		c9.7,3.6,19.9,7.2,29.5,11.5c29.4,13,56.6,22.8,83.6,29.5c39.4,10,79.4,19.3,116.7,27.9c17.8,4,36.3,7.3,54.1,10.3l1,0.1
		c9.3,1.6,18.9,2.8,28.2,4.2c3.3,0.4,6.6,0.9,9.9,1.3c14.5,1.9,28.8,3.9,43.1,5.8l4,0.4c7.9,1,16,2.1,24.1,2.7
		c12.7,0.9,21.1-1.2,28-6.9c3.1-2.5,6.6-6.4,5.5-10.2c-0.3-1.2-2.8-3-4.8-4.3C1397.6,1376.6,1396.6,1375.7,1395.6,1374.8z"/>
	<path class="st1" d="M2452,1261.2c5.2,0,10.3,0.6,15.3,1.6c3,0.6,11.8,2.5,14.4,11.4c2.7,9-4,15.4-6.3,17.4
		c-10.8,10.2-23.8,15.7-33.9,19.5c-21,7.8-37.2,13.2-52.7,17.7c-5.8,1.6-11.7,2.4-17.5,3.1c-4.9,0.6-9.4,1.2-13.9,2.4
		c-17.5,4.3-30.9,8.1-43,12.4c-5.7,1.9-11.5,4.2-17.1,6.1c-20.7,7.6-42.1,15.6-64.7,19.2c-5.5,0.9-11.4,1.6-16.8,2.5
		c-8.1,1.2-16.3,2.2-24.4,3.7c-10.9,1.9-22,4.3-32.8,6.6c-7.9,1.6-16,3.3-24.1,4.9c-25.9,5.1-51.4,10-76.9,14.5
		c-6.3,1-12.6,1.6-19.2,2.2c-3,0.3-6.1,0.6-9.3,0.9h-0.6l-0.6-0.1c-1.9-0.3-3.9-0.6-5.8-0.7c-4.9-0.6-10.2-1.3-15.3-2.5
		c-4.3-1-7.2-3-8.8-5.8c-2.1-3.9-1-8.4,0-11.4c3.1-9.4,9.4-15.7,18-18.4c15-4.6,30.4-9.3,46-12.9c22-4.9,44.6-9.1,66.5-13.2l3.7-0.7
		c19-3.6,36.4-6.4,53-9c21.1-3.1,48.8-7.9,76.1-16.6c25.3-8.1,51.1-16,76.1-23.7c9-2.8,18-5.5,27-8.4c5.7-1.8,11.4-3.6,17.1-5.4
		c14.8-4.6,30.3-9.6,45.5-13.8C2435.8,1262.4,2444,1261.2,2452,1261.2z M2028.7,1398.5c3-0.3,6-0.6,8.8-0.9c6.4-0.6,12.4-1,18.4-2.1
		c25.5-4.5,50.8-9.4,76.7-14.5c7.9-1.5,16-3.3,24-4.8c10.8-2.2,22-4.5,33-6.6c8.2-1.5,16.8-2.7,24.9-3.9c5.5-0.7,11.1-1.5,16.6-2.4
		c21.7-3.4,42.7-11.2,63.1-18.7c5.7-2.1,11.4-4.2,17.2-6.3c12.4-4.3,25.9-8.2,43.7-12.6c4.9-1.2,10-1.9,15-2.5
		c5.7-0.7,11.1-1.5,16.2-3c15.3-4.3,31.3-9.9,52.1-17.5c13.8-5.1,23.2-10.5,30.9-17.7c4-3.7,4.5-6.1,3.7-8.2
		c-0.6-1.9-1.9-3.9-7.8-5.1c-10.9-2.4-22.8-1.8-36.1,1.9c-15.1,4.2-30.6,9.1-45.4,13.8c-5.7,1.8-11.4,3.6-17.1,5.4
		c-9,2.8-18,5.5-27,8.4c-24.9,7.6-50.6,15.6-76,23.7c-28,8.8-56.2,13.6-77.6,16.9c-16.5,2.5-33.7,5.4-52.6,8.8l-3.7,0.7
		c-21.7,4-44.3,8.2-66.2,13.2c-15.3,3.4-30.6,8.1-45.2,12.6c-5.7,1.8-9.7,6-12,12.7c-1,3.1-0.7,4-0.6,4.2c0.1,0.3,1,0.9,3.1,1.5
		c4.6,1.2,9.6,1.8,14.2,2.4C2025.1,1398.1,2026.9,1398.2,2028.7,1398.5z"/>
	<path class="st1" d="M1704.9,1449.7c-8.1,0-16-3.1-22.8-6.6c-5.7-3-10.8-7.2-15.3-11.4c-13.5-12.4-15-30.6-3.6-48.6
		c2.5-4,6.1-9.1,10.9-11.8c4-2.2,8.5-3.3,12.9-4.3c1.8-0.4,3.6-0.9,5.2-1.3l0.6-0.1c9.4-1.5,19.5,1.8,28.6,9.1
		c10.9,8.8,19,22.5,19.8,33.3c0.6,9.7-3.4,19.9-11.8,29.5C1721.6,1446.5,1713.2,1449.7,1704.9,1449.7z M1694.6,1374.2
		c-1.8,0.6-3.6,1-5.4,1.3c-3.9,0.9-7.6,1.9-10.6,3.6c-3.1,1.6-5.8,5.8-7.6,8.7c-4.2,6.7-12.4,23.8,2.1,37.2c4,3.7,8.5,7.5,13.3,10
		c16.6,8.5,26.8,7.5,36.6-3.6c4.8-5.4,10.3-13.8,9.6-23.1c-0.6-8.4-7.5-19.6-16.5-27C1711.1,1377.5,1703.3,1373,1694.6,1374.2z"/>
</g>
<g id="Layer_2_1_" class="st2">
	<ellipse class="st3" cx="1701.3" cy="860" rx="1237.2" ry="643.5"/>
</g>
</svg>
