<?xml version="1.0" encoding="utf-8"?>
<!-- Generator: Adobe Illustrator 22.1.0, SVG Export Plug-In . SVG Version: 6.00 Build 0)  -->
<svg version="1.1" id="Layer_1" xmlns="http://www.w3.org/2000/svg" xmlns:xlink="http://www.w3.org/1999/xlink" x="0px" y="0px"
	 viewBox="0 0 2267.7 1133.9" style="enable-background:new 0 0 2267.7 1133.9;" xml:space="preserve">
<style type="text/css">
	.st0{opacity:0.76;}
	.st1{opacity:0.9;fill:none;stroke:#231F20;stroke-miterlimit:10;enable-background:new    ;}
</style>
<g id="Layer_1_1_" class="st0">
	<path class="st1" d="M1324.9,553.2c0-0.2-0.2-0.2-0.3-0.1c-3.5,4.6-6.8,9.7-10,14.5c-1,1.5-2,3-3,4.5c-2.1,3.1-4.1,6.2-6.1,9.3
		c-4.1,6.3-8.3,12.8-12.8,19c-4.7,6.5-11.1,14.8-18.4,22.2c-8.7,8.7-20.4,13.7-33.6,14.4c-13.7,0.7-24.9-7.3-30-21.4
		c-4.9-13.5-4.3-26.9-3.2-38.3c1.5-14.6,5.5-29.2,12-43.6c5.8-12.8,14.3-23.6,25.2-31.9l1.8-1.4c5.1-3.9,10.4-8,16-11.5
		c9.5-5.9,19.4-8.7,29.5-8.1c12.4,0.7,21.9,4.3,28.9,11.1c1.1,1.1,2.1,2.4,3.2,4.1c3,4.7,2.9,9.7-0.4,13.9c-2.7,3.5-6.8,4.6-12,3.2
		c-3-0.8-7-2-10.8-3.9c-6.7-3.4-11.6-1.2-18.2,4c-11.9,9.3-19.6,21.6-27.6,37.1l-1.3,2.6c-3.4,6.6-6.9,13.4-9.3,20.3
		c-2.3,6.8-2.4,14.6-0.2,23.8c0.3,1.4,0.8,2,0.9,2.1c0.1,0,0.8-0.1,2.1-1.1c2.1-1.7,4.1-3.7,6.1-5.8c0.9-0.9,1.8-1.9,2.7-2.8
		c2-2,3.9-3.9,5.9-5.8c4.4-4.3,9-8.8,13.2-13.4c5-5.6,10-11.5,14.7-17.2c2.3-2.8,4.7-5.6,7-8.4c1.2-1.4,2.3-2.7,3.5-4.1
		c4.1-4.9,8.4-9.9,12.7-14.7c7-7.8,13.2-14.6,19.1-20.7c4.5-4.7,11.7-7.2,19.3-6.9c7.3,0.3,13.7,3.3,17.5,8.1c4.9,6.1,5,13,4.3,19.6
		c-0.3,2.9-0.7,5.9-1.1,8.7c-0.7,4.9-1.3,9.9-1.5,14.8c-0.3,6.4,0.1,13.1,0.4,19.5c0.1,1.8,0.2,3.6,0.3,5.4c0.1,1.5,0.4,2.6,1,3
		c0.6,0.5,1.8,0.5,3.3,0.1c2.8-0.7,5.6-1.4,8.3-2.2c6.5-1.8,13.2-3.6,20-4.4c9.4-1,9.4-1,10.9-10.8l0.3-2
		c2.9-18.7,10.9-35.1,19-49.9c8-14.5,22.3-21.6,32.3-25.7c10.8-4.4,21.5-5.5,31.8-3.1c7.1,1.6,13.9,5.4,21.3,12
		c4.2,3.7,7.8,7.6,10.9,11.7c6.5,8.7,7,19,1.5,30.7c-4.7,9.9-11.4,18.8-19.9,26.5c-9,8.2-18.6,16.8-28.8,24.8
		c-3.4,2.7-7.5,4.1-11.5,5.5c-1,0.3-1.9,0.7-2.8,1c-9,3.4-10.2,5.2-10.2,14.6c0,7.4,0.6,16.1,4.7,24.1c3.5,6.9,7.5,8.5,15.7,6.4
		c8.8-2.3,15.8-7.9,23.5-14.4c1.7-1.5,3.5-3.1,5.1-4.6c3-2.7,6.1-5.6,9.4-8.1c2.5-1.9,6.3-3,10-3c3.2,0.1,5.8,1.3,7.3,3.6
		s1.7,5.2,0.4,8.3c-1.6,3.9-3.6,8.3-6.7,11.5c-10.3,10.6-21.6,21.6-34.3,33.7c-4,3.8-9.4,5.7-16.5,5.9c-10.1,0.2-17.7-0.9-24.7-3.8
		c-8.8-3.6-16.3-9.7-22.1-18.2c-7.6-11.1-12.2-20.9-14.6-30.9c-0.8-3.3-1.2-6.6-1.6-9.8c-0.3-2.6-0.7-5.1-1.2-7.6
		c-0.7-3.2-1.5-5.2-2.6-5.7c-1-0.6-2.9-0.3-5.6,0.6c-12.9,4.5-23.1,10.4-31.1,17.9c-4.3,4-6.5,8.8-6.8,14.8
		c-0.5,12.7-3.2,25.1-5.7,37.1l-0.9,4.2c-0.9,4.1-1.4,8.4-1.9,12.6c-0.6,5-1.2,10.1-2.4,15.1c-2,8.5-4.9,16.9-7.7,25
		c-0.6,1.8-1.2,3.6-1.8,5.4c-0.4,1.1-0.7,2.2-1.1,3.3c-2,6.1-4.1,12.5-7,18.4l-1.1,2.2c-8.1,16.4-16.4,33.3-28,48.1
		c-11.4,14.6-25.8,22.1-42.9,22.4c-0.4,0.1-0.6,0.1-0.8,0.1c-9.2,0-19-4.4-26.3-11.8c-7.3-7.3-11.3-16.8-11-26c0-1.2,0-2.4-0.1-3.7
		c0-1-0.1-2.1-0.1-3.1v-0.3c0.6-5.3,1-10.7,1.5-15.9c0.7-8.3,1.3-16.9,2.8-25.3c1.1-6.5,3.9-12.7,6.6-18.7l0.4-1
		c8.1-18,19.2-35.4,34.8-54.8c3.3-4,6.9-7.8,10.3-11.5c1.8-2,3.8-4,5.6-6c1.5-1.6,3-3.3,4.4-5c2.1-2.4,4.3-5,6.6-7.4
		c3.6-3.7,7.3-7.4,10.9-11c1.3-1.3,2.6-2.6,4-3.9c4.1-4.1,6.2-9,6.6-15.5c0.3-5.3,0.9-10.6,1.4-15.8s1-10.6,1.4-15.9
		C1325.8,563.8,1325.6,558.9,1324.9,553.2z M1234.3,776.3c0,0.9,0,1.8,0.1,2.7c0.1,1.3,0.1,2.7,0.1,4.1c-0.2,7.6,3.2,15.5,9.3,21.6
		c6.3,6.4,14.7,10.2,22.4,10c15.2-0.3,28.1-7,38.3-20.1c11.2-14.3,19.4-31,27.3-47l1.1-2.2c2.7-5.5,4.8-11.7,6.7-17.6
		c0.4-1.1,0.7-2.2,1.1-3.3c0.6-1.8,1.2-3.6,1.9-5.5c2.7-8,5.5-16.2,7.5-24.5c1.1-4.7,1.7-9.6,2.3-14.4c0.5-4.3,1.1-8.8,2-13.1
		l0.9-4.2c2.5-11.8,5.1-23.9,5.6-36.1c0.3-7.5,3.2-13.9,8.7-19c8.7-8.1,19.6-14.3,33.2-19.1c3.1-1.1,7.2-2.1,10.6-0.2
		c3.5,2,4.8,6.3,5.5,9.8c0.5,2.7,0.9,5.4,1.2,8c0.4,3.2,0.8,6.2,1.5,9.2c2.2,9.3,6.6,18.5,13.8,28.9c5.1,7.5,11.7,12.9,19.4,16
		c6.2,2.5,13,3.5,22.3,3.3c5.6-0.1,9.6-1.5,12.5-4.2c12.7-12,23.8-23,34.1-33.5c2.4-2.5,4.1-6.2,5.5-9.6c0.5-1.2,0.5-2.2,0.1-2.8
		c-0.4-0.5-1.2-0.8-2.4-0.9c-2.3,0-4.8,0.7-6.3,1.8c-3.1,2.3-5.9,4.9-8.9,7.7c-1.7,1.6-3.5,3.2-5.3,4.8
		c-7.9,6.8-15.8,13.1-25.9,15.7c-7.2,1.8-16.3,2.4-22.5-9.5c-4.7-9.1-5.4-18.6-5.4-26.8c-0.1-12,2.7-16,14.1-20.3
		c1-0.4,2-0.7,2.9-1.1c3.7-1.3,7.2-2.5,9.8-4.6c10-7.9,19.5-16.4,28.5-24.5c8-7.2,14.2-15.5,18.5-24.7c4.6-9.6,4.3-17.7-0.9-24.6
		c-2.8-3.7-6.2-7.4-10-10.8c-6.6-5.9-12.5-9.2-18.6-10.6c-9-2-18.5-1.1-28.2,2.9c-14.6,6-24,13.3-29.3,23.1
		c-7.9,14.4-15.6,30.1-18.3,47.9l-0.3,2c-1.7,11.3-2.7,14.4-16.2,15.8c-6.4,0.7-12.8,2.5-19.1,4.2c-2.8,0.8-5.6,1.5-8.5,2.2
		c-4.2,1-6.8-0.1-8.3-1.2c-1.5-1.1-3.2-3.3-3.4-7.6c-0.1-1.8-0.2-3.6-0.3-5.4c-0.3-6.5-0.7-13.3-0.4-20c0.2-5.2,0.9-10.4,1.6-15.4
		c0.4-2.8,0.8-5.7,1.1-8.5c0.6-6.1,0.4-11-3-15.2c-2.8-3.5-7.6-5.6-13.1-5.8c-5.8-0.3-11.5,1.7-14.7,5.1c-5.8,6.1-12,12.8-19,20.6
		c-4.3,4.8-8.5,9.8-12.6,14.6c-1.2,1.4-2.3,2.7-3.5,4.1c-2.4,2.8-4.7,5.6-7,8.4c-4.8,5.8-9.8,11.7-14.9,17.4
		c-4.3,4.8-9,9.3-13.5,13.7c-2,1.9-3.9,3.8-5.9,5.8c-0.9,0.9-1.7,1.8-2.6,2.7c-2.1,2.2-4.2,4.5-6.7,6.4c-3.5,2.7-6.1,2.6-7.7,2
		s-3.8-2.1-4.8-6.3c-2.5-10.3-2.3-19.2,0.4-27.1c2.5-7.4,6.1-14.4,9.6-21.1l1.3-2.6c8.3-16.2,16.4-29.1,29.2-39.1
		c6.9-5.4,14.6-9.7,24.6-4.6c2.5,1.3,5.5,2.3,9.6,3.4c3.6,0.9,4.9,0,5.8-1.1c1.7-2.2,1.7-4.4,0.1-7c-0.8-1.3-1.6-2.2-2.3-2.9
		c-6.1-5.8-14.1-8.8-25.1-9.4c-8.8-0.5-17.5,1.9-26,7.2c-5.4,3.3-10.5,7.3-15.6,11.2l-1.8,1.4c-10.1,7.8-18,17.7-23.4,29.6
		c-6.3,13.9-10,27.5-11.5,41.7c-1.1,10.7-1.6,23.3,2.9,35.6c4.2,11.7,13,18.1,24.1,17.5c11.9-0.6,21.8-4.9,29.6-12.7
		c7.1-7.1,13.3-15.2,17.8-21.5c4.4-6.1,8.6-12.5,12.7-18.7c2-3.1,4.1-6.3,6.1-9.4c1-1.5,2-3,3-4.5c3.3-5,6.7-10.2,10.4-15
		c1.8-2.3,4.2-3.4,6.5-2.7c2.3,0.6,4,2.8,4.3,5.8c0.8,6.3,1,11.4,0.7,16.2c-0.3,5.4-0.9,10.8-1.4,16.1c-0.5,5.1-1,10.4-1.3,15.6
		c-0.5,7.9-3.2,14.3-8.4,19.4c-1.3,1.3-2.6,2.6-4,3.9c-3.6,3.5-7.2,7.2-10.7,10.8c-2.2,2.3-4.3,4.8-6.4,7.2
		c-1.5,1.7-2.9,3.4-4.5,5.1c-1.9,2.1-3.8,4.1-5.7,6.1c-3.4,3.6-6.9,7.3-10,11.2c-15.3,19-26.1,36-34,53.5l-0.4,1
		c-2.5,5.6-5.2,11.4-6.1,17.2c-1.4,8.2-2,16.6-2.7,24.8C1235.3,765.6,1234.9,771,1234.3,776.3z M1268.3,790.7c-1.4,0-2.8-0.3-4-0.8
		c-3.9-1.6-6.6-5.5-8.1-11.5c-0.6-2.5-0.8-5-0.9-7.3c-0.1-0.9-0.1-1.7-0.2-2.5v-0.2v-0.2c1-18,5.8-34.3,14.8-50.1
		c8.7-15.4,20-28.4,28.8-38l1-1.1c3.6-3.9,7.4-8,11.3-11.8c1.1-1,4.4-4.2,8.2-2.4l0.3,0.1l0.2,0.2c3.1,2.2,2.9,5.6,2.8,7.4v0.4
		c-0.6,12.3-3.6,25.1-9.3,40.3c-2.5,6.7-4.6,13.7-6.5,20.5c-1.2,4.1-2.4,8.3-3.7,12.4c-3.4,10.7-8.1,23.2-17,33.9
		c-2.1,2.5-4.9,5.7-8.3,7.8C1274.2,789.7,1271.1,790.7,1268.3,790.7z M1261.1,768.3c0.1,0.8,0.1,1.6,0.2,2.5
		c0.1,2.1,0.3,4.3,0.8,6.3c0.7,2.8,2,6.3,4.5,7.3c2.4,1,5.5-0.4,7.7-1.8c2.7-1.6,5.1-4.3,6.8-6.5c8.2-9.9,12.7-21.7,15.9-31.9
		c1.3-4,2.5-8.2,3.7-12.2c2-6.9,4.1-14.1,6.7-21c5.5-14.6,8.4-26.8,8.9-38.4v-0.4c0-0.8,0-1.3,0-1.7c-0.3,0.2-0.7,0.5-1.3,1.1
		c-3.8,3.7-7.5,7.7-11,11.5l-1,1.1c-8.6,9.4-19.6,22-28,36.9C1266.6,736,1262,751.4,1261.1,768.3z M1457.8,567l-0.7-3
		c0-0.5-0.1-1-0.2-1.6c-0.3-1.6-0.6-3.4,0-5.3c1.7-5.2,3.5-9.6,5.6-13.5c5-9.6,11.5-18.4,19.3-26.3c1.7-1.7,3.4-3.1,5.2-4.2
		c4.3-2.7,7.6-2.2,9.6-1.4c2,0.8,4.6,2.9,5.8,7.8c0.2,1,0.4,1.9,0.6,2.7l0.3,1.2v0.4c-0.4,6.9-3.1,13-8,18.2
		c-9.3,9.9-18.7,17.5-28.9,23.2c-1.5,0.8-3,0.9-4.3,1.3C1461.5,566.6,1458.4,567.9,1457.8,567z M1493.4,517.1c-0.9,0-2,0.4-3.2,1.1
		c-1.4,0.9-2.8,2-4.1,3.3c-7.4,7.4-13.6,15.8-18.2,24.8c-1.9,3.6-3.6,7.8-5.2,12.7c-0.1,0.5-0.2,1.3,0,1.4c0.2,0.2,0.6-0.1,0.8-0.2
		c9.6-5.5,18.6-12.7,27.4-22.1c3.9-4.1,5.9-8.7,6.4-14.1l-0.1-0.4c-0.2-0.7-0.4-1.7-0.6-2.6c-0.5-2-1.3-3.3-2.3-3.7
		C1494,517.2,1493.7,517.1,1493.4,517.1z"/>
	<path class="st1" d="M474.1,734.7c-2.6,0-5.4-0.7-8.1-2.1c-13.6-7.1-22.7-18.6-27-34.4c-0.3-1.1-0.3-2.2-0.3-3.1c0-0.3,0-0.6,0-0.9
		c-0.2-5.2-0.4-10.3-0.6-15.5c-0.4-11.6-0.9-23.6-1.8-35.3c-0.6-8.3-1.7-16.8-2.7-24.9c-0.8-6.5-1.6-13.2-2.3-19.9
		c-0.3-3.5-0.1-7.1,0.1-10.5c0.1-2.2,0.3-4.2,0.3-6.3c0-7.9-0.1-15.9-0.2-23.6c0-2.5-0.1-5-0.1-7.5c0-0.6-0.1-1.1-0.1-1.7
		c-0.1-0.8-0.1-1.6-0.1-2.5c0.1-5.7,0.1-11.4,0.2-17.1c0.1-16.9,0.3-34.4,0.7-51.5c0.1-4.3,0.8-8.5,1.4-12.6c0.3-2,0.7-4.2,0.9-6.2
		c0.1-0.9,0.2-1.7,0.3-2.6c0.4-3.2,0.8-6.3,0.9-9.3c0.2-11.6,2.1-22.9,4.2-33.4c0.9-4.7,1-9.6,1.1-15.1c0.1-5.8,1.5-10.8,4.4-15
		c2.8-4.1,7-6.4,12.6-6.6c1.3-0.1,2.3-0.2,3.5-0.3c1.4-0.2,2.9-0.3,4.8-0.3h0.7c0.6,0,1.3,0,1.5,0h0.2c4.7,0.4,8.6,0.7,13.2,1.5
		c13.3,2.1,17.1,8.9,19.1,20c0.5,2.6,0.6,5.2,0.8,7.7l0.1,1.3c0.6,10.3-1.4,19.9-3.2,27.1c-1.6,6.2-2.4,12.8-3.1,19.2
		c-0.4,3-0.7,6.1-1.2,9.2c-0.5,3.5-1.1,7-1.6,10.5c-0.8,5.1-1.6,10.5-2.3,15.7c-0.6,4-1,8.1-1.5,12c-0.2,1.8-0.4,3.6-0.6,5.3
		l-0.5,3.8c-0.4,3.5-0.8,7-1.2,10.6c-0.1,1.4-0.2,3,0,4.6c0.1,0.9,0.2,1.9,0.4,2.9c0.3,2,0.7,4,0.4,6.2c-0.3,2.5,0.2,4.4,1.3,5.5
		c1.6,1.5,4.7,2.1,9,1.5c3.8-0.5,6.8-2.7,10.5-7.6c1.9-2.6,3.8-5.2,5.6-7.8c3.2-4.4,6.4-9,9.8-13.4c6-7.7,12.2-15.4,18.2-22.9
		c6.9-8.7,14.1-17.7,21-26.6c8.9-11.5,15.8-22.7,21-34.4c1.2-2.8,2.8-5.4,4.3-7.9l0.7-1.2c2.8-4.8,7.9-7.2,13.5-6.5
		c5.3,0.7,10.9,2,16.5,3.9c6.6,2.3,10.2,9.9,8.4,17.8c-1.5,6.7-5.1,12-8.5,17.2c-6.6,9.8-13,20.5-19.1,31.7
		c-5.1,9.3-10.8,16.4-17.9,22.6c-6.4,5.5-12,12.2-17.7,19.1c-4.9,6.1-9.8,12.3-14.6,18.4c-6.1,7.8-12.4,16-19,23.7
		c-6.5,7.8-7.4,15-2.8,23.4c0.4,0.7,0.7,1.4,1,2.1c0.4,0.8,0.7,1.5,1.1,2.2c2.4,4.1,4.9,8.1,7.3,12.2c4.5,7.6,9.2,15.4,13.7,23.2
		c5.1,8.8,12.6,14.7,23,18c7.8,2.5,15.9,4.7,23.7,6.8l5,1.4c4,1.1,9.5,2.6,10.6,8.9c1.1,6.2-1.9,12-8,15.5
		c-6.2,3.6-13.6,4.9-21.9,3.7c-16.4-2.2-32.5-8.3-50.7-19.2c-13.3-7.9-22.5-20.1-30.7-30.9c-3.8-5-7.2-9.3-10.6-13.1
		c-2.3,8.6-2.7,16-1.3,23.2c0.8,3.8,1.2,7.7,1.5,11.5c0.1,1.4,0.3,2.9,0.4,4.3c0.2,2,0.5,4,0.8,5.9c0.7,4.8,1.3,9.8,1.3,14.8
		c0,10.9-0.6,20.5-1.9,29.5c-0.8,5.8-3.3,11.4-5.8,16.6c-1.7,3.5-4.4,5.9-7.8,7C477,734.5,475.6,734.7,474.1,734.7z M466.1,382.3
		L466.1,382.3c-1.6,0-2.8,0.2-4.2,0.3c-1.2,0.1-2.4,0.3-3.9,0.3c-3.6,0.1-6.1,1.4-7.8,3.9c-2.2,3.3-3.3,7-3.4,11.8
		c-0.1,5.8-0.2,11-1.2,16.2c-2,10.3-3.9,21.3-4.1,32.4c0,3.4-0.5,6.8-0.9,10c-0.1,0.9-0.2,1.7-0.3,2.6c-0.3,2.2-0.6,4.3-1,6.4
		c-0.7,4.1-1.3,7.9-1.4,11.7c-0.4,17.1-0.5,34.6-0.7,51.5c-0.1,5.7-0.1,11.4-0.2,17.1c0,0.6,0,1.3,0.1,2c0,0.7,0.1,1.4,0.1,2.1
		c0,2.5,0.1,5,0.1,7.5c0.1,7.8,0.2,15.8,0.2,23.7c0,2.3-0.1,4.5-0.3,6.7c-0.2,3.3-0.4,6.5-0.1,9.5c0.6,6.6,1.4,13.2,2.2,19.7
		c1,8.2,2.1,16.8,2.7,25.2c0.9,11.9,1.4,23.9,1.8,35.6c0.2,5.1,0.4,10.3,0.6,15.4c0,0.4,0,0.8,0,1.3c0,0.6,0,1.1,0.1,1.4
		c3.9,14.1,12,24.4,24,30.7c2.7,1.4,5.5,1.8,7.8,1c1.9-0.6,3.3-2,4.3-4c2.3-4.8,4.6-9.8,5.3-14.7c1.2-8.7,1.8-18.1,1.8-28.7
		c0-4.6-0.6-9.2-1.3-14c-0.3-2-0.6-4-0.8-6.1c-0.2-1.5-0.3-2.9-0.4-4.4c-0.4-3.8-0.7-7.3-1.4-10.9c-1.7-8.1-1.2-16.6,1.4-26.1
		c1-3.5,2.8-4.6,4.2-4.9c1.4-0.3,3.6-0.1,6,2.6c3.5,4,7.1,8.4,10.9,13.6c7.8,10.3,16.6,22,28.9,29.3c17.5,10.4,32.9,16.2,48.4,18.4
		c7.1,1,13,0,18.1-3c3.9-2.3,5.7-5.6,5.1-9.3c-0.4-2.4-2.2-3.1-6.3-4.2l-5-1.4c-7.9-2.1-16-4.3-23.9-6.9
		c-11.7-3.7-20.6-10.7-26.4-20.7c-4.5-7.7-9.2-15.5-13.7-23.1c-2.5-4.1-4.9-8.2-7.3-12.2c-0.5-0.9-1-1.8-1.4-2.7
		c-0.3-0.6-0.6-1.2-0.9-1.8c-5.8-10.6-4.6-20.5,3.5-30.2c6.5-7.7,12.7-15.7,18.8-23.5c4.8-6.1,9.7-12.4,14.7-18.5
		c5.8-7.2,11.7-14.1,18.4-19.9c6.6-5.7,11.8-12.3,16.6-20.9c6.2-11.4,12.7-22.2,19.4-32.2c3.3-4.9,6.4-9.6,7.7-15.2
		c1.1-4.9-0.8-9.5-4.5-10.8c-5.2-1.8-10.4-3-15.3-3.7c-1.9-0.2-5.4-0.1-7.6,3.6l-0.7,1.2c-1.5,2.5-2.9,4.8-4,7.3
		c-5.4,12.1-12.6,23.8-21.8,35.6c-6.9,8.9-14.1,17.9-21.1,26.6c-6,7.5-12.1,15.2-18.1,22.9c-3.3,4.3-6.6,8.8-9.7,13.2
		c-1.8,2.6-3.7,5.3-5.7,7.9c-3.3,4.4-7.5,9.1-14.5,10c-6.2,0.8-11-0.3-13.9-3.2c-2.5-2.4-3.5-5.9-3.1-10.4c0.1-1.4-0.1-2.9-0.4-4.6
		c-0.2-1.1-0.4-2.2-0.5-3.4c-0.2-1.9-0.1-3.8,0-5.6c0.4-3.6,0.8-7.2,1.2-10.7l0.5-3.8c0.2-1.8,0.4-3.5,0.6-5.3
		c0.4-4,0.9-8.1,1.5-12.2c0.7-5.3,1.6-10.6,2.4-15.8c0.5-3.5,1.1-7,1.6-10.4c0.4-3,0.8-6,1.2-9c0.8-6.6,1.6-13.4,3.3-20
		c1.7-6.8,3.6-15.8,3-25.3l-0.1-1.3c-0.1-2.4-0.3-4.7-0.7-6.9c-2-10.5-5-13.7-14.2-15.2c-4.3-0.7-8-1-12.6-1.4c-0.2,0-0.8,0-1.2,0
		C466.6,382.3,466.4,382.3,466.1,382.3z"/>
	<path class="st1" d="M1133.3,378.2c-1.4,0-2.8-0.1-4.2-0.2c-7.9-0.9-15.7-2.7-23.1-5.3c-18.3-6.5-33-12.3-46.1-18
		c-18.2-7.9-34-21.3-47-39.6c-16.1-22.6-27-47.4-32.5-73.7c-0.9-4.2-1.3-8.6-1.6-12.1c-0.1-1.4-0.2-2.7-0.4-3.9v-0.2V225
		c0.3-15.2,4.3-28.7,12.6-42.4c3.6-6,8.2-11.8,13.3-16.9c8.1-8.1,18.8-10.4,30-12.1c7.7-1.2,15.8-2.4,24-2.2
		c16.4,0.3,37.8,2,57.5,12.1c7,3.6,14,6.7,22.5,10.4c0.5,0.2,1.8,0.1,2.4-0.3c1.1-0.6,2.3-1.3,3.4-1.9c11.1-6.4,22.6-13,35.6-16.1
		c10.5-2.5,21.8-4.8,35.5-7.2c10.5-1.8,21.6-0.9,33.8,2.9c12.6,3.9,22.3,11.9,29,23.9c6.6,12,10.5,22.4,12.2,32.7
		c1.4,8.6,1,17.2-1.2,25.6c-0.4,1.7-0.9,3.3-1.3,5c-2.7,10.6-5.6,21.6-9.4,32.1c-5.1,14.2-15.1,25.1-25.2,34.8
		c-11.9,11.4-25,23.3-40.2,32.6c-3.9,2.4-7.8,4.8-11.8,7.2c-13.8,8.5-28,17.3-42.3,25.5C1149.8,375.6,1141.4,378.2,1133.3,378.2z
		 M984.4,224.8c0.1,1.2,0.2,2.5,0.4,3.9c0.3,3.5,0.6,7.5,1.5,11.4c5.4,25.5,16,49.6,31.5,71.5c12.6,17.7,27.1,30,44.6,37.6
		c13,5.7,27.5,11.3,45.7,17.8c6.9,2.5,14.4,4.2,21.8,5c8,0.9,16.5-1.3,26-6.8c14.2-8.2,28.4-17,42.2-25.4c3.9-2.4,7.8-4.8,11.8-7.3
		c14.7-9,27.5-20.6,39.2-31.8c9.5-9.2,19-19.5,23.7-32.5c3.7-10.2,6.5-21.1,9.2-31.6c0.4-1.7,0.9-3.3,1.3-5c2-7.6,2.3-15.4,1.1-23.1
		c-1.6-9.6-5.2-19.4-11.5-30.7c-5.9-10.8-14.3-17.6-25.5-21.1c-11.4-3.5-21.5-4.4-31.1-2.7c-13.6,2.4-24.8,4.7-35.2,7.2
		c-12.2,2.9-23.3,9.3-34,15.5c-1.1,0.7-2.3,1.3-3.4,2c-2.3,1.3-5.5,1.5-7.8,0.6c-8.6-3.7-15.8-6.9-22.9-10.5
		c-18.7-9.6-39.1-11.2-54.9-11.4c-7.6-0.1-15.5,1-22.9,2.1c-10.6,1.7-19.9,3.6-26.7,10.4c-4.7,4.8-9,10.2-12.4,15.8
		C988.4,198.3,984.7,210.8,984.4,224.8z M1129.9,349.8c-1.4,0-2.8-0.1-4.2-0.2c-7.3-0.5-14.3-2.4-22.1-4.7
		c-18.2-5.2-33.5-12.6-46.9-22.4c-10.3-7.6-17.4-15.9-21.7-25.4c-1.8-4-3.7-7.2-7.2-9.6c-3.1-2.1-4.8-5.7-6.4-8.9
		c-0.2-0.5-0.5-1-0.7-1.4c-6.8-13.5-10.3-25.2-11-37c-1-15.8,1.8-27.9,8.8-37.9c10.1-14.5,25.8-21.7,42.9-19.5
		c9.2,1.1,18.9,2.6,28,6.6c4.8,2.1,9.6,4.5,14.1,6.9c1.7,0.9,3.4,1.7,5.1,2.6c0.8,0.4,1.3,0.9,1.8,1.4c0.2,0.2,0.4,0.4,0.6,0.6
		l2.3,2l-6.2,6.6c-3.1,3.3-6.2,6.7-9.3,9.9c-3,3.2-6.1,6.3-9.1,9.5c-6.5,6.8-13.3,13.9-19.8,21c-3.5,3.9-6.4,8.6-9,13
		c-3.2,5.4-2,8.1-0.6,9.9c2.5,3.2,8.6,4.6,13.3,3.1c7.1-2.2,12-7.4,17.2-14.4c7.6-10.3,16.9-18.8,26-27l1.8-1.6
		c3.6-3.2,6.8-6.6,9.7-9.9c2.3-2.7,5.2-5.5,8.9-5.6c3.6-0.1,6.6,2.5,8.8,4.8c1.6,1.6,3.2,3.3,4.8,4.9c5.4,5.5,11,11.2,15.8,17.4
		c2.9,3.8,5.2,8,7.3,12.1c1.7,3.2,3.3,6.1,5.1,8.9c3.1,4.7,6.8,8.8,10.5,11.8c2.6,2.1,5.6,2.8,8.5,1.9c3.1-1,5.6-3.9,6.6-7.6
		c1.8-7,1-13.8-2.3-20.4c-1.6-3.2-3.5-6.5-5.3-9.6c-2-3.5-4-7-5.9-10.7c-5.1-10.2-12.7-18.9-23.9-27.6c-2.3-1.8-4.4-3.8-4.2-6.6
		c0.3-3,3.2-4.6,5.9-6c8.4-4.1,18.4-8.6,29.8-10.9c12-2.3,22.6-2.7,32.3-1c12.8,2.2,21.3,11.3,24.2,25.6c4.5,22.8,0,45-13.5,66.1
		c-3.7,5.8-8.3,11-12.7,16.1c-1.5,1.7-3,3.4-4.4,5.1c-14.9,17.6-33.1,30.4-53.6,44.2C1156,345.2,1142.9,349.8,1129.9,349.8z
		 M1055.3,188.4c-12.8,0-24,6-31.9,17.3c-6.2,9-8.6,19.5-7.7,34.1c0.7,11,4,22,10.4,34.7c0.2,0.5,0.5,1,0.7,1.5
		c1.3,2.7,2.6,5.4,4.4,6.6c4.8,3.4,7.3,7.8,9.2,12c3.9,8.6,10.2,15.9,19.8,23c12.8,9.4,27.6,16.5,45,21.5c7.4,2.1,14.1,3.9,20.9,4.5
		c13,1,26.2-3.1,40.2-12.6c20.2-13.5,38-26.1,52.4-43.1c1.5-1.7,3-3.5,4.5-5.2c4.3-4.9,8.7-10,12.2-15.4
		c12.6-19.8,16.9-40.5,12.6-61.7c-1.6-8.3-6.3-18.6-19.3-20.8c-9-1.5-18.9-1.2-30.2,1c-10.7,2.1-20.3,6.4-28.3,10.3
		c-1.1,0.5-1.7,0.9-2.1,1.2c0.3,0.3,0.7,0.7,1.4,1.2c12,9.2,20.1,18.6,25.6,29.6c1.8,3.5,3.8,7,5.7,10.4c1.8,3.2,3.7,6.5,5.4,9.9
		c4.1,7.9,5,16.2,2.8,24.7c-1.5,5.8-5.4,10.2-10.5,11.8c-4.8,1.6-9.9,0.5-14.1-3s-8.1-7.9-11.7-13.1c-2-3.1-3.8-6.3-5.5-9.5
		c-2.2-4-4.2-7.9-6.8-11.2c-4.6-6-10-11.5-15.3-16.9c-1.6-1.6-3.2-3.3-4.8-4.9c-1.9-1.9-3.3-2.9-4.2-2.9l0,0c-1,0-2.5,1.2-4.5,3.5
		c-3,3.5-6.4,7-10.2,10.4l-1.8,1.6c-9.3,8.4-18,16.3-25.2,26.1c-5.1,6.9-11.1,13.7-20.2,16.6c-7.1,2.2-15.6,0-19.7-5.1
		c-3.7-4.6-3.7-10.2,0.1-16.7c2.6-4.5,5.8-9.7,9.7-14c6.5-7.2,13.3-14.3,19.9-21.1c3-3.2,6.1-6.3,9.1-9.5c3.1-3.3,6.2-6.6,9.3-9.9
		l1.8-1.9c-1.2-0.6-2.4-1.2-3.7-1.8c-4.5-2.3-9.2-4.7-13.9-6.7c-8.4-3.7-17.6-5.1-26.3-6.2C1058.8,188.6,1057,188.4,1055.3,188.4z"
		/>
	<path class="st1" d="M682.9,756.4c-3.7,0-7.2-0.7-10.6-2.2c-8.4-3.6-12-11.1-15-18.4c-3.7-9.1-5.8-19.4-6.3-31.6
		c-0.2-3.6-0.4-7.2-0.7-10.7c-0.1-2.1-0.3-4.3-0.4-6.4c-1-9.1-1.5-18.4-2-27.4c-0.1-2.3-0.3-4.6-0.4-6.9c-0.3-4.6,0.3-9.1,0.8-13.5
		c0.2-1.8,0.5-3.7,0.6-5.5c0.1-1.7,0.3-3.4,0.5-5c0.4-3.2,0.7-6.2,0.8-9.3c0.2-5,0.2-10.2,0.3-15.1c0.1-7.6,0.2-15.5,0.6-23.3
		c0.3-4.7,1.1-9.3,1.8-13.8c0.4-2.6,0.9-5.2,1.2-7.8c1-7.5,2-15.7,2.8-24c0.2-2.3,0.4-4.7,0.7-7c0.9-9.6,1.9-19.5,2.2-29.3
		c0.2-8.2,2.2-16.1,6.3-24.9c3.9-8.3,10.7-12.8,19.8-12.9c5.3-0.1,10.9,0.4,16.9,1.5c9.3,1.7,10.9,8.1,11.2,13.5
		c0.5,8.2-2.2,15.5-4.7,22.5l-0.5,1.5c-4.5,12.6-7.3,25.9-8.4,39.6l-0.2,2.2c-0.1,1.5-0.2,3-0.3,4.4c0.2-0.2,0.3-0.4,0.5-0.6
		c2.4-2.7,4.6-5.2,6.1-8c8.9-16.7,22.3-28.5,39.5-41.1c6.4-4.7,15.1-10.5,25.2-13.9c13.6-4.6,26.5-2.1,39.2,7.4
		c15,11.3,15,26.8,13.6,37.4c-1.6,12.4-4.8,23.2-9.7,33c-1.3,2.7-2.9,5.2-4.3,7.7c-2,3.4-4,6.7-5.4,10.1
		c-5.1,12.2-12.4,23.1-19.5,33.7c-1.8,2.7-3.6,5.4-5.4,8.1c-1.3,2-3.5,4.8-6.6,6.8l-2.8,1.8c-9.2,5.9-18.7,12.1-28.4,17.5
		c-8.8,4.9-17.2,7-25.7,6.3c-4.3-0.3-7.7-2.1-9.5-4.9c-1.2-1.9-2.3-5.3-0.4-10.1c2.9-7.4,9-10.8,15.1-13.7c1.7-0.8,3.3-1.6,5-2.4
		c5.7-2.7,11.7-5.6,17.4-8.6c5.9-3.1,10.2-6.9,12.7-11.5c2.8-5,5.7-9.9,8.6-14.7c6.6-10.9,13.4-22.1,17.8-34.2l0.1-0.3
		c3.7-10,7.2-19.4,7.2-29.7c0-4.1-1.3-7.3-3.8-8.9c-2.5-1.6-6-1.7-9.9,0c-5.9,2.4-10.2,7.2-13.9,11.4c-7.4,8.7-14.5,17.2-20.9,26.1
		c-3.2,4.5-6,9.5-8.7,14.4c-1.5,2.7-3.1,5.5-4.7,8.2c-1.1,1.8-2.3,3.6-3.4,5.3c-1.7,2.5-3.3,4.9-4.6,7.5c-2,3.9-3.6,8.1-5.2,12.2
		c-0.6,1.6-1.3,3.2-1.9,4.8c-6.1,15-10.4,31-14.5,46.5c-0.5,2.1-1.1,4.1-1.6,6.2c-3.3,12.4-4.4,24.8-3.3,36.8
		c0.6,6.4,2,12.9,3.4,19.2c0.6,2.8,1.3,5.8,1.9,8.7c0.3,1.7,0.7,3.5,1.1,5.2c0.9,4,1.8,8.1,2.2,12.3c0.7,8.1-3.1,14.3-10.1,16.4
		C689.1,755.9,685.9,756.4,682.9,756.4z M686.8,467.3c-0.3,0-0.6,0-0.9,0c-6.8,0.1-11.5,3.2-14.4,9.5c-3.7,8-5.6,15.1-5.8,22.5
		c-0.3,9.9-1.2,20-2.2,29.7c-0.2,2.3-0.5,4.7-0.7,7c-0.8,8.4-1.8,16.6-2.8,24.2c-0.4,2.7-0.8,5.4-1.3,8.1c-0.8,4.5-1.5,8.8-1.8,13.1
		c-0.4,7.6-0.5,15.5-0.6,23c-0.1,5-0.1,10.2-0.3,15.2c-0.1,3.3-0.5,6.6-0.8,9.8c-0.2,1.6-0.4,3.3-0.5,4.9c-0.2,1.9-0.4,3.8-0.6,5.7
		c-0.5,4.3-1,8.4-0.8,12.4c0.1,2.3,0.3,4.6,0.4,6.9c0.5,8.9,1,18.2,2,27.2v0.1c0.1,2.1,0.3,4.3,0.4,6.4c0.2,3.6,0.5,7.2,0.7,10.9
		c0.6,11.5,2.5,21.2,5.9,29.6c2.6,6.4,5.5,12.4,11.8,15.2c4.8,2.1,10.1,2.2,15.9,0.5c5.7-1.7,6.1-7.1,5.9-10.2
		c-0.3-3.8-1.2-7.6-2.1-11.5c-0.4-1.7-0.8-3.5-1.1-5.3c-0.6-2.8-1.2-5.7-1.8-8.6c-1.4-6.5-2.9-13.2-3.6-19.9
		c-1.2-12.7,0-25.8,3.5-38.9c0.5-2,1.1-4.1,1.6-6.1c4.2-15.7,8.4-31.8,14.7-47.2c0.6-1.6,1.3-3.1,1.9-4.7c1.7-4.2,3.4-8.5,5.5-12.7
		c1.5-2.9,3.3-5.6,5-8.1c1.2-1.7,2.2-3.3,3.2-5c1.6-2.6,3.1-5.4,4.6-8.1c2.8-5,5.7-10.2,9.1-15c6.5-9.1,13.7-17.7,21.2-26.5
		c4.1-4.8,9-10.1,16.1-13.1c5.8-2.4,11.3-2.2,15.5,0.6c4.1,2.8,6.4,7.7,6.4,13.8c0,11.4-3.8,21.8-7.6,31.8l-0.1,0.3
		c-4.7,12.6-11.6,24.1-18.3,35.2c-2.9,4.7-5.8,9.6-8.5,14.5c-3.1,5.6-8.2,10.3-15.2,13.9c-5.8,3-11.8,5.9-17.6,8.6
		c-1.7,0.8-3.3,1.6-5,2.4c-5.2,2.5-10,5.2-12.1,10.5c-0.5,1.4-1,3.4-0.1,4.8c0.7,1.2,2.5,2,4.9,2.1c7.3,0.6,14.6-1.2,22.3-5.6
		c9.6-5.3,19-11.4,28.1-17.3l2.9-1.8c1.7-1.1,3.4-2.9,4.8-5c1.8-2.7,3.6-5.5,5.4-8.2c6.9-10.3,14.1-21,19-32.7
		c1.6-3.8,3.7-7.4,5.8-10.9c1.4-2.4,2.9-4.9,4.1-7.3c4.6-9.2,7.6-19.4,9.1-31.1c1.9-14.7-1.6-24.5-11.2-31.8
		c-11.2-8.4-21.9-10.5-33.7-6.5c-9.4,3.2-17.5,8.6-23.6,13.1c-16.6,12.1-29.3,23.4-37.7,39c-1.8,3.4-4.4,6.3-6.9,9.1
		c-0.9,1.1-1.8,2.1-2.7,3.1c-1.9,2.3-3.9,2.4-5.2,2.1l-0.3-0.1l-0.3-0.1c-2-0.9-2.9-2.6-2.7-5.1v-0.2c0.1-2.7,0.3-5.4,0.5-8l0.2-2.2
		c1.1-14.2,4-28.1,8.7-41.2l0.5-1.5c2.4-6.8,4.7-13.1,4.3-20.1c-0.3-5.2-1.8-7.2-6.3-8C696.5,467.8,691.4,467.3,686.8,467.3z"/>
	<path class="st1" d="M1778.8,708.7c-0.7,0-1.3,0-2-0.1c-7.8-0.4-15.1-3.5-22.4-9.3c-2.5-2-5.1-4.2-7.6-6.2
		c-1.4-1.2-2.9-2.4-4.3-3.5c-3.7-3-6.4-6.8-8.1-11.5c-4.8-12.6-6.7-24.5-6.1-36.4l0.1-2.1c0.6-10.3,1.1-21,1.3-31.5
		c0-2.6-0.3-5.2-0.6-7.9c-0.4-3-0.7-6.1-0.7-9.2c0.2-7.7,1.1-15.3,2.2-23.7l0.4-3.4c1-8.2,2.1-16.6,3.9-24.8
		c1.5-6.7,3.4-13.3,5.2-19.7c1.1-3.8,2.2-7.8,3.3-11.7c1.3-4.8,2.5-9.7,3.6-14.5c2-8,4-16.2,6.3-24.2c1.6-5.6,4.3-11.3,7.6-16.6
		c3.9-6.2,8.2-7.2,21.7-7.6h0.3h0.3c0.7,0.1,1.6,0.2,2.6,0.3c2.7,0.3,6.4,0.7,9.9,1.5c9.3,2,14.5,10.5,12.6,20.7
		c-0.9,4.8-1.8,9.6-2.6,14.4c-2.5,13.8-5.1,28-7.6,42c-1.2,7.2-2.2,14.7-3.2,21.9c-0.2,1.8-0.5,3.6-0.7,5.3c-0.7,5,0.8,7.4,5.7,9.1
		l0.4,0.1c2.9,1,5.9,2.1,8.9,2.7c8.8,1.9,16.1,5.7,22.3,11.7c2.6,2.5,5.5,5,8.2,7.4c2.1,1.8,4.2,3.7,6.3,5.6
		c9.7,9,12.5,19.5,8.3,31.2c-1.8,5-3.6,10.2-5.3,15.1c-1.5,4.5-3.1,9.2-4.8,13.7c-3.6,10-10,18.1-16.9,26.3
		c-6.4,7.6-13.4,15.1-20.9,22.5C1798.1,704.5,1788.8,708.7,1778.8,708.7z M1782.6,450.6c-13.2,0.4-14.4,1.5-16.5,4.9
		c-3.1,4.8-5.5,10-6.9,15.1c-2.3,7.9-4.3,16.1-6.3,24c-1.2,4.8-2.4,9.7-3.7,14.6c-1,4-2.2,8-3.3,11.8c-1.8,6.3-3.7,12.8-5.1,19.3
		c-1.7,7.9-2.8,16.3-3.8,24.3l-0.4,3.5c-1,8.2-1.9,15.6-2.1,23.1c-0.1,2.7,0.3,5.4,0.6,8.3c0.3,2.8,0.7,5.8,0.7,8.7
		c-0.1,10.6-0.7,21.3-1.3,31.7l-0.1,2.1c-0.6,11,1.3,22.1,5.7,33.9c1.4,3.7,3.5,6.6,6.3,9c1.4,1.2,2.9,2.4,4.3,3.6
		c2.5,2.1,5,4.1,7.5,6.1c6.2,5,12.4,7.6,19,8c9.1,0.5,17.4-3,25.2-10.6c7.4-7.2,14.3-14.6,20.5-22c6.8-8,12.6-15.4,15.8-24.4
		c1.6-4.5,3.2-9.2,4.7-13.7c1.7-5,3.5-10.2,5.3-15.2c3.4-9.5,1.3-17.3-6.7-24.7c-2-1.8-4.1-3.7-6.1-5.5c-2.8-2.4-5.7-5-8.4-7.6
		c-5.4-5.2-11.7-8.5-19.4-10.2c-3.3-0.7-6.5-1.8-9.6-2.9l-0.4-0.1c-7.5-2.6-10.7-7.7-9.6-15.6c0.2-1.8,0.5-3.6,0.7-5.3
		c0.9-7.3,1.9-14.7,3.2-22.1c2.4-14.1,5-28.3,7.6-42.1c0.9-4.8,1.8-9.6,2.6-14.4c1.3-7.1-1.8-12.5-8-13.8c-3.3-0.7-6.7-1.1-9.4-1.4
		C1784.2,450.8,1783.3,450.7,1782.6,450.6z M1790.2,669.6c-0.6,0-1.3-0.1-1.9-0.3c-2-0.6-4.7-2.4-6.1-8l-0.3-1
		c-0.4-1.7-0.9-3.4-1.1-5.3c-0.2-2.5-0.4-5-0.4-7.4v-0.3c0.2-1.9,0.4-3.9,0.6-5.8c0.5-4.3,0.9-8.6,1-12.9c0-3.7-0.3-7.3-0.7-11.2
		c-0.2-1.9-0.4-3.8-0.5-5.7c-0.1-1.5-0.1-2.9,0-4.1c0.2-3.6,1.8-6.8,4.4-8.6c2.7-1.9,6.1-2.3,9.5-1.3c8.3,2.5,12.4,9.3,16,15.3
		c11,18.4,4.5,31.7-4.2,43.3c-2.8,3.8-6.1,7-8.7,9.5C1795.2,668.3,1792.7,669.6,1790.2,669.6z M1786.4,647.8c0,2.2,0.2,4.4,0.4,6.8
		c0.1,1.4,0.5,2.8,0.9,4.3l0.3,1c0.7,2.6,1.6,3.5,2,3.7c0.4,0.1,1.7-0.2,3.7-2.1c2.4-2.3,5.4-5.3,8-8.7c8.8-11.8,12.6-22.1,3.9-36.6
		c-3.3-5.6-6.5-10.8-12.6-12.7c-1.7-0.5-3.2-0.3-4.3,0.4c-1.1,0.8-1.8,2.2-1.9,4c0,1.1-0.1,2.3,0,3.4c0.1,1.8,0.3,3.7,0.5,5.5
		c0.4,3.9,0.8,7.9,0.7,11.9c-0.1,4.5-0.5,9.1-1,13.5C1786.8,644.1,1786.6,645.9,1786.4,647.8z"/>
	<path class="st1" d="M1652.9,732.8c-4.9,0-10.1-2-14.5-5.6c-5.3-4.3-8.5-10.3-8.7-16c0-1.3,0-2.7,0-3.9c0-0.6,0-1.2,0-1.8v-0.4
		c1-8,2.1-17.5,2.7-26.9c0.4-7,0.4-14.2,0.4-21.1c0-2.8,0-5.5,0-8.3c0-1.3,0-2.6-0.1-4c0-1.5-0.1-3.1-0.1-4.7
		c0.1-3.6,0.2-7.2,0.3-10.8c0.3-7.5,0.5-15.3,0.2-22.8c-0.2-4.2-1.1-8.4-2.1-12.9c-0.5-2.4-1.1-4.8-1.5-7.3
		c-0.3-1.5-0.5-2.9-0.8-4.4c-0.9-4.9-1.8-10-2.1-15.1c-0.4-6.9-0.5-13.9-0.6-20.6c-0.1-5.4-0.2-11.1-0.4-16.6
		c-0.1-3.4-0.8-7.1-2-11.4c-0.4-1.5-1-2-1.1-2.1c-0.1,0-0.8,0.3-1.7,1.5c-2.8,3.8-5.5,8.1-8,12.9c-4.7,9.1-6.6,18.9-8,30.9
		c-1.1,9.4-3.2,18.5-6.2,27.1c-2.8,7.8-4.9,16.1-6.4,25.5c-2.2,13.5-4.2,23.8-6.6,33.5c-1.2,5-3.4,10.2-6.8,16
		c-1.8,3.1-6.8,4.4-9.6,4.2c-8.8-0.6-15-5-17.9-12.6c-0.7-1.9-0.9-4.4-0.3-6.8c0.9-4,1.9-8,2.9-11.8c1.5-6.1,3-12.3,4.3-18.5
		c0.7-3.5,1-7,1.4-10.7c0.3-2.9,0.6-5.9,1-8.8c1.8-11.4,6.1-22.1,10.2-32.5l1.2-2.9c1.6-4,2.9-8.2,4.2-12.2
		c1.4-4.3,2.9-8.8,4.6-13.1c3.9-9.6,8.2-19.9,13.5-29.8c5.7-10.8,12.1-21.4,19-31.6c9.5-14.1,23.4-20.9,40.1-19.7
		c8.5,0.6,20.7,2.9,27.7,14.9c4.4,7.6,4,15.6,3.5,23.3v0.7c-0.5,8.1-1.1,16.4-1.8,24.3c-0.4,4.6-0.7,9.2-1.1,13.8
		c-0.2,2.8-0.3,5.6-0.5,8.4c-0.1,1.9-0.2,3.9-0.3,5.8c-0.2,2.7-0.3,5.4-0.5,8c-0.4,5.6-0.8,11.4-0.9,17.1c0,2.5,0.3,5,0.7,7.6
		c0.3,2,0.6,4.1,0.7,6.3c0.4,8.1,0.7,15.6,0.7,22.8c0,3.5-0.2,7-0.4,10.4c-0.1,2-0.2,4.1-0.3,6.2c-0.2,5.9-0.4,11.7-0.6,17.6
		c-0.3,9.7-0.6,19.8-1,29.7c-0.7,18.1-5.2,34.9-13.2,50c-1.7,3.3-4.8,7.8-11,8.9C1654.7,732.7,1653.8,732.8,1652.9,732.8z
		 M1635.7,705.7c0,0.6,0,1.1,0,1.7c0,1.3,0,2.5,0,3.7c0.1,4,2.5,8.3,6.5,11.5c3.9,3.2,8.6,4.7,12.5,4.1c2.9-0.5,4.8-2.1,6.7-5.7
		c7.6-14.3,11.8-30.3,12.5-47.4c0.4-9.9,0.7-19.9,1-29.6c0.2-5.9,0.4-11.7,0.6-17.6c0.1-2.1,0.2-4.2,0.3-6.3
		c0.2-3.3,0.4-6.7,0.4-10.1c0-7.1-0.2-14.5-0.7-22.5c-0.1-1.9-0.4-3.8-0.6-5.8c-0.4-2.8-0.8-5.6-0.7-8.5c0.1-5.8,0.5-11.7,0.9-17.4
		c0.2-2.7,0.4-5.3,0.5-8c0.1-1.9,0.2-3.8,0.3-5.7c0.1-2.8,0.3-5.7,0.5-8.5c0.3-4.6,0.7-9.2,1.1-13.8c0.6-7.9,1.3-16.1,1.8-24.2v-0.7
		c0.4-7.1,0.8-13.8-2.7-19.9c-4.3-7.4-11.4-11.1-23-12c-14.7-1.1-26.4,4.7-34.7,17c-6.8,10-13.1,20.5-18.7,31
		c-5.2,9.7-9.4,19.8-13.2,29.2c-1.7,4.1-3.1,8.5-4.5,12.7c-1.3,4.1-2.7,8.4-4.4,12.6l-1.2,2.9c-4,10-8.2,20.4-9.9,31.2
		c-0.4,2.8-0.7,5.7-1,8.4c-0.4,3.7-0.7,7.5-1.5,11.3c-1.3,6.3-2.8,12.7-4.4,18.8c-1,3.9-1.9,7.8-2.8,11.8c-0.3,1.2-0.2,2.5,0.1,3.3
		c2.1,5.4,6.4,8.3,12.7,8.8c1.4,0.1,3.6-0.7,4-1.3c3-5.2,5-9.9,6.1-14.3c2.3-9.6,4.3-19.8,6.5-33.1c1.6-9.7,3.8-18.3,6.7-26.5
		c2.9-8.2,4.9-16.9,5.9-25.8c1.5-12.7,3.5-23.1,8.6-33c2.6-5,5.5-9.6,8.5-13.7c3-4,6.1-4.1,7.6-3.9c1.6,0.3,4.4,1.5,5.8,6.4
		c1.3,4.8,2.1,8.9,2.2,12.8c0.2,5.6,0.3,11.2,0.4,16.7c0.1,6.7,0.2,13.6,0.6,20.4c0.2,4.7,1.1,9.6,2,14.3c0.3,1.5,0.5,3,0.8,4.5
		c0.4,2.3,0.9,4.7,1.4,7c1,4.5,2,9.2,2.2,14c0.3,7.8,0,15.7-0.2,23.3c-0.1,3.5-0.2,7.1-0.3,10.7c0,1.4,0,2.9,0.1,4.4
		c0,1.4,0.1,2.8,0.1,4.2c0,2.7,0,5.5,0,8.2c0,7,0,14.3-0.5,21.5C1637.8,688.1,1636.7,697.6,1635.7,705.7z"/>
	<path class="st1" d="M1184.6,697.3c-0.1,0-0.3,0-0.4,0c-16.6,0-29.8-3.9-40.2-11.9c-18.8-14.3-28.6-29.9-30.8-49
		c-0.6-5.1-1.9-10.4-3.1-15.5c-0.8-3.4-1.7-7-2.3-10.6c-1.3-6.9-2.1-13.9-2.7-19.8c-0.5-5-2.5-6.9-6.8-6.9
		c-20.4,0.3-35.7,1.9-49.8,5.3c-2.3,0.6-4.5,1.4-7,2.4c-1.3,0.5-2.8,1.5-2.9,4.6c0,1.6,0,3.1,0,4.8c0,1.1,0,2.3,0,3.4v0.2
		c-0.1,1.3-0.2,2.6-0.3,3.9c-0.3,3.6-0.5,7.3-0.5,10.8c0,4.2,0.6,8.5,1.2,12.7l0.1,0.7c0.7,4.9-1,9.3-4.4,11.9
		c-4.1,3.1-8.8,5.7-13.5,7.3c-3.3,1.1-6.9,0.8-10-1c-4.1-2.3-7.1-6.9-8.3-12.4c-2-9.6-3.2-19.2-3.9-26.5c-0.9-8.6-1.4-17.1-1.4-25.3
		c0-3.7,0.3-7.4,0.7-11c0.3-2.8,0.5-5.7,0.6-8.5c0.1-3.7,0.1-7.4,0-11c-0.1-4.6-0.1-9.4,0.1-14.1c0.3-5.7,1-11.4,1.7-16.9
		c0.2-1.8,0.5-3.7,0.7-5.5c0.6-4.8,1.2-9.9,2.1-14.9c0.3-1.9,1.5-4.6,3.5-5.8c9.8-5.7,18.2-7.2,26.7-4.5c6.9,2.2,10.5,7.4,10,14.8
		c-0.4,5.7-0.9,11.5-1.5,17c-0.4,4.2-0.8,8.5-1.2,12.8l-0.2,2.3c-0.5,5.5-0.9,11.3-0.7,16.8c0.1,2.3,0.7,3.8,1.8,4.8
		c1.5,1.3,4.3,1.9,8.4,1.6c5.6-0.4,11.7-1,19.5-2c1.9-0.3,3.8-0.5,5.8-0.7c8.9-1.1,18.1-2.3,27-4c5.5-1,5.9-1.6,6.4-8.4
		c0.4-5.7,1-11.4,1.6-16.9c0.4-3.9,0.8-7.8,1.2-11.8c0.8-8.6,1.7-18.4-0.4-27.8c-0.6-2.7-0.6-5.7-0.1-8.6
		c1.3-7.4,5.9-11.3,12.6-10.5c1.2,0.1,2.4,0.2,3.5,0.3c2.9,0.3,6,0.5,9,1.2c11.7,2.6,18.9,10.6,20.2,22.4c0.4,3.7,0.5,7.5,0.6,11.1
		c0.1,2.3,0.1,4.7,0.3,7c0.2,3.2,0.5,6.5,0.8,9.7c0.6,6.3,1.2,12.7,1.1,19.2c0,10.8-0.8,19.4-2.6,27c-3.1,13.6-3.2,27-0.4,41
		c0.4,2.2,0.8,4.5,1.2,6.8c1.1,6.1,2.2,12.5,4.2,18.3c6.1,17.6,18.9,28.3,38,31.7c2.1,0.4,4.4,0.3,6.8,0.2c1.2,0,2.4-0.1,3.6-0.1
		c0.9,0,1.7,0,2.6,0c1.2,0,2.3,0,3.5,0c8.7,0.1,11.5,3.6,12.3,6.6c1.1,4-2.2,11.6-7.1,13.9c-5.5,2.5-10.9,4.9-16.7,6
		C1199,696.7,1192.4,697.3,1184.6,697.3z M1098.5,577c5.2,0,11.4,2.7,12.5,12.8c0.6,5.8,1.4,12.6,2.7,19.3c0.6,3.4,1.5,6.9,2.3,10.3
		c1.2,5.2,2.5,10.7,3.2,16.1c2.1,17.4,11.1,31.6,28.5,44.9c9.4,7.2,21.4,10.7,36.6,10.7c7.5,0,14-0.5,19.5-1.6
		c5.1-1,10.2-3.2,15.3-5.6c2.2-1,4.1-5.6,3.8-6.9c-0.5-1.9-4.8-2.2-6.6-2.2c-1.1,0-2.3,0-3.4,0c-0.9,0-1.7,0-2.6,0
		c-1.1,0-2.2,0-3.3,0.1c-2.6,0.1-5.4,0.2-8.1-0.3c-21.5-3.8-35.8-15.8-42.6-35.6c-2.1-6.2-3.3-12.8-4.4-19.2
		c-0.4-2.2-0.8-4.4-1.2-6.6c-2.9-14.8-2.8-29.1,0.5-43.5c1.6-7.1,2.4-15.3,2.4-25.7c0-6.2-0.6-12.5-1.1-18.6
		c-0.3-3.2-0.6-6.6-0.8-9.9c-0.2-2.4-0.2-4.8-0.3-7.2c-0.1-3.5-0.2-7.1-0.6-10.6c-1.1-9.4-6.3-15.2-15.6-17.3
		c-2.6-0.6-5.3-0.8-8.2-1.1c-1.2-0.1-2.5-0.2-3.7-0.4c-2.4-0.3-5.1,0.2-6,5.6c-0.4,2.1-0.4,4.4,0.1,6.3c2.2,10.3,1.3,20.6,0.5,29.6
		c-0.4,4-0.8,8-1.2,11.9c-0.6,5.5-1.2,11.1-1.6,16.7c-0.6,8.2-1.9,12.2-11.3,13.9c-9.1,1.7-18.3,2.9-27.3,4
		c-1.9,0.2-3.8,0.5-5.7,0.7c-8,1-14.1,1.7-19.9,2.1c-5.8,0.4-10-0.6-12.8-3.1c-2.3-2.1-3.6-5.1-3.8-9c-0.3-5.9,0.2-11.8,0.7-17.5
		l0.2-2.3c0.3-4.3,0.8-8.7,1.2-12.9c0.5-5.5,1.1-11.2,1.5-16.8c0.3-4.6-1.6-7.3-5.8-8.7c-6.7-2.1-13.6-0.8-21.8,3.9
		c-0.2,0.2-0.6,1-0.7,1.7c-0.8,4.6-1.4,9.2-2.1,14.6c-0.2,1.9-0.5,3.7-0.7,5.6c-0.7,5.4-1.4,11-1.7,16.5c-0.2,4.5-0.2,9.2-0.1,13.7
		c0,3.7,0.1,7.5,0,11.3c-0.1,3-0.4,6-0.6,8.9c-0.3,3.6-0.6,7-0.6,10.4c0.1,8,0.5,16.3,1.4,24.7c0.7,7.1,1.8,16.5,3.8,25.8
		c0.8,3.9,2.8,7,5.4,8.5c1.6,0.9,3.4,1.1,5.1,0.5c4.1-1.4,8.2-3.6,11.8-6.4c1.7-1.3,2.5-3.6,2.1-6.3l-0.1-0.7
		c-0.6-4.4-1.2-8.9-1.3-13.5c0-3.8,0.2-7.6,0.5-11.4c0.1-1.2,0.2-2.5,0.3-3.7c0-1.1,0-2.1,0-3.2c0-1.7-0.1-3.4,0-5.1
		c0.1-4.9,2.5-8.4,6.7-10.1c2.6-1,5.1-2,7.8-2.6C1061.8,579,1077.7,577.3,1098.5,577z M1010.1,503.7L1010.1,503.7L1010.1,503.7z"/>
	<path class="st1" d="M897.4,679.1c-11.2,0-21.3-3.1-30.1-9.4c-12.5-8.9-20.3-21.7-22.6-37.2c-0.8-5.2-0.4-10.5-0.1-15.6
		c0.2-2.6,0.3-5.3,0.4-7.8c0-2.8-0.2-5.5-0.7-8c-0.3-0.2-0.7-0.3-1-0.4c-5.4-1.4-10.2-5.6-12.7-11.1c-2.4-5.3-2.3-11,0.2-15.7
		c1.7-3.2,6.2-4.9,9.6-5.5c2.9-0.5,4.3-1.5,5.2-3.9c0.9-2.3,1.8-4.6,2.7-6.8c1.5-3.8,3.1-7.7,4.5-11.5c5.6-15.5,13.2-30,22.7-42.9
		c9.4-12.8,20-20.5,32.3-23.4c1.4-0.3,2.7-0.4,4-0.5c0.6,0,1.2-0.1,1.9-0.2h0.4l0.4,0.1c0.6,0.1,1.2,0.1,1.8,0.2
		c1.7,0.1,3.6,0.3,5.5,1c3.4,1.2,6.9,2.3,10.4,3.4c8.6,2.6,17.4,5.3,25.2,10.8c7.7,5.5,12.1,11.8,13.6,19.5
		c1.2,6.2,0.1,12.5-3.1,18.3c-3.4,6.2-8.1,14.1-14.3,20.8c-4.7,5.1-10.2,9.6-15.4,14c-2.2,1.8-4.5,3.7-6.6,5.6
		c-1.3,1.1-2.5,2.3-3.7,3.4c-3,2.8-6.2,5.7-9.7,8c-3.9,2.6-8.3,4.4-12.5,6.1l-1.8,0.7c-10.4,4.2-14.6,10.3-14.4,20.9
		c0,1.4,0,2.7,0,4.1c0,6.9,0.1,13.5,2,19.9c1.4,4.7,3.7,7.8,6.7,9.4c2.9,1.5,6.7,1.6,11.1,0.3c8.2-2.5,15.8-7.5,23.4-15.1
		c4.4-4.5,8.7-9.3,12.8-14.1c3-3.5,6.2-7.1,9.4-10.6c3.3-3.6,7.2-6.7,11.2-9.1c2.9-1.8,7.8,0,9.8,1.9c1.9,1.9,3.8,6.6,2.4,9.6
		c-0.9,1.8-1.7,3.6-2.5,5.4c-3.5,7.7-7.2,15.8-13.4,22.5c-4.7,5-9.1,10.4-13.5,15.6c-2.2,2.7-4.5,5.5-6.9,8.2
		c-7.7,9-17.5,14.9-29,17.5C907.5,678.5,902.3,679.1,897.4,679.1z M914,485.1c-0.6,0.1-1.2,0.1-1.7,0.1c-1.2,0.1-2.2,0.2-3.1,0.4
		c-10.9,2.6-20.3,9.5-28.8,21.1c-9.2,12.5-16.6,26.5-21.9,41.4c-1.4,4-3,7.9-4.6,11.8c-0.9,2.2-1.8,4.5-2.7,6.7
		c-1.7,4.4-4.8,6.8-9.9,7.6c-2.7,0.4-4.9,1.7-5.2,2.4c-1.6,3-1.6,6.8,0,10.5c1.7,3.9,5,6.8,8.7,7.7c0.5,0.1,4.7,1.3,5.3,4.4
		c0.6,3.1,0.9,6.4,0.9,9.9c0,2.7-0.2,5.5-0.4,8.2c-0.3,5-0.6,9.8,0,14.4c2,13.8,9,25.2,20.1,33.1c11.4,8.1,24.7,10.3,40.8,6.6
		c10.3-2.3,19-7.6,25.8-15.6c2.3-2.7,4.6-5.4,6.8-8.1c4.4-5.3,8.9-10.7,13.7-15.9c5.6-6,8.9-13.2,12.4-20.9c0.8-1.8,1.6-3.6,2.5-5.4
		c0.1-0.7-0.5-2.3-1.1-2.9c-0.4-0.4-2-0.9-2.7-0.9c-3.5,2.1-6.8,4.9-9.7,7.9c-3.2,3.4-6.3,7-9.3,10.4c-4.2,4.8-8.5,9.8-13,14.4
		c-8.3,8.3-16.8,13.7-25.9,16.6c-6,1.9-11.2,1.6-15.6-0.7c-4.5-2.4-7.7-6.7-9.7-13c-2.2-7.3-2.3-14.6-2.3-21.6c0-1.3,0-2.7,0-4
		c-0.2-13,5.6-21.4,18.2-26.5l1.8-0.7c3.9-1.6,8-3.2,11.4-5.5c3.1-2.1,6-4.7,9-7.4c1.3-1.1,2.5-2.3,3.9-3.5c2.2-1.9,4.5-3.8,6.7-5.7
		c5.1-4.2,10.4-8.6,14.9-13.4c5.8-6.2,10.2-13.8,13.5-19.6c1.8-3.2,3.6-8.2,2.5-14.2c-1.2-6.1-4.7-11.1-11.2-15.7
		c-7-5-15-7.4-23.5-10c-3.5-1.1-7.2-2.2-10.7-3.5c-1.1-0.4-2.5-0.5-3.9-0.7C915.2,485.2,914.6,485.2,914,485.1z M893.2,566.1
		c-1,0-2-0.2-2.7-0.8l-0.5-0.4l-0.3-0.6c-1-2.1-0.7-5.1-0.4-6.5c1.7-7.9,5.7-15.3,12.4-23.5c1.3-1.6,2.7-3.3,3.9-4.9
		c1.9-2.4,3.9-4.9,6-7.3c2.3-2.6,4.6-4.7,6.9-6.3c4.1-2.8,7.5-2.5,9.6-1.8c3,1,5.4,3.7,6.6,7.6c0.4,1.4,0.7,2.7,1,4
		c0.1,0.5,0.2,1.1,0.4,1.6v0.2c0.6,3.8-3,10.5-5.7,13.5c-8.4,9.1-19,17-32.4,24.2C897.5,565.3,895.3,566.1,893.2,566.1z
		 M925.1,519.5c-1.2,0-2.4,0.6-3.3,1.2c-1.9,1.3-3.8,3-5.7,5.2c-2,2.3-3.9,4.8-5.8,7.1c-1.3,1.7-2.7,3.4-4,5
		c-6.1,7.4-9.6,14.1-11.2,21c0,0.2-0.1,0.4-0.1,0.7c0,0,0,0,0.1,0c12.8-6.9,22.9-14.4,30.8-22.9c2.3-2.5,4.2-7.2,4.2-8.5
		c-0.1-0.5-0.2-1-0.3-1.6c-0.3-1.2-0.5-2.3-0.8-3.4c-0.7-2-1.7-3.3-2.9-3.8C925.8,519.5,925.5,519.5,925.1,519.5z"/>
	<path class="st1" d="M1632.9,322.7L1632.9,322.7c-11.2,0-21.6-3.2-31.3-6.4c-11-3.6-22-7.5-32.7-11.3c-9.5-3.3-19.3-6.8-29-10.1
		c-3-1-6.1-1.6-9.5-2.3c-3.1-0.6-6.2-1.2-9.3-2.2c-4.2-1.3-8.4-2.9-12.5-4.4c-4-1.5-8.1-3.1-12.1-4.3c-8.2-2.5-16.6-4.8-24.8-6.9
		l-4.9-1.3c-2.2-0.6-4.4-1.2-6.7-1.8c-7.8-2.1-15.9-4.3-23.9-5.9c-5.5-1.1-11.2-1.8-16.7-2.4c-2.9-0.3-6-0.7-9-1.1
		c-3.3-0.5-6.6-1-9.8-1.5c-3.8-0.6-7.7-1.2-11.5-1.7c-5.6-0.8-11.4-1.4-17.7-2c-11.6-1.1-24.1-2.7-36.2-6.7
		c-0.4-0.1-1.1-0.3-1.7-0.9c-0.6-0.5-1.3-1.1-2.1-1.6c-2.2-1.5-4.6-3.3-5.4-6.1c-0.9-3.1-0.7-7.8,5.6-13.1c7.5-6.2,16.2-6.5,23-6
		c5.5,0.4,11.1,1.1,16.4,1.8l2.6,0.3c9.6,1.2,19.2,2.5,28.9,3.9c2.2,0.3,4.4,0.6,6.6,0.9c6.2,0.8,12.7,1.7,19,2.8l0.7,0.1
		c12,2.1,24.3,4.2,36.4,7c25,5.7,51.7,11.9,78.1,18.6c18.3,4.7,36.8,11.2,56.7,20.1c6.3,2.8,12.9,5.2,19.3,7.5
		c5.1,1.8,10.4,3.7,15.5,5.9c5,2.1,9.7,5,14.2,7.8l1.6,1c5.5,3.4,7.9,8.7,6.3,14.1c-1.5,5.3-6.7,6.2-10.1,6.8
		c-0.4,0.1-0.8,0.1-1.2,0.2c-3,0.6-6,0.8-8.9,0.9c-1.2,0.1-2.4,0.1-3.7,0.3L1632.9,322.7z M1337.1,244.6
		C1337.2,244.6,1337.2,244.6,1337.1,244.6c11.6,3.8,23.6,5.3,34.9,6.4c6.3,0.6,12.2,1.3,17.9,2.1c3.9,0.5,7.8,1.1,11.7,1.7
		c3.2,0.5,6.5,1,9.8,1.5c2.9,0.4,5.9,0.8,8.8,1.1c5.6,0.7,11.5,1.4,17.2,2.5c8.2,1.7,16.3,3.9,24.2,6c2.2,0.6,4.4,1.2,6.6,1.8
		l4.9,1.3c8.2,2.2,16.7,4.4,25,7c4.2,1.3,8.4,2.9,12.5,4.4c4,1.5,8.1,3.1,12.1,4.3c2.8,0.9,5.7,1.4,8.7,2c3.4,0.7,6.8,1.3,10.2,2.5
		c9.7,3.3,19.6,6.7,29.1,10.1c10.7,3.8,21.7,7.6,32.6,11.3c9.2,3.1,19,6,29.2,6.1c1.2-0.1,2.4-0.2,3.7-0.3c2.9-0.2,5.5-0.3,8.2-0.8
		c0.4-0.1,0.9-0.2,1.3-0.2c3.3-0.6,4.9-1,5.3-2.5c1.1-3.8-1.9-6.3-3.7-7.4l-1.6-1c-4.3-2.7-8.7-5.4-13.3-7.3
		c-5-2.1-10.2-3.9-15.2-5.8c-6.5-2.4-13.3-4.8-19.7-7.7c-19.6-8.7-37.8-15.2-55.8-19.7c-26.3-6.7-53-12.9-77.9-18.6
		c-11.9-2.7-24.2-4.9-36.1-6.9l-0.7-0.1c-6.2-1.1-12.6-1.9-18.8-2.8c-2.2-0.3-4.4-0.6-6.6-0.9c-9.7-1.3-19.2-2.6-28.8-3.9l-2.7-0.3
		c-5.3-0.7-10.7-1.4-16.1-1.8c-8.5-0.6-14.1,0.8-18.7,4.6c-2.1,1.7-4.4,4.3-3.7,6.8c0.2,0.8,1.9,2,3.2,2.9
		C1335.7,243.4,1336.4,244,1337.1,244.6z"/>
	<path class="st1" d="M632,320.4c-3.5,0-6.9-0.4-10.2-1.1c-2-0.4-7.9-1.7-9.6-7.6c-1.8-6,2.7-10.3,4.2-11.6
		c7.2-6.8,15.9-10.5,22.6-13c14-5.2,24.8-8.8,35.2-11.8c3.9-1.1,7.8-1.6,11.7-2.1c3.3-0.4,6.3-0.8,9.3-1.6
		c11.7-2.9,20.6-5.4,28.7-8.3c3.8-1.3,7.7-2.8,11.4-4.1c13.8-5.1,28.1-10.4,43.2-12.8c3.7-0.6,7.6-1.1,11.2-1.7
		c5.4-0.8,10.9-1.5,16.3-2.5c7.3-1.3,14.7-2.9,21.9-4.4c5.3-1.1,10.7-2.2,16.1-3.3c17.3-3.4,34.3-6.7,51.3-9.7
		c4.2-0.7,8.4-1.1,12.8-1.5c2-0.2,4.1-0.4,6.2-0.6h0.4l0.4,0.1c1.3,0.2,2.6,0.4,3.9,0.5c3.3,0.4,6.8,0.9,10.2,1.7
		c2.9,0.7,4.8,2,5.9,3.9c1.4,2.6,0.7,5.6,0,7.6c-2.1,6.3-6.3,10.5-12,12.3c-10,3.1-20.3,6.2-30.7,8.6c-14.7,3.3-29.8,6.1-44.4,8.8
		l-2.5,0.5c-12.7,2.4-24.3,4.3-35.4,6c-14.1,2.1-32.6,5.3-50.8,11.1c-16.9,5.4-34.1,10.7-50.8,15.8c-6,1.9-12,3.7-18,5.6
		c-3.8,1.2-7.6,2.4-11.4,3.6c-9.9,3.1-20.2,6.4-30.4,9.2C642.8,319.6,637.3,320.4,632,320.4z M914.5,228.8c-2,0.2-4,0.4-5.9,0.6
		c-4.3,0.4-8.3,0.7-12.3,1.4c-17,3-33.9,6.3-51.2,9.7c-5.3,1-10.7,2.2-16,3.2c-7.2,1.5-14.7,3-22,4.4c-5.5,1-11.2,1.8-16.6,2.6
		c-3.7,0.5-7.4,1-11.1,1.6c-14.5,2.3-28.5,7.5-42.1,12.5c-3.8,1.4-7.6,2.8-11.5,4.2c-8.3,2.9-17.3,5.5-29.2,8.4
		c-3.3,0.8-6.7,1.3-10,1.7c-3.8,0.5-7.4,1-10.8,2c-10.2,2.9-20.9,6.6-34.8,11.7c-9.2,3.4-15.5,7-20.6,11.8c-2.7,2.5-3,4.1-2.5,5.5
		c0.4,1.3,1.3,2.6,5.2,3.4c7.3,1.6,15.2,1.2,24.1-1.3c10.1-2.8,20.4-6.1,30.3-9.2c3.8-1.2,7.6-2.4,11.4-3.6c6-1.9,12-3.7,18-5.6
		c16.6-5.1,33.8-10.4,50.7-15.8c18.7-5.9,37.5-9.1,51.8-11.3c11-1.7,22.5-3.6,35.1-5.9l2.5-0.5c14.5-2.7,29.6-5.5,44.2-8.8
		c10.2-2.3,20.4-5.4,30.2-8.4c3.8-1.2,6.5-4,8-8.5c0.7-2.1,0.5-2.7,0.4-2.8c-0.1-0.2-0.7-0.6-2.1-1c-3.1-0.8-6.4-1.2-9.5-1.6
		C916.9,229.1,915.7,229,914.5,228.8z"/>
	<path class="st1" d="M336.4,594.3L336.4,594.3c-9.9-0.2-18.3-4.9-23.6-13.3c-7.1-11.2-5.3-22.1,5.2-31.4c3.8-3.4,9.7-7.9,17.4-8.2
		c6.7-0.3,27.2-1,31.4,21.5c2.1,11.2-0.4,19.5-7.7,25.3C352.4,593.5,343.9,594.3,336.4,594.3L336.4,594.3z M338.1,547.3
		c-0.8,0-1.6,0-2.4,0c-4.5,0.2-8.7,2.2-13.7,6.7c-8.2,7.3-9.6,15.1-4.1,23.7c4.2,6.7,10.8,10.4,18.6,10.5c9.2,0,14.7-1.4,18.9-4.8
		c5.5-4.4,7.3-10.5,5.6-19.5C358.8,552.4,351.9,547.3,338.1,547.3z"/>
	<path class="st1" d="M1935.9,599.4c-5.4,0-10.7-2.1-15.2-4.4c-3.8-2-7.2-4.8-10.2-7.6c-9-8.3-10-20.4-2.4-32.4
		c1.7-2.7,4.1-6.1,7.3-7.9c2.7-1.5,5.7-2.2,8.6-2.9c1.2-0.3,2.4-0.6,3.5-0.9l0.4-0.1c6.3-1,13,1.2,19.1,6.1
		c7.3,5.9,12.7,15,13.2,22.2c0.4,6.5-2.3,13.3-7.9,19.7C1947,597.3,1941.4,599.4,1935.9,599.4z M1929,549.1
		c-1.2,0.4-2.4,0.7-3.6,0.9c-2.6,0.6-5.1,1.3-7.1,2.4c-2.1,1.1-3.9,3.9-5.1,5.8c-2.8,4.5-8.3,15.9,1.4,24.8c2.7,2.5,5.7,5,8.9,6.7
		c11.1,5.7,17.9,5,24.4-2.4c3.2-3.6,6.9-9.2,6.4-15.4c-0.4-5.6-5-13.1-11-18C1940,551.3,1934.8,548.3,1929,549.1z"/>
	<path class="st1" d="M634.5,841.8L634.5,841.8c11.2,0,21.6,3.2,31.3,6.4c11,3.6,22,7.5,32.7,11.3c9.5,3.3,19.3,6.8,29,10.1
		c3,1,6.1,1.6,9.5,2.3c3.1,0.6,6.2,1.2,9.3,2.2c4.2,1.3,8.4,2.9,12.5,4.4c4,1.5,8.1,3.1,12.1,4.3c8.2,2.5,16.6,4.8,24.8,6.9l4.9,1.3
		c2.2,0.6,4.4,1.2,6.7,1.8c7.8,2.1,15.9,4.3,23.9,5.9c5.5,1.1,11.2,1.8,16.7,2.4c2.9,0.3,6,0.7,9,1.1c3.3,0.5,6.6,1,9.8,1.5
		c3.8,0.6,7.7,1.2,11.5,1.7c5.6,0.8,11.4,1.4,17.7,2c11.6,1.1,24.1,2.7,36.2,6.7c0.4,0.1,1.1,0.3,1.7,0.9c0.6,0.5,1.3,1.1,2.1,1.6
		c2.2,1.5,4.6,3.3,5.4,6.1c0.9,3.1,0.7,7.8-5.6,13.1c-7.5,6.2-16.2,6.5-23,6c-5.5-0.4-11.1-1.1-16.4-1.8l-2.6-0.3
		c-9.6-1.2-19.2-2.5-28.9-3.9c-2.2-0.3-4.4-0.6-6.6-0.9c-6.2-0.8-12.7-1.7-19-2.8l-0.7-0.1c-12-2.1-24.3-4.2-36.4-7
		c-25-5.7-51.7-11.9-78.1-18.6c-18.3-4.7-36.8-11.2-56.7-20.1c-6.3-2.8-12.9-5.2-19.3-7.5c-5.1-1.8-10.4-3.7-15.5-5.9
		c-5-2.1-9.7-5-14.2-7.8l-1.6-1c-5.5-3.4-7.9-8.7-6.3-14.1c1.5-5.3,6.7-6.2,10.1-6.8c0.4-0.1,0.8-0.1,1.2-0.2c3-0.6,6-0.8,8.9-0.9
		c1.2-0.1,2.4-0.1,3.7-0.3L634.5,841.8z M930.3,919.9C930.2,919.9,930.2,919.9,930.3,919.9c-11.6-3.8-23.6-5.3-34.9-6.4
		c-6.3-0.6-12.2-1.3-17.9-2.1c-3.9-0.5-7.8-1.1-11.7-1.7c-3.2-0.5-6.5-1-9.8-1.5c-2.9-0.4-5.9-0.8-8.8-1.1
		c-5.6-0.7-11.5-1.4-17.2-2.5c-8.2-1.7-16.3-3.9-24.2-6c-2.2-0.6-4.4-1.2-6.6-1.8l-4.9-1.3c-8.2-2.2-16.7-4.4-25-7
		c-4.2-1.3-8.4-2.9-12.5-4.4c-4-1.5-8.1-3.1-12.1-4.3c-2.8-0.9-5.7-1.4-8.7-2c-3.4-0.7-6.8-1.3-10.2-2.5
		c-9.7-3.3-19.6-6.7-29.1-10.1c-10.7-3.8-21.7-7.6-32.6-11.3c-9.2-3.1-19-6-29.2-6.1c-1.2,0.1-2.4,0.2-3.7,0.3
		c-2.9,0.2-5.5,0.3-8.2,0.8c-0.4,0.1-0.9,0.2-1.3,0.2c-3.3,0.6-4.9,1-5.3,2.5c-1.1,3.8,1.9,6.3,3.7,7.4l1.6,1
		c4.3,2.7,8.7,5.4,13.3,7.3c5,2.1,10.2,3.9,15.2,5.8c6.5,2.4,13.3,4.8,19.7,7.7c19.6,8.7,37.8,15.2,55.8,19.7
		c26.3,6.7,53,12.9,77.9,18.6c11.9,2.7,24.2,4.9,36.1,6.9l0.7,0.1c6.2,1.1,12.6,1.9,18.8,2.8c2.2,0.3,4.4,0.6,6.6,0.9
		c9.7,1.3,19.2,2.6,28.8,3.9l2.7,0.3c5.3,0.7,10.7,1.4,16.1,1.8c8.5,0.6,14.1-0.8,18.7-4.6c2.1-1.7,4.4-4.3,3.7-6.8
		c-0.2-0.8-1.9-2-3.2-2.9C931.7,921.1,931,920.5,930.3,919.9z"/>
	<path class="st1" d="M1635.4,844.1c3.5,0,6.9,0.4,10.2,1.1c2,0.4,7.9,1.7,9.6,7.6c1.8,6-2.7,10.3-4.2,11.6
		c-7.2,6.8-15.9,10.5-22.6,13c-14,5.2-24.8,8.8-35.2,11.8c-3.9,1.1-7.8,1.6-11.7,2.1c-3.3,0.4-6.3,0.8-9.3,1.6
		c-11.7,2.9-20.6,5.4-28.7,8.3c-3.8,1.3-7.7,2.8-11.4,4.1c-13.8,5.1-28.1,10.4-43.2,12.8c-3.7,0.6-7.6,1.1-11.2,1.7
		c-5.4,0.8-10.9,1.5-16.3,2.5c-7.3,1.3-14.7,2.9-21.9,4.4c-5.3,1.1-10.7,2.2-16.1,3.3c-17.3,3.4-34.3,6.7-51.3,9.7
		c-4.2,0.7-8.4,1.1-12.8,1.5c-2,0.2-4.1,0.4-6.2,0.6h-0.4l-0.4-0.1c-1.3-0.2-2.6-0.4-3.9-0.5c-3.3-0.4-6.8-0.9-10.2-1.7
		c-2.9-0.7-4.8-2-5.9-3.9c-1.4-2.6-0.7-5.6,0-7.6c2.1-6.3,6.3-10.5,12-12.3c10-3.1,20.3-6.2,30.7-8.6c14.7-3.3,29.8-6.1,44.4-8.8
		l2.5-0.5c12.7-2.4,24.3-4.3,35.4-6c14.1-2.1,32.6-5.3,50.8-11.1c16.9-5.4,34.1-10.7,50.8-15.8c6-1.9,12-3.7,18-5.6
		c3.8-1.2,7.6-2.4,11.4-3.6c9.9-3.1,20.2-6.4,30.4-9.2C1624.6,844.9,1630.1,844.1,1635.4,844.1z M1352.9,935.7c2-0.2,4-0.4,5.9-0.6
		c4.3-0.4,8.3-0.7,12.3-1.4c17-3,33.9-6.3,51.2-9.7c5.3-1,10.7-2.2,16-3.2c7.2-1.5,14.7-3,22-4.4c5.5-1,11.2-1.8,16.6-2.6
		c3.7-0.5,7.4-1,11.1-1.6c14.5-2.3,28.5-7.5,42.1-12.5c3.8-1.4,7.6-2.8,11.5-4.2c8.3-2.9,17.3-5.5,29.2-8.4c3.3-0.8,6.7-1.3,10-1.7
		c3.8-0.5,7.4-1,10.8-2c10.2-2.9,20.9-6.6,34.8-11.7c9.2-3.4,15.5-7,20.6-11.8c2.7-2.5,3-4.1,2.5-5.5c-0.4-1.3-1.3-2.6-5.2-3.4
		c-7.3-1.6-15.2-1.2-24.1,1.3c-10.1,2.8-20.4,6.1-30.3,9.2c-3.8,1.2-7.6,2.4-11.4,3.6c-6,1.9-12,3.7-18,5.6
		c-16.6,5.1-33.8,10.4-50.7,15.8c-18.7,5.9-37.5,9.1-51.8,11.3c-11,1.7-22.5,3.6-35.1,5.9l-2.5,0.5c-14.5,2.7-29.6,5.5-44.2,8.8
		c-10.2,2.3-20.4,5.4-30.2,8.4c-3.8,1.2-6.5,4-8,8.5c-0.7,2.1-0.5,2.7-0.4,2.8c0.1,0.2,0.7,0.6,2.1,1c3.1,0.8,6.4,1.2,9.5,1.6
		C1350.5,935.4,1351.7,935.5,1352.9,935.7z"/>
	<path class="st1" d="M1136.8,969.8c-5.4,0-10.7-2.1-15.2-4.4c-3.8-2-7.2-4.8-10.2-7.6c-9-8.3-10-20.4-2.4-32.4
		c1.7-2.7,4.1-6.1,7.3-7.9c2.7-1.5,5.7-2.2,8.6-2.9c1.2-0.3,2.4-0.6,3.5-0.9l0.4-0.1c6.3-1,13,1.2,19.1,6.1
		c7.3,5.9,12.7,15,13.2,22.2c0.4,6.5-2.3,13.3-7.9,19.7C1147.9,967.7,1142.3,969.8,1136.8,969.8z M1129.9,919.5
		c-1.2,0.4-2.4,0.7-3.6,0.9c-2.6,0.6-5.1,1.3-7.1,2.4c-2.1,1.1-3.9,3.9-5.1,5.8c-2.8,4.5-8.3,15.9,1.4,24.8c2.7,2.5,5.7,5,8.9,6.7
		c11.1,5.7,17.9,5,24.4-2.4c3.2-3.6,6.9-9.2,6.4-15.4c-0.4-5.6-5-13.1-11-18C1140.9,921.7,1135.7,918.7,1129.9,919.5z"/>
</g>
<g id="Layer_2_1_">
	<ellipse class="st1" cx="1134.4" cy="576.6" rx="825.8" ry="429.1"/>
</g>
</svg>
